{"glyphs":{"0":{"ha":861,"x_min":0,"x_max":0,"o":"m 431 982 b 56 486 221 982 56 786 b 431 -8 56 186 221 -8 b 806 486 642 -8 806 186 b 431 982 806 786 642 982 z m 431 7 b 169 486 265 7 169 203 b 431 965 169 769 265 965 b 692 486 597 965 692 769 b 431 7 692 203 597 7 z "},"1":{"ha":378,"x_min":0,"x_max":0,"o":"m 322 11 b 239 96 251 11 239 26 l 239 972 l 226 972 l 14 875 l 14 863 b 150 864 14 863 150 935 l 150 96 b 67 11 150 26 136 11 l 39 11 l 39 0 l 350 0 l 350 11 z "},"2":{"ha":767,"x_min":0,"x_max":0,"o":"m 700 267 l 700 167 b 615 82 700 96 686 82 l 114 82 b 458 397 271 204 306 251 b 663 790 613 543 692 651 b 349 982 635 929 475 988 b 113 868 172 974 138 860 b 104 953 101 872 104 889 l 104 972 l 93 972 l 93 644 l 104 644 l 104 697 b 338 967 104 829 154 960 b 565 754 474 972 556 861 b 447 410 574 651 560 528 b 100 82 279 233 190 154 l 99 82 l 56 49 l 56 0 l 711 0 l 711 267 z "},"3":{"ha":778,"x_min":0,"x_max":0,"o":"m 518 525 b 417 522 481 528 447 526 b 676 765 557 576 668 643 b 399 982 688 918 525 985 b 156 868 228 978 178 846 b 147 953 149 876 147 889 l 147 972 l 136 972 l 136 644 l 147 644 l 147 697 b 381 967 147 829 226 956 b 582 736 515 976 608 883 b 279 490 554 593 421 529 l 285 478 b 492 503 363 499 414 521 b 618 229 604 478 650 360 b 375 17 586 100 501 28 b 38 146 206 1 88 74 l 28 139 b 354 -8 89 42 239 -8 b 725 233 538 -8 690 94 b 518 525 764 392 685 510 z "},"4":{"ha":826,"x_min":0,"x_max":0,"o":"m 785 243 l 785 258 l 594 258 l 594 972 l 582 972 l 28 258 l 28 243 l 504 243 l 504 96 b 421 11 504 26 492 11 l 393 11 l 393 0 l 706 0 l 706 11 l 678 11 b 594 96 607 11 594 26 l 594 243 z m 50 258 l 504 844 l 504 258 z "},"5":{"ha":750,"x_min":0,"x_max":0,"o":"m 444 590 b 168 519 332 601 232 564 l 190 888 l 574 889 b 650 806 636 888 650 874 l 650 706 l 661 706 l 661 972 l 181 972 l 153 507 l 161 500 b 417 563 232 546 313 576 b 597 290 551 546 617 440 b 351 17 582 161 497 33 b 38 146 188 -3 86 69 l 28 139 b 329 -8 89 42 214 -8 b 706 301 544 -8 688 151 b 444 590 726 472 613 574 z "},"6":{"ha":803,"x_min":0,"x_max":0,"o":"m 489 614 b 171 458 336 632 213 560 b 676 964 196 879 524 963 l 678 976 b 60 433 432 974 92 782 b 392 -8 29 118 240 0 b 744 283 622 -21 731 147 b 489 614 764 463 643 594 z m 642 282 b 436 6 639 161 581 22 b 168 383 344 -4 156 44 b 460 588 174 526 331 621 b 642 282 583 556 646 446 z "},"7":{"ha":761,"x_min":0,"x_max":0,"o":"m 56 972 l 56 692 l 67 692 l 67 806 b 144 889 67 874 81 889 l 642 888 b 219 0 464 661 267 313 l 349 0 b 706 938 349 310 489 724 l 706 972 z "},"8":{"ha":822,"x_min":0,"x_max":0,"o":"m 533 501 b 726 751 689 578 729 664 b 406 982 722 844 626 982 b 97 744 263 982 103 894 b 276 500 93 606 196 540 b 56 225 185 457 56 371 b 425 -8 56 104 160 -8 b 767 250 685 -8 767 142 b 533 501 767 364 689 438 z m 176 756 b 404 965 165 896 297 965 b 632 747 522 965 628 894 b 515 510 635 625 574 551 b 176 756 426 543 188 613 z m 411 8 b 150 242 279 17 147 110 b 293 490 153 361 215 436 b 676 207 414 442 682 376 b 411 8 672 58 549 1 z "},"9":{"ha":803,"x_min":0,"x_max":0,"o":"m 314 360 b 633 514 467 340 590 413 b 126 8 607 93 279 10 l 125 -4 b 744 540 371 -1 711 190 b 411 982 774 854 563 974 b 58 689 182 994 72 825 b 314 360 39 510 160 378 z m 161 690 b 368 967 165 811 222 951 b 635 590 458 976 647 928 b 343 385 629 446 472 351 b 161 690 219 417 157 526 z "},"B":{"ha":881,"x_min":0,"x_max":0,"o":"m 518 546 b 742 751 657 569 742 633 b 350 972 742 917 596 972 l 28 972 l 28 960 l 56 960 b 139 875 126 960 139 946 l 139 96 b 56 11 139 26 126 11 l 28 11 l 28 0 l 447 0 b 839 274 688 0 839 83 b 518 546 839 442 721 529 z m 326 956 b 646 751 588 956 646 869 b 326 547 646 633 588 547 b 326 546 326 547 326 547 l 228 546 l 228 956 z m 424 17 l 228 17 l 228 531 l 422 531 b 743 274 682 531 743 410 b 424 17 743 136 675 17 z "},"C":{"ha":1040,"x_min":0,"x_max":0,"o":"m 989 251 b 588 22 915 118 776 13 b 142 503 367 35 147 193 b 532 968 136 767 299 963 b 900 710 756 972 900 846 l 900 657 l 913 657 l 913 985 l 900 985 l 900 965 b 885 869 900 901 901 872 b 554 982 842 865 763 975 b 43 458 261 989 31 743 b 542 -8 56 179 286 7 b 999 246 764 -21 917 103 z "},"D":{"ha":1028,"x_min":0,"x_max":0,"o":"m 447 972 l 28 972 l 28 960 l 54 960 b 138 875 125 960 138 946 l 138 96 b 54 11 138 26 125 11 l 28 11 l 28 0 l 228 0 l 447 0 b 986 486 793 0 986 218 b 447 972 986 754 793 972 z m 422 17 l 228 17 l 228 956 l 422 956 b 888 486 753 956 888 742 b 422 17 888 231 753 17 z "},"E":{"ha":846,"x_min":0,"x_max":0,"o":"m 750 275 l 750 126 b 667 17 750 56 736 17 l 229 17 l 229 486 l 510 486 b 594 371 581 486 594 442 l 594 344 l 607 344 l 607 644 l 594 644 l 594 617 b 510 501 594 546 581 501 l 229 501 l 229 956 l 642 956 b 726 846 713 956 726 917 l 726 697 l 738 697 l 738 972 l 28 972 l 28 960 l 56 960 b 139 875 126 960 139 946 l 139 96 b 56 11 139 26 126 11 l 28 11 l 28 0 l 763 0 l 763 275 z "},"F":{"ha":829,"x_min":0,"x_max":0,"o":"m 28 972 l 28 960 l 56 960 b 139 875 126 960 139 946 l 139 96 b 56 11 139 26 126 11 l 28 11 l 28 0 l 389 0 l 389 11 l 313 11 b 229 96 242 11 229 26 l 229 486 l 511 486 b 596 371 581 486 596 442 l 596 344 l 607 344 l 607 644 l 596 644 l 596 617 b 511 501 596 546 581 501 l 229 501 l 229 956 l 642 956 b 726 846 713 956 726 917 l 726 697 l 739 697 l 739 972 z "},"G":{"ha":1076,"x_min":0,"x_max":0,"o":"m 618 461 l 618 450 l 792 450 b 875 365 863 450 875 436 b 875 140 875 299 875 208 b 589 7 822 72 744 7 b 144 486 347 7 153 207 b 544 967 135 772 311 961 b 907 708 765 972 907 844 l 907 657 l 919 657 l 919 983 l 907 983 l 907 965 b 892 869 907 900 908 872 b 551 982 849 861 778 982 b 43 456 267 982 31 747 b 589 -8 56 178 317 -8 b 939 121 825 -8 900 131 b 951 100 949 118 951 113 b 951 0 951 53 951 0 l 963 0 b 963 365 963 0 963 353 b 1046 450 963 436 975 450 l 1049 450 l 1049 461 z "},"H":{"ha":1063,"x_min":0,"x_max":0,"o":"m 1007 960 l 1035 960 l 1035 972 l 722 972 l 722 960 l 750 960 b 833 875 821 960 833 946 l 833 501 l 228 501 l 228 875 b 311 960 228 946 240 960 l 339 960 l 339 972 l 28 972 l 28 960 l 54 960 b 138 875 125 960 138 946 l 138 96 b 54 11 138 26 125 11 l 28 11 l 28 0 l 339 0 l 339 11 l 311 11 b 228 96 240 11 228 26 l 228 486 l 833 486 l 833 96 b 750 11 833 26 821 11 l 722 11 l 722 0 l 1035 0 l 1035 11 l 1007 11 b 924 96 936 11 924 26 l 924 875 b 1007 960 924 946 936 960 z "},"I":{"ha":367,"x_min":0,"x_max":0,"o":"m 311 960 l 339 960 l 339 972 l 28 972 l 28 960 l 56 960 b 139 875 126 960 139 946 l 139 96 b 56 11 139 26 126 11 l 28 11 l 28 0 l 339 0 l 339 11 l 311 11 b 228 96 240 11 228 26 l 228 875 b 311 960 228 946 240 960 z "},"J":{"ha":454,"x_min":0,"x_max":0,"o":"m 42 972 l 42 960 l 142 960 b 225 875 213 960 225 946 l 225 149 b 90 -199 225 -128 163 -186 b -90 -149 28 -210 -58 -160 b -151 -174 -124 -137 -149 -143 b -87 -221 -153 -201 -122 -215 b 94 -211 -42 -229 54 -222 b 315 158 158 -194 315 -132 b 315 875 315 158 315 875 b 399 960 315 946 328 960 l 426 960 l 426 972 z "},"K":{"ha":1004,"x_min":0,"x_max":0,"o":"m 951 11 b 828 96 889 11 872 39 l 465 615 l 694 875 b 849 960 746 928 778 960 l 876 960 l 876 972 l 614 972 l 614 960 l 644 960 b 688 886 714 960 729 935 l 228 364 l 228 875 b 311 960 228 946 240 960 l 339 960 l 339 972 l 28 972 l 28 960 l 56 960 b 138 875 125 960 138 946 l 138 96 b 56 11 138 26 125 11 l 28 11 l 28 0 l 339 0 l 339 11 l 311 11 b 228 96 240 11 228 26 l 228 346 l 407 549 l 729 96 b 694 11 772 31 765 11 l 679 11 l 679 0 l 990 0 l 990 11 z "},"L":{"ha":818,"x_min":0,"x_max":0,"o":"m 751 300 l 751 126 b 667 17 751 56 736 17 l 229 17 l 229 875 b 313 960 229 946 242 960 l 340 960 l 340 972 l 28 972 l 28 960 l 56 960 b 139 875 126 960 139 946 l 139 96 b 56 11 139 26 126 11 l 28 11 l 28 0 l 763 0 l 763 300 z "},"M":{"ha":1221,"x_min":0,"x_max":0,"o":"m 1165 960 l 1193 960 l 1193 972 l 993 972 l 640 357 l 253 972 l 28 972 l 28 960 l 56 960 b 176 875 126 960 176 946 l 176 96 b 56 11 176 26 126 11 l 28 11 l 28 0 l 340 0 l 340 11 l 313 11 b 192 96 242 11 192 26 l 192 893 l 589 267 l 606 267 l 993 944 l 993 96 b 910 11 993 26 981 11 l 882 11 l 882 0 l 1193 0 l 1193 11 l 1165 11 b 1082 96 1094 11 1082 26 l 1082 875 b 1165 960 1082 946 1094 960 z "},"N":{"ha":1114,"x_min":0,"x_max":0,"o":"m 775 972 l 775 960 l 803 960 b 922 876 874 960 922 946 l 922 158 l 267 972 l 28 972 l 28 960 l 56 960 b 175 876 126 960 175 946 l 175 96 b 56 11 175 26 126 11 l 28 11 l 28 0 l 339 0 l 339 11 l 311 11 b 192 96 242 11 192 26 l 192 910 l 922 0 l 939 0 l 939 876 b 1058 960 939 946 989 960 l 1086 960 l 1086 972 z "},"O":{"ha":1117,"x_min":0,"x_max":0,"o":"m 558 982 b 42 486 246 982 42 769 b 558 -8 42 203 246 -8 b 1075 486 869 -8 1075 203 b 558 982 1075 769 869 982 z m 558 7 b 136 486 300 7 136 203 b 558 965 136 769 300 965 b 981 486 817 965 981 769 b 558 7 981 203 817 7 z "},"P":{"ha":821,"x_min":0,"x_max":0,"o":"m 388 389 b 779 681 638 389 779 485 b 388 972 779 876 638 972 l 28 972 l 28 960 l 56 960 b 139 876 126 960 139 946 l 139 96 b 56 11 139 26 126 11 l 28 11 l 28 0 l 389 0 l 389 11 l 313 11 b 229 96 242 11 229 26 l 229 389 z m 363 956 b 683 681 625 956 683 826 b 363 406 683 533 625 406 l 229 406 l 229 956 z "},"Q":{"ha":1118,"x_min":0,"x_max":0,"o":"m 718 -137 b 389 -89 579 -78 526 -54 b 499 -6 446 -53 465 -36 b 558 -8 518 -7 539 -8 b 1076 486 871 -8 1076 203 b 558 982 1076 769 871 982 b 42 486 247 982 42 769 b 486 -4 42 225 215 26 b 383 -82 449 -36 419 -58 b 313 -89 357 -99 342 -94 b 272 -114 297 -86 275 -87 b 322 -135 269 -142 303 -149 b 683 -210 486 -22 556 -164 b 1047 -85 857 -274 1004 -169 l 1040 -81 b 718 -137 982 -164 875 -207 z m 136 486 b 558 965 136 769 300 965 b 981 486 817 965 981 769 b 558 7 981 203 817 7 b 136 486 300 7 136 203 z "},"R":{"ha":1001,"x_min":0,"x_max":0,"o":"m 1006 111 b 869 10 979 53 925 0 b 732 296 779 25 776 171 b 510 467 690 411 600 453 b 779 717 686 489 779 572 b 411 972 779 886 653 972 l 28 972 l 28 960 l 56 960 b 139 876 126 960 139 946 l 139 96 b 56 11 139 26 126 11 l 28 11 l 28 0 l 389 0 l 389 11 l 313 11 b 229 96 242 11 229 26 l 229 461 l 317 461 b 647 243 500 461 590 461 b 851 -8 690 78 743 0 b 1015 107 935 -15 989 51 z m 229 956 l 388 956 b 683 717 624 956 683 844 b 388 478 683 589 624 478 l 229 478 z "},"S":{"ha":842,"x_min":0,"x_max":0,"o":"m 456 564 b 217 797 278 638 211 704 b 443 967 225 924 326 972 b 711 728 626 958 711 860 l 711 676 l 724 676 l 724 829 l 724 1004 l 711 1004 l 711 985 b 703 900 711 919 715 904 b 443 981 674 886 613 974 b 144 790 336 985 169 924 b 393 483 118 651 192 569 b 721 203 554 414 735 368 b 432 6 710 71 603 -4 b 82 254 243 18 82 122 l 82 306 l 69 306 l 69 153 l 69 -22 l 82 -22 l 82 -3 b 99 93 82 63 81 90 b 453 -8 136 101 250 -8 b 789 229 633 -8 767 92 b 456 564 818 407 686 469 z "},"T":{"ha":931,"x_min":0,"x_max":0,"o":"m 69 972 l 69 697 l 81 697 l 81 846 b 165 956 81 917 94 956 l 419 956 l 419 96 b 336 11 419 26 407 11 l 310 11 l 310 0 l 621 0 l 621 11 l 593 11 b 510 96 522 11 510 26 l 510 956 l 765 956 b 850 846 835 956 850 917 l 850 697 l 861 697 l 861 972 z "},"U":{"ha":1051,"x_min":0,"x_max":0,"o":"m 711 972 l 711 960 l 739 960 b 860 876 810 960 860 946 l 860 385 b 569 31 860 172 742 35 b 229 397 382 26 229 122 l 229 876 b 313 960 229 946 242 960 l 340 960 l 340 972 l 28 972 l 28 960 l 56 960 b 139 876 126 960 139 946 l 139 397 b 539 -8 139 111 322 -8 b 875 385 793 -8 875 204 l 875 876 b 996 960 875 946 925 960 l 1024 960 l 1024 972 z "},"V":{"ha":1024,"x_min":0,"x_max":0,"o":"m 775 972 l 775 960 l 803 960 b 861 876 874 960 889 946 l 568 121 l 247 876 b 285 960 219 942 215 960 l 313 960 l 313 972 l 14 972 l 14 960 l 29 960 b 150 876 100 960 121 944 l 522 0 l 538 0 l 878 876 b 986 960 900 935 924 960 l 1010 960 l 1010 972 z "},"W":{"ha":1490,"x_min":0,"x_max":0,"o":"m 1189 972 l 1189 960 l 1217 960 b 1300 876 1288 960 1328 946 l 1007 121 l 786 639 l 878 876 b 1011 960 904 942 940 960 l 1039 960 l 1039 972 l 800 972 l 800 960 l 801 960 b 868 889 872 960 894 960 l 778 658 l 686 876 b 724 960 660 942 653 960 l 751 960 l 751 972 l 451 972 l 451 960 l 467 960 b 589 876 538 960 556 939 l 732 539 l 569 121 l 249 876 b 286 960 222 942 215 960 l 314 960 l 314 972 l 14 972 l 14 960 l 31 960 b 151 876 100 960 118 939 l 522 0 l 539 0 l 740 519 l 960 0 l 976 0 l 1315 876 b 1449 960 1342 942 1378 960 l 1476 960 l 1476 972 z "},"X":{"ha":1019,"x_min":0,"x_max":0,"o":"m 961 11 b 815 96 892 11 854 36 l 528 531 l 754 876 b 886 960 794 939 815 960 l 913 960 l 913 972 l 650 972 l 650 960 l 678 960 b 738 876 749 960 778 940 l 519 542 l 299 876 b 314 960 260 935 243 960 l 342 960 l 342 972 l 42 972 l 42 960 l 57 960 b 201 876 128 960 163 933 l 463 482 l 206 96 b 72 11 164 35 142 11 l 44 11 l 44 0 l 307 0 l 307 11 l 279 11 b 221 96 208 11 181 35 l 471 469 l 728 81 b 706 11 761 32 769 11 l 678 11 l 678 0 l 978 0 l 978 11 z "},"Y":{"ha":940,"x_min":0,"x_max":0,"o":"m 664 972 l 664 960 l 690 960 b 764 881 760 960 796 942 l 514 414 l 239 876 b 285 960 204 940 215 960 l 313 960 l 313 972 l 14 972 l 14 960 l 29 960 b 142 876 92 960 103 935 l 436 382 l 436 96 b 353 11 436 26 424 11 l 325 11 l 325 0 l 636 0 l 636 11 l 608 11 b 525 96 539 11 525 26 l 525 406 l 779 878 b 899 960 817 939 829 960 l 926 960 l 926 972 z "},"Z":{"ha":878,"x_min":0,"x_max":0,"o":"m 797 303 l 797 136 b 713 15 797 65 782 15 l 169 15 l 797 956 l 797 972 l 93 972 l 93 669 l 104 669 l 104 836 b 189 956 104 907 119 956 l 696 956 l 69 15 l 69 0 l 808 0 l 808 303 z "},"a":{"ha":756,"x_min":0,"x_max":0,"o":"m 749 78 b 643 8 722 36 676 4 b 600 104 615 11 600 33 l 600 426 b 350 682 600 604 508 682 b 136 615 276 682 194 651 b 117 556 111 599 103 572 b 196 568 133 535 161 535 b 347 671 240 611 274 671 b 511 474 438 671 511 638 b 318 367 494 443 450 389 b 36 157 161 340 31 303 b 276 -8 40 36 167 -14 b 511 218 429 0 497 143 b 511 113 511 206 511 124 b 624 -8 511 31 556 -8 b 756 72 686 -8 733 39 z m 511 285 b 314 14 511 161 428 25 b 117 163 214 4 124 53 b 301 353 110 292 217 335 b 511 457 450 382 482 424 b 511 285 511 413 511 347 z "},"b":{"ha":850,"x_min":0,"x_max":0,"o":"m 464 682 b 229 518 363 679 258 608 l 229 972 l 28 972 l 28 960 l 56 960 b 139 876 126 960 139 946 l 139 0 l 157 0 l 228 160 b 464 -8 254 67 360 -6 b 822 336 678 -14 822 135 b 464 682 822 538 678 688 z m 464 4 b 229 214 331 8 229 111 l 229 458 b 464 668 229 561 331 664 b 732 336 621 671 732 535 b 464 4 732 138 621 0 z "},"c":{"ha":740,"x_min":0,"x_max":0,"o":"m 789 279 b 422 35 753 211 642 21 b 126 329 274 44 144 136 b 379 667 107 531 226 668 b 554 575 481 663 525 618 b 643 547 583 533 624 524 b 621 615 657 565 651 593 b 403 682 565 653 501 679 b 43 303 206 682 39 510 b 396 -8 47 113 192 -8 b 796 274 629 -8 753 197 z "},"d":{"ha":849,"x_min":0,"x_max":0,"o":"m 807 11 b 724 96 736 11 724 26 l 724 972 l 524 972 l 524 960 l 551 960 b 633 876 621 960 633 946 l 633 518 b 400 682 604 608 501 679 b 42 336 186 688 42 538 b 400 -8 42 135 186 -14 b 633 154 501 -6 604 64 l 633 0 l 835 0 l 835 11 z m 400 4 b 132 336 242 0 132 138 b 400 668 132 535 242 671 b 633 458 532 664 633 561 l 633 214 b 400 4 633 111 532 8 z "},"e":{"ha":740,"x_min":0,"x_max":0,"o":"m 789 279 b 421 35 751 211 642 21 b 125 329 274 44 143 136 b 128 431 122 365 124 399 l 672 431 b 403 682 672 582 554 682 b 43 303 206 682 39 510 b 396 -8 47 113 190 -8 b 796 274 629 -8 753 197 z m 379 667 b 585 442 531 665 590 556 l 131 442 b 379 667 156 581 256 668 z "},"f":{"ha":513,"x_min":0,"x_max":0,"o":"m 503 954 b 322 978 460 971 386 985 b 146 701 197 963 146 879 l 146 672 l 28 672 l 28 660 l 146 660 l 146 96 b 63 11 146 26 133 11 l 35 11 l 35 0 l 396 0 l 396 11 l 319 11 b 236 96 249 11 236 26 l 236 660 l 481 660 l 481 672 l 236 672 l 236 774 b 317 964 236 924 272 953 b 463 906 368 976 431 933 b 538 901 492 881 528 879 b 503 954 547 924 529 943 z "},"g":{"ha":824,"x_min":0,"x_max":0,"o":"m 476 -39 b 149 36 246 -24 156 -11 b 222 108 146 65 179 90 b 364 132 267 126 364 132 b 388 131 371 131 379 131 b 685 406 563 131 685 244 b 515 657 685 524 619 615 b 713 654 544 661 604 660 b 789 685 769 650 789 661 b 724 714 789 710 768 722 b 503 663 622 697 535 672 b 388 682 468 674 429 682 b 92 406 214 682 92 567 b 317 138 92 268 181 165 b 76 -12 226 132 67 85 b 300 -118 83 -85 192 -108 b 210 -164 272 -129 240 -144 b 15 -401 115 -221 25 -294 b 397 -603 -1 -569 242 -631 b 818 -236 571 -572 786 -399 b 476 -39 847 -81 729 -56 z m 185 406 b 388 668 185 564 257 668 b 592 406 519 668 592 564 b 388 143 592 247 519 143 b 185 406 257 143 185 247 z m 418 -539 b 124 -472 307 -549 193 -521 b 118 -247 46 -417 36 -324 b 321 -119 194 -175 271 -137 b 460 -126 372 -124 424 -125 b 781 -233 575 -135 765 -110 b 418 -539 794 -358 651 -517 z "},"h":{"ha":867,"x_min":0,"x_max":0,"o":"m 825 11 b 742 96 754 11 742 26 b 742 419 742 96 742 319 b 478 682 742 589 636 682 b 229 511 353 682 261 600 l 229 972 l 28 972 l 28 960 l 56 960 b 139 876 126 960 139 946 l 139 96 b 56 11 139 26 126 11 l 28 11 l 28 0 l 340 0 l 340 11 l 313 11 b 229 96 242 11 229 26 l 229 432 b 461 664 229 536 324 664 b 651 438 576 664 651 576 b 651 96 651 361 651 200 b 568 11 651 26 639 11 l 540 11 l 540 0 l 853 0 l 853 11 z "},"i":{"ha":354,"x_min":0,"x_max":0,"o":"m 313 11 b 229 96 242 11 229 26 l 229 672 l 28 672 l 28 660 l 56 660 b 139 576 126 660 139 646 l 139 96 b 56 11 139 26 126 11 l 28 11 l 28 0 l 340 0 l 340 11 z m 176 813 b 240 876 211 813 240 840 b 176 940 240 911 211 940 b 113 876 140 940 113 911 b 176 813 113 840 140 813 z "},"j":{"ha":339,"x_min":0,"x_max":0,"o":"m 31 672 l 31 660 l 58 660 b 142 576 129 660 142 646 l 142 24 b 31 -329 142 -253 103 -315 b -125 -279 -32 -340 -94 -290 b -186 -304 -158 -268 -185 -272 b -124 -350 -189 -331 -157 -344 b 35 -342 -78 -358 -6 -353 b 231 24 97 -324 231 -267 b 231 672 231 24 231 672 z m 178 813 b 242 876 214 813 242 840 b 178 940 242 911 214 940 b 114 876 143 940 114 911 b 178 813 114 840 143 813 z "},"k":{"ha":817,"x_min":0,"x_max":0,"o":"m 782 11 b 647 96 728 11 682 47 l 410 443 l 547 576 b 703 660 599 625 633 660 l 731 660 l 731 672 l 492 672 l 492 660 l 519 660 b 542 586 585 660 583 628 l 229 286 l 229 972 l 28 972 l 28 960 l 56 960 b 139 876 126 960 139 946 l 139 96 b 56 11 139 26 126 11 l 28 11 l 28 0 l 340 0 l 340 11 l 313 11 b 229 96 242 11 229 26 l 229 269 l 350 386 b 576 53 376 349 558 81 b 658 0 597 25 619 0 b 803 0 661 0 803 0 l 803 11 z "},"l":{"ha":353,"x_min":0,"x_max":0,"o":"m 311 11 b 228 96 240 11 228 26 l 228 972 l 28 972 l 28 960 l 56 960 b 139 876 125 960 139 946 l 139 96 b 56 11 139 26 125 11 l 28 11 l 28 0 l 339 0 l 339 11 z "},"m":{"ha":1281,"x_min":0,"x_max":0,"o":"m 1239 11 b 1156 96 1168 11 1156 26 b 1156 419 1156 96 1156 319 b 904 682 1156 589 1060 682 b 685 493 775 682 703 588 b 440 682 660 615 572 682 b 228 521 324 682 254 606 l 228 672 l 28 672 l 28 660 l 56 660 b 139 576 126 660 139 646 l 139 96 b 56 11 139 26 126 11 l 28 11 l 28 0 l 339 0 l 339 11 l 311 11 b 228 96 242 11 228 26 l 228 432 b 425 664 228 536 294 664 b 601 438 536 664 601 576 b 601 96 601 361 601 200 b 519 11 601 26 589 11 l 492 11 l 492 0 l 803 0 l 803 11 l 775 11 b 692 96 704 11 692 26 b 692 432 692 96 692 429 b 888 664 692 536 758 664 b 1065 438 1000 664 1065 576 b 1065 96 1065 361 1065 200 b 982 11 1065 26 1053 11 l 954 11 l 954 0 l 1267 0 l 1267 11 z "},"n":{"ha":865,"x_min":0,"x_max":0,"o":"m 824 11 b 740 96 753 11 740 26 b 740 419 740 96 740 319 b 476 682 740 589 636 682 b 229 511 353 682 260 600 l 229 672 l 28 672 l 28 660 l 56 660 b 139 575 126 660 139 646 l 139 96 b 56 11 139 26 126 11 l 28 11 l 28 0 l 339 0 l 339 11 l 311 11 b 229 96 242 11 229 26 l 229 432 b 461 664 229 536 322 664 b 651 438 576 664 651 576 b 651 96 651 361 651 200 b 568 11 651 26 638 11 l 540 11 l 540 0 l 851 0 l 851 11 z "},"o":{"ha":794,"x_min":0,"x_max":0,"o":"m 404 682 b 42 336 189 682 42 538 b 404 -8 42 135 189 -8 b 767 336 618 -8 767 135 b 404 682 767 538 618 682 z m 404 4 b 131 336 232 4 131 138 b 404 668 131 535 232 668 b 678 336 576 668 678 535 b 404 4 678 138 576 4 z "},"p":{"ha":849,"x_min":0,"x_max":0,"o":"m 463 682 b 229 518 361 679 258 608 l 229 672 l 28 672 l 28 660 l 56 660 b 139 575 126 660 139 646 l 139 -204 b 56 -289 139 -275 126 -289 l 28 -289 l 28 -300 l 389 -300 l 389 -289 l 313 -289 b 229 -204 242 -289 229 -275 l 229 154 b 463 -8 258 64 361 -6 b 821 336 678 -14 821 135 b 463 682 821 538 678 688 z m 463 4 b 229 214 331 8 229 111 l 229 458 b 463 668 229 561 331 664 b 731 336 621 671 731 535 b 463 4 731 138 621 0 z "},"q":{"ha":835,"x_min":0,"x_max":0,"o":"m 807 -289 b 724 -204 736 -289 724 -275 l 724 672 l 707 672 l 636 513 b 400 682 608 604 503 679 b 42 336 185 688 42 538 b 400 -8 42 135 185 -14 b 633 154 501 -6 604 64 l 633 -204 b 550 -289 633 -275 621 -289 l 474 -289 l 474 -300 l 835 -300 l 835 -289 z m 633 214 b 400 4 633 111 532 8 b 132 336 242 0 132 138 b 400 668 132 535 242 671 b 633 458 532 664 633 561 z "},"r":{"ha":600,"x_min":0,"x_max":0,"o":"m 514 676 b 294 618 413 689 338 675 b 228 475 264 576 242 525 l 228 672 l 28 672 l 28 660 l 56 660 b 139 575 125 660 139 646 l 139 96 b 56 11 139 26 125 11 l 28 11 l 28 0 l 388 0 l 388 11 l 311 11 b 228 96 240 11 228 26 l 228 393 b 304 607 228 460 251 558 b 485 608 363 663 419 640 b 569 625 528 589 564 599 b 514 676 578 657 556 671 z "},"s":{"ha":614,"x_min":0,"x_max":0,"o":"m 319 396 b 140 542 226 436 140 464 b 308 667 139 628 235 669 b 531 460 474 661 531 588 b 531 407 531 438 531 407 l 539 407 l 539 686 l 531 686 b 531 660 531 686 531 676 b 511 621 531 640 528 621 b 310 682 485 622 450 678 b 83 540 265 683 104 663 b 304 306 64 422 154 364 b 522 132 438 254 528 218 b 306 7 517 43 413 1 b 51 214 206 11 51 75 b 51 267 51 229 51 267 l 42 267 l 42 -12 l 51 -12 b 51 8 51 -12 51 -4 b 75 69 51 38 56 65 b 322 -8 111 75 174 -4 b 585 168 453 -12 571 46 b 319 396 600 306 426 350 z "},"t":{"ha":517,"x_min":0,"x_max":0,"o":"m 482 122 b 329 11 454 88 408 11 b 222 174 272 11 222 40 l 222 660 l 429 660 l 429 672 l 222 672 l 222 888 b 213 888 222 888 217 888 b 14 672 189 774 118 672 l 14 660 l 132 660 l 132 197 b 314 -8 132 53 190 -8 b 489 115 404 -8 467 89 z "},"u":{"ha":851,"x_min":0,"x_max":0,"o":"m 810 11 b 726 96 739 11 726 26 l 726 672 l 526 672 l 526 660 l 554 660 b 636 575 624 660 636 646 l 636 240 b 431 8 636 135 569 8 b 214 235 306 8 214 88 b 214 672 214 353 214 672 l 14 672 l 14 660 l 42 660 b 125 575 113 660 125 646 b 125 251 125 575 125 351 b 413 -8 125 74 249 -8 b 636 154 533 -8 610 68 l 636 0 l 838 0 l 838 11 z "},"v":{"ha":765,"x_min":0,"x_max":0,"o":"m 556 672 l 556 660 l 558 660 b 619 575 629 660 649 644 l 421 106 l 201 575 b 242 660 171 640 171 660 l 261 660 l 261 672 l -28 672 l -28 660 l -12 660 b 110 575 58 660 78 643 l 375 0 l 390 0 l 635 575 b 742 660 658 632 678 660 l 751 660 l 751 672 z "},"w":{"ha":1119,"x_min":0,"x_max":0,"o":"m 910 672 l 910 660 l 913 660 b 976 576 983 660 1003 643 l 793 101 l 589 576 b 632 660 561 639 561 660 l 653 660 l 653 672 l 364 672 l 364 660 l 379 660 b 499 575 450 660 469 642 l 560 436 l 415 94 l 200 576 b 240 660 171 639 171 660 l 261 660 l 261 672 l -28 672 l -28 660 l -12 660 b 108 575 58 660 78 642 l 375 0 l 390 0 l 568 419 l 753 0 l 769 0 l 992 576 b 1096 660 1014 632 1032 660 l 1106 660 l 1106 672 z "},"x":{"ha":763,"x_min":0,"x_max":0,"o":"m 733 11 b 613 96 675 11 656 39 l 411 368 l 561 575 b 692 660 606 636 647 660 l 707 660 l 707 672 l 507 672 l 507 660 l 529 660 b 544 575 588 660 588 635 l 403 379 l 258 576 b 274 660 215 635 203 660 l 296 660 l 296 672 l 31 672 l 31 660 l 46 660 b 167 575 104 660 126 631 l 350 328 l 178 96 b 43 11 133 38 89 11 l 28 11 l 28 0 l 229 0 l 229 11 l 207 11 b 193 96 149 11 149 38 l 358 317 l 521 96 b 506 11 564 38 576 11 l 483 11 l 483 0 l 749 0 l 749 11 z "},"y":{"ha":747,"x_min":0,"x_max":0,"o":"m 538 672 l 538 660 l 540 660 b 600 575 611 660 629 644 l 403 107 l 203 575 b 247 660 175 640 176 660 l 267 660 l 267 672 l -22 672 l -22 660 l -7 660 b 111 575 64 660 83 643 l 356 0 b 33 -222 249 -237 172 -242 b -26 -249 -1 -218 -24 -221 b 28 -290 -29 -276 -7 -286 b 372 0 144 -304 257 -262 l 615 575 b 722 660 639 632 660 660 l 733 660 l 733 672 z "},"z":{"ha":639,"x_min":0,"x_max":0,"o":"m 585 240 l 585 136 b 500 15 585 65 571 15 l 131 15 l 572 656 l 572 672 l 54 672 l 54 432 l 65 432 l 65 536 b 150 656 65 607 81 656 l 483 656 l 42 15 l 42 0 l 597 0 l 597 240 z "}," ":{"ha":278,"x_min":0,"x_max":0,"o":""},".":{"ha":308,"x_min":0,"x_max":0,"o":"m 154 128 b 83 60 115 128 83 97 b 154 -8 83 22 115 -8 b 225 60 193 -8 225 22 b 154 128 225 97 193 128 z "},",":{"ha":310,"x_min":0,"x_max":0,"o":"m 154 128 b 83 60 115 128 83 97 b 161 -15 83 15 117 -6 b 101 -183 213 -25 154 -133 l 110 -192 b 225 60 181 -119 232 -32 b 154 128 222 97 196 128 z "},":":{"ha":307,"x_min":0,"x_max":0,"o":"m 154 128 b 83 60 114 128 83 97 b 154 -8 83 22 114 -8 b 224 60 193 -8 224 22 b 154 128 224 97 193 128 z m 154 467 b 224 535 193 467 224 497 b 154 603 224 572 193 603 b 83 535 114 603 83 572 b 154 467 83 497 114 467 z "},";":{"ha":308,"x_min":0,"x_max":0,"o":"m 154 467 b 225 535 193 467 225 497 b 154 603 225 572 193 603 b 83 535 115 603 83 572 b 154 467 83 497 115 467 z m 154 128 b 83 60 115 128 83 97 b 161 -15 83 15 117 -6 b 100 -183 211 -25 154 -133 l 110 -192 b 224 60 179 -119 231 -32 b 154 128 221 97 196 128 z "},"?":{"ha":681,"x_min":0,"x_max":0,"o":"m 619 790 b 329 982 590 929 456 988 b 117 868 153 974 144 860 b 110 953 107 872 110 889 l 110 972 l 97 972 l 97 644 l 110 644 l 110 697 b 317 967 110 829 150 957 b 521 754 453 975 511 861 b 410 421 531 651 496 558 b 281 224 361 342 343 321 l 290 218 b 422 408 339 288 367 322 b 619 790 538 586 647 651 z m 332 128 b 261 60 293 128 261 97 b 332 -8 261 22 293 -8 b 403 60 371 -8 403 22 b 332 128 403 97 371 128 z "},"!":{"ha":335,"x_min":0,"x_max":0,"o":"m 169 218 l 229 993 l 97 935 l 160 218 z m 168 128 b 97 60 129 128 97 97 b 168 -8 97 22 129 -8 b 238 60 207 -8 238 22 b 168 128 238 97 207 128 z "},"−":{"ha":665,"x_min":0,"x_max":0,"o":"m 83 453 l 83 438 l 582 438 l 582 453 z "},"+":{"ha":665,"x_min":0,"x_max":0,"o":"m 582 453 l 340 453 l 340 694 l 325 694 l 325 453 l 83 453 l 83 438 l 325 438 l 325 196 l 340 196 l 340 438 l 582 438 z "},"=":{"ha":665,"x_min":0,"x_max":0,"o":"m 83 340 l 582 340 l 582 356 l 83 356 z m 83 550 l 83 535 l 582 535 l 582 550 z "},"×":{"ha":531,"x_min":0,"x_max":0,"o":"m 447 615 l 436 628 l 265 457 l 94 628 l 83 615 l 254 446 l 83 275 l 94 264 l 265 433 l 436 264 l 447 275 l 276 446 z "},"÷":{"ha":665,"x_min":0,"x_max":0,"o":"m 83 453 l 83 438 l 582 438 l 582 453 z m 333 325 b 263 257 294 325 263 294 b 333 189 263 219 294 189 b 403 257 372 189 403 219 b 333 325 403 294 372 325 z m 333 567 b 403 635 372 567 403 597 b 333 703 403 672 372 703 b 263 635 294 703 263 672 b 333 567 263 597 294 567 z "},"≠":{"ha":665,"x_min":0,"x_max":0,"o":"m 582 535 l 582 550 l 438 550 l 521 643 l 510 654 l 417 550 l 83 550 l 83 535 l 401 535 l 242 356 l 83 356 l 83 340 l 226 340 l 143 247 l 156 236 l 249 340 l 582 340 l 582 356 l 263 356 l 424 535 z "},"±":{"ha":665,"x_min":0,"x_max":0,"o":"m 340 550 l 340 792 l 324 792 l 324 550 l 83 550 l 83 535 l 324 535 l 324 293 l 340 293 l 340 535 l 582 535 l 582 550 z m 83 196 l 582 196 l 582 213 l 83 213 z "},"#":{"ha":1111,"x_min":0,"x_max":0,"o":"m 1042 638 l 1042 654 l 746 654 l 746 972 l 731 972 l 731 654 l 382 654 l 382 972 l 365 972 l 365 654 l 69 654 l 69 638 l 365 638 l 365 333 l 69 333 l 69 318 l 365 318 l 365 0 l 382 0 l 382 318 l 731 318 l 731 0 l 746 0 l 746 318 l 1042 318 l 1042 333 l 746 333 l 746 638 z m 731 333 l 382 333 l 382 638 l 731 638 z "},"[":{"ha":399,"x_min":0,"x_max":0,"o":"m 125 1021 l 125 -74 l 357 -74 l 357 -57 l 192 -57 l 192 1004 l 357 1004 l 357 1021 z "},"]":{"ha":397,"x_min":0,"x_max":0,"o":"m 42 1021 l 42 1004 l 207 1004 l 207 -57 l 42 -57 l 42 -74 l 272 -74 l 272 1021 z "},"¡":{"ha":336,"x_min":0,"x_max":0,"o":"m 165 289 l 106 -487 l 238 -428 l 175 289 z m 168 515 b 97 446 129 515 97 485 b 168 378 97 408 129 378 b 239 446 207 378 239 408 b 168 515 239 485 207 515 z "},"¿":{"ha":679,"x_min":0,"x_max":0,"o":"m 571 -139 l 571 -190 b 363 -461 571 -322 531 -450 b 158 -249 226 -469 168 -356 b 269 85 150 -146 183 -53 b 399 282 319 164 338 186 l 389 289 b 257 97 342 218 313 183 b 61 -283 142 -81 33 -146 b 351 -475 89 -424 225 -481 b 563 -362 526 -467 536 -354 b 571 -447 574 -365 571 -382 l 571 -467 l 582 -467 l 582 -139 z m 347 378 b 418 446 386 378 418 408 b 347 515 418 485 386 515 b 278 446 308 515 278 485 b 347 378 278 408 308 378 z "},"‚":{"ha":308,"x_min":0,"x_max":0,"o":"m 154 128 b 83 60 115 128 83 97 b 161 -15 83 15 117 -6 b 100 -183 213 -25 154 -133 l 110 -192 b 224 60 179 -119 231 -32 b 154 128 221 97 196 128 z "},"„":{"ha":542,"x_min":0,"x_max":0,"o":"m 154 128 b 83 60 115 128 83 97 b 161 -15 83 15 118 -6 b 101 -183 213 -25 154 -133 l 110 -192 b 225 60 181 -119 232 -32 b 154 128 222 97 196 128 z m 386 128 b 315 60 347 128 315 97 b 393 -15 315 15 350 -6 b 333 -183 444 -25 386 -133 l 342 -192 b 457 60 413 -119 464 -32 b 386 128 454 97 428 128 z "},"‘":{"ha":310,"x_min":0,"x_max":0,"o":"m 149 901 b 210 1069 97 913 156 1019 l 200 1078 b 85 828 129 1007 79 918 b 156 758 88 789 114 758 b 226 828 194 758 226 789 b 149 901 226 872 193 892 z "},"’":{"ha":308,"x_min":0,"x_max":0,"o":"m 153 981 b 83 913 114 981 83 950 b 161 839 83 868 117 847 b 100 671 211 828 153 719 l 108 661 b 224 913 179 733 231 821 b 153 981 221 950 194 981 z "},"“":{"ha":542,"x_min":0,"x_max":0,"o":"m 379 901 b 440 1069 329 913 388 1019 l 432 1078 b 317 828 361 1007 310 918 b 388 758 319 789 346 758 b 458 828 426 758 458 789 b 379 901 458 872 424 892 z m 147 901 b 208 1069 97 913 156 1019 l 200 1078 b 85 828 129 1007 78 918 b 156 758 88 789 114 758 b 225 828 194 758 225 789 b 147 901 225 872 192 892 z "},"”":{"ha":542,"x_min":0,"x_max":0,"o":"m 154 981 b 83 913 115 981 83 950 b 161 839 83 868 117 847 b 100 671 213 828 154 719 l 110 661 b 224 913 179 733 231 821 b 154 981 222 950 196 981 z m 386 981 b 315 913 347 981 315 950 b 393 839 315 868 349 847 b 332 671 444 828 386 719 l 342 661 b 457 913 413 733 463 821 b 386 981 454 950 428 981 z "},"/":{"ha":388,"x_min":0,"x_max":0,"o":"m 344 972 l 28 0 l 44 0 l 360 972 z "},"\\":{"ha":388,"x_min":0,"x_max":0,"o":"m 44 972 l 28 972 l 344 0 l 360 0 z "},"(":{"ha":515,"x_min":0,"x_max":0,"o":"m 189 465 b 404 1010 189 653 235 860 l 397 1021 b 111 465 213 881 111 689 b 397 -90 111 242 213 50 l 404 -79 b 189 465 235 71 189 279 z "},")":{"ha":514,"x_min":0,"x_max":0,"o":"m 117 1021 l 111 1010 b 325 465 281 860 325 653 b 111 -79 325 279 281 71 l 117 -90 b 403 465 303 50 403 242 b 117 1021 403 689 303 881 z "},"«":{"ha":457,"x_min":0,"x_max":0,"o":"m 210 650 l 69 385 l 210 121 l 218 126 l 129 385 l 218 644 z m 374 644 l 365 650 l 225 385 l 365 121 l 374 126 l 285 385 z "},"‹":{"ha":301,"x_min":0,"x_max":0,"o":"m 218 633 l 211 638 l 69 374 l 211 110 l 218 114 l 129 374 z "},"»":{"ha":456,"x_min":0,"x_max":0,"o":"m 246 650 l 238 644 l 326 385 l 238 126 l 246 121 l 386 385 z m 83 644 l 171 385 l 83 126 l 90 121 l 231 385 l 90 650 z "},"›":{"ha":301,"x_min":0,"x_max":0,"o":"m 92 638 l 83 633 l 172 374 l 83 114 l 92 110 l 232 374 z "},"|":{"ha":315,"x_min":0,"x_max":0,"o":"m 125 972 l 125 -122 l 190 -122 l 190 972 z "},"-":{"ha":665,"x_min":0,"x_max":0,"o":"m 83 453 l 83 438 l 582 438 l 582 453 z "},"–":{"ha":738,"x_min":0,"x_max":0,"o":"m 83 453 l 83 438 l 654 438 l 654 453 z "},"—":{"ha":810,"x_min":0,"x_max":0,"o":"m 83 453 l 83 438 l 726 438 l 726 453 z "},"_":{"ha":738,"x_min":0,"x_max":0,"o":"m 83 0 l 83 -17 l 654 -17 l 654 0 z "},"'":{"ha":226,"x_min":0,"x_max":0,"o":"m 113 993 b 85 946 93 993 82 985 b 110 633 88 907 110 633 l 117 633 b 142 946 117 633 139 907 b 113 993 144 985 133 993 z "},"\"":{"ha":383,"x_min":0,"x_max":0,"o":"m 113 993 b 85 946 93 993 81 985 b 110 633 88 907 110 633 l 115 633 b 142 946 115 633 138 907 b 113 993 144 985 133 993 z m 271 993 b 242 946 250 993 239 985 b 267 633 244 907 267 633 l 274 633 b 299 946 274 633 296 907 b 271 993 301 985 290 993 z "},"~":{"ha":667,"x_min":0,"x_max":0,"o":"m 571 485 b 372 443 551 415 496 400 b 150 438 247 488 190 465 b 83 336 108 408 83 336 l 97 331 b 196 407 125 401 150 413 b 428 343 260 401 361 343 b 583 481 494 343 563 413 z "},"≈":{"ha":665,"x_min":0,"x_max":0,"o":"m 196 543 b 428 479 258 536 361 479 b 582 617 493 479 561 549 l 569 621 b 371 579 550 551 496 535 b 149 572 247 624 190 601 b 83 471 108 544 83 471 l 97 467 b 196 543 125 538 149 547 z m 371 394 b 149 389 247 439 190 417 b 83 288 108 360 83 288 l 97 282 b 196 358 125 353 149 363 b 428 294 258 353 361 294 b 582 432 493 294 561 364 l 569 436 b 371 394 550 367 496 351 z "},"^":{"ha":550,"x_min":0,"x_max":0,"o":"m 275 1011 l 83 822 l 89 814 l 275 946 l 461 814 l 467 822 z "},"%":{"ha":1185,"x_min":0,"x_max":0,"o":"m 885 972 l 303 0 l 318 0 l 901 972 z m 526 729 b 290 982 526 876 417 982 b 56 729 164 982 56 876 b 290 476 56 581 164 476 b 526 729 417 476 526 581 z m 290 490 b 138 729 194 490 138 585 b 290 968 138 874 194 968 b 443 729 386 968 443 874 b 290 490 443 585 386 490 z m 893 494 b 658 243 767 494 658 392 b 893 -8 658 94 767 -8 b 1129 243 1019 -8 1129 94 b 893 494 1129 392 1019 494 z m 893 4 b 740 243 799 4 740 99 b 893 482 740 388 799 482 b 1046 243 989 482 1046 388 b 893 4 1046 99 989 4 z "},"‰":{"ha":1761,"x_min":0,"x_max":0,"o":"m 526 729 b 290 982 526 876 417 982 b 56 729 164 982 56 876 b 290 476 56 581 164 476 b 526 729 417 476 526 581 z m 290 490 b 138 729 194 490 138 585 b 290 968 138 874 194 968 b 443 729 386 968 443 874 b 290 490 443 585 386 490 z m 893 494 b 658 243 768 494 658 392 b 893 -8 658 94 768 -8 b 1129 243 1019 -8 1129 94 b 893 494 1129 392 1019 494 z m 893 4 b 740 243 799 4 740 99 b 893 482 740 388 799 482 b 1047 243 989 482 1047 388 b 893 4 1047 99 989 4 z m 1469 494 b 1235 243 1344 494 1235 392 b 1469 -8 1235 94 1344 -8 b 1706 243 1596 -8 1706 94 b 1469 494 1706 392 1596 494 z m 1469 4 b 1317 243 1375 4 1317 99 b 1469 482 1317 388 1375 482 b 1624 243 1565 482 1624 388 b 1469 4 1624 99 1565 4 z m 886 972 l 303 0 l 318 0 l 901 972 z "},"•":{"ha":394,"x_min":0,"x_max":0,"o":"m 197 644 b 83 535 135 644 83 596 b 197 425 83 474 135 425 b 311 535 260 425 311 474 b 197 644 311 596 260 644 z "},"°":{"ha":574,"x_min":0,"x_max":0,"o":"m 288 982 b 69 779 176 982 69 901 b 288 579 69 657 176 579 b 504 779 399 579 504 657 b 288 982 504 901 399 982 z m 288 592 b 153 779 208 592 153 664 b 288 968 153 894 208 968 b 422 779 367 968 422 894 b 288 592 422 664 367 592 z "},"№":{"ha":1657,"x_min":0,"x_max":0,"o":"m 1117 381 l 1117 364 l 1615 364 l 1615 381 z m 775 960 l 803 960 b 924 876 874 960 924 946 l 924 158 l 268 972 l 28 972 l 28 960 l 56 960 b 176 876 126 960 176 946 l 176 96 b 56 11 176 26 126 11 l 28 11 l 28 0 l 340 0 l 340 11 l 313 11 b 192 96 242 11 192 26 l 192 910 l 924 0 l 939 0 l 939 876 b 1060 960 939 946 989 960 l 1088 960 l 1088 972 l 775 972 z m 1365 579 b 1583 779 1476 579 1583 658 b 1365 982 1583 901 1476 982 b 1149 779 1254 982 1149 901 b 1365 579 1149 658 1254 579 z m 1365 968 b 1500 779 1444 968 1500 894 b 1365 592 1500 664 1444 592 b 1231 779 1286 592 1231 664 b 1365 968 1231 894 1286 968 z "},"§":{"ha":844,"x_min":0,"x_max":0,"o":"m 771 400 b 456 733 793 558 717 625 b 217 968 279 807 208 875 b 428 1138 225 1076 307 1142 b 697 867 611 1129 697 999 l 697 815 l 708 815 l 708 968 l 708 1143 l 697 1143 l 697 1124 b 689 1039 697 1058 699 1043 b 429 1150 667 1031 600 1146 b 157 960 322 1154 183 1094 b 167 831 149 911 151 868 b 74 665 115 789 83 732 b 390 331 51 507 128 440 b 628 97 565 258 636 190 b 417 -72 619 -11 538 -76 b 147 199 233 -64 147 67 l 147 250 l 136 250 l 136 96 l 136 -78 l 147 -78 l 147 -58 b 156 26 147 7 146 22 b 415 -86 178 35 244 -81 b 688 106 522 -89 661 -29 b 678 233 696 154 693 196 b 771 400 729 276 761 333 z m 453 413 b 136 692 315 474 115 521 b 179 806 142 738 156 775 b 392 653 214 750 283 703 b 708 374 529 592 729 543 b 665 258 703 328 689 290 b 453 413 631 315 561 363 z "},"¶":{"ha":819,"x_min":0,"x_max":0,"o":"m 303 972 b 56 725 167 972 56 861 b 303 476 56 588 167 476 l 369 476 l 369 0 l 386 0 l 386 956 l 628 956 l 628 0 l 644 0 l 644 876 b 764 960 644 946 693 960 l 792 960 l 792 972 z "},"¦":{"ha":317,"x_min":0,"x_max":0,"o":"m 125 -122 l 192 -122 l 192 292 l 125 292 z m 125 972 l 125 558 l 192 558 l 192 972 z "},">":{"ha":739,"x_min":0,"x_max":0,"o":"m 90 668 l 83 654 l 635 443 l 83 232 l 90 218 l 656 435 l 656 451 z "},"<":{"ha":738,"x_min":0,"x_max":0,"o":"m 654 654 l 647 668 l 83 451 l 83 435 l 647 218 l 654 232 l 103 443 z "},"…":{"ha":847,"x_min":0,"x_max":0,"o":"m 154 128 b 83 60 115 128 83 97 b 154 -8 83 22 115 -8 b 225 60 193 -8 225 22 b 154 128 225 97 193 128 z m 424 128 b 353 60 385 128 353 97 b 424 -8 353 22 385 -8 b 494 60 463 -8 494 22 b 424 128 494 97 463 128 z m 693 128 b 624 60 654 128 624 97 b 693 -8 624 22 654 -8 b 764 60 732 -8 764 22 b 693 128 764 97 732 128 z "},"†":{"ha":490,"x_min":0,"x_max":0,"o":"m 383 669 b 250 638 349 667 269 643 b 281 771 256 657 278 738 b 244 824 283 811 265 824 b 210 771 225 824 206 811 b 240 638 213 738 235 657 b 107 669 221 643 140 667 b 56 633 67 672 56 653 b 107 597 56 613 67 594 b 242 629 142 600 224 624 b 206 425 239 606 225 478 b 242 -28 228 354 242 18 l 249 -28 b 285 425 249 18 263 354 b 249 629 265 478 251 606 b 383 597 267 624 349 600 b 435 633 422 594 435 613 b 383 669 435 653 422 672 z "},"‡":{"ha":492,"x_min":0,"x_max":0,"o":"m 383 253 b 249 221 349 250 267 226 b 285 425 251 246 265 372 b 249 629 265 478 251 606 b 383 597 267 624 349 600 b 436 633 424 594 436 613 b 383 669 436 653 424 672 b 250 638 350 667 269 643 b 282 771 256 657 279 738 b 246 824 285 811 265 824 b 210 771 225 824 207 811 b 242 638 213 738 236 657 b 107 669 221 643 142 667 b 56 633 68 672 56 653 b 107 597 56 613 68 594 b 242 629 142 600 224 624 b 206 425 239 606 225 478 b 242 221 225 372 239 246 b 107 253 224 226 142 250 b 56 217 68 256 56 238 b 107 182 56 197 68 178 b 242 213 142 185 221 207 b 210 79 236 193 213 113 b 246 26 207 39 225 26 b 282 79 265 26 285 39 b 250 213 279 113 256 193 b 383 182 269 207 350 185 b 436 217 424 178 436 197 b 383 253 436 238 424 256 z "},"©":{"ha":1040,"x_min":0,"x_max":0,"o":"m 543 175 b 304 433 425 182 308 267 b 514 682 301 575 389 679 b 711 543 633 685 711 617 l 711 515 l 718 515 l 718 692 l 711 692 l 711 681 b 703 629 711 646 711 631 b 525 689 681 628 638 686 b 251 410 368 693 246 563 b 519 160 258 260 382 167 b 764 294 639 153 719 218 l 760 297 b 543 175 719 226 644 169 z m 521 903 b 42 425 257 903 42 689 b 521 -53 42 161 257 -53 b 999 425 785 -53 999 161 b 521 903 999 689 785 903 z m 521 -42 b 54 425 264 -42 54 168 b 521 892 54 682 264 892 b 986 425 778 892 986 682 b 521 -42 986 168 778 -42 z "},"®":{"ha":1040,"x_min":0,"x_max":0,"o":"m 744 181 b 671 335 696 189 694 268 b 550 426 649 397 600 419 b 693 561 644 439 693 483 b 496 697 693 651 625 697 l 290 697 l 290 692 l 306 692 b 350 646 343 692 350 683 l 350 228 b 306 182 350 190 343 182 l 290 182 l 290 176 l 483 176 l 483 182 l 443 182 b 399 228 406 182 399 190 l 399 424 l 449 424 b 625 307 547 424 594 424 b 735 172 649 218 678 176 b 824 233 781 168 810 204 l 818 236 b 744 181 803 206 775 176 z m 399 689 l 483 689 b 642 561 610 689 642 629 b 483 432 642 492 610 432 l 399 432 z m 521 903 b 42 425 257 903 42 689 b 521 -53 42 161 257 -53 b 999 425 785 -53 999 161 b 521 903 999 689 785 903 z m 521 -42 b 54 425 264 -42 54 168 b 521 892 54 682 264 892 b 986 425 778 892 986 682 b 521 -42 986 168 778 -42 z "},"*":{"ha":536,"x_min":0,"x_max":0,"o":"m 450 868 b 390 886 444 888 426 901 b 272 814 358 872 289 825 b 304 950 276 829 301 914 b 268 1001 307 989 289 1001 b 232 950 249 1001 229 989 b 264 814 236 914 260 829 b 147 886 249 825 179 872 b 86 868 111 901 93 888 b 125 818 81 849 86 826 b 261 806 158 810 242 807 b 158 715 246 793 181 742 b 157 653 132 686 140 665 b 215 674 172 642 196 640 b 268 800 233 703 261 779 b 321 674 276 779 304 703 b 381 653 342 640 364 642 b 379 715 397 665 406 686 b 275 806 357 742 292 793 b 413 818 296 807 379 810 b 450 868 450 826 457 849 z "},"{":{"ha":332,"x_min":0,"x_max":0,"o":"m 290 964 b 290 972 290 968 290 969 b 119 867 189 972 126 931 b 175 656 113 807 140 728 b 138 461 239 519 167 472 b 97 453 117 453 110 453 l 97 444 b 138 436 110 444 117 444 b 175 242 167 425 239 378 b 119 31 140 169 113 90 b 290 -75 126 -33 189 -75 b 290 -67 290 -72 290 -71 b 160 14 228 -67 164 -50 b 235 304 153 108 243 188 b 129 449 226 407 163 439 b 235 593 163 458 226 490 b 160 883 243 710 153 789 b 290 964 164 947 228 964 z "},"}":{"ha":332,"x_min":0,"x_max":0,"o":"m 193 461 b 156 656 165 472 92 519 b 211 867 190 728 218 807 b 42 972 204 931 142 972 b 42 964 42 969 42 968 b 172 883 103 964 167 947 b 97 593 179 789 88 710 b 203 449 104 490 169 458 b 97 304 169 439 104 407 b 172 14 88 188 179 108 b 42 -67 167 -50 103 -67 b 42 -75 42 -71 42 -72 b 211 31 142 -75 204 -33 b 156 242 218 90 190 169 b 193 436 92 378 165 425 b 235 444 215 444 221 444 l 235 453 b 193 461 221 453 215 453 z "},"£":{"ha":857,"x_min":0,"x_max":0,"o":"m 817 196 b 551 113 772 86 690 68 b 288 108 424 153 333 126 b 169 43 253 94 208 67 b 336 365 254 115 349 224 b 319 469 333 401 328 436 l 631 469 l 631 485 l 317 485 b 249 754 290 589 253 679 b 476 967 242 876 340 972 b 708 697 660 960 708 829 l 708 644 l 721 644 l 721 972 l 708 972 l 708 953 b 701 868 708 889 711 872 b 465 982 676 860 640 974 b 161 788 339 988 194 936 b 206 485 136 672 164 608 l 42 485 l 42 469 l 211 469 b 240 376 221 442 231 411 b 94 -8 282 231 221 104 l 104 -17 b 363 56 208 49 271 61 b 619 -8 450 50 553 -8 b 829 193 701 -8 796 106 z "},"₿":{"ha":881,"x_min":0,"x_max":0,"o":"m 839 274 b 518 546 839 442 722 529 b 742 751 658 571 742 633 b 490 964 742 883 650 944 l 490 1136 l 474 1136 l 474 967 b 351 972 436 971 396 972 l 310 972 l 310 1136 l 294 1136 l 294 972 l 28 972 l 28 960 l 56 960 b 139 876 126 960 139 946 l 139 96 b 56 11 139 26 126 11 l 28 11 l 28 0 l 294 0 l 294 -164 l 310 -164 l 310 0 l 449 0 b 474 0 457 0 465 0 l 474 -164 l 490 -164 l 490 1 b 839 274 706 10 839 94 z m 229 956 l 326 956 b 646 751 588 956 646 869 b 326 547 646 633 588 547 b 229 547 326 547 326 547 z m 424 17 l 229 17 l 229 531 l 422 531 b 743 274 683 531 743 410 b 424 17 743 136 675 17 z "},"₽":{"ha":821,"x_min":0,"x_max":0,"o":"m 388 389 b 779 681 638 389 779 485 b 388 972 779 876 638 972 l 28 972 l 28 960 l 56 960 b 139 876 126 960 139 946 l 139 406 l 28 406 l 28 389 l 139 389 l 139 282 l 28 282 l 28 265 l 139 265 l 139 96 b 56 11 139 26 126 11 l 28 11 l 28 0 l 389 0 l 389 11 l 313 11 b 229 96 242 11 229 26 l 229 265 l 593 265 l 593 282 l 229 282 l 229 389 z m 229 956 l 363 956 b 683 681 625 956 683 826 b 363 406 683 533 625 406 l 229 406 z "},"€":{"ha":1132,"x_min":0,"x_max":0,"o":"m 1081 251 b 679 22 1007 118 867 13 b 247 385 488 33 299 153 l 642 385 l 642 401 l 243 401 b 233 503 238 433 233 467 b 233 551 232 519 233 536 l 739 551 l 739 568 l 235 568 b 624 968 256 799 408 964 b 992 710 847 972 992 846 l 992 657 l 1003 657 l 1003 985 l 992 985 l 992 967 b 975 871 992 901 993 872 b 644 982 933 865 854 976 b 142 568 390 989 183 803 l 28 568 l 28 551 l 139 551 b 135 458 135 521 133 490 b 140 401 135 439 138 419 l 28 401 l 28 385 l 143 385 b 633 -8 189 149 401 6 b 1090 246 856 -21 1008 103 z "},"$":{"ha":842,"x_min":0,"x_max":0,"o":"m 465 558 l 465 964 b 710 726 632 949 710 853 l 710 675 l 722 675 l 722 828 l 722 1003 l 710 1003 l 710 983 b 703 899 710 918 714 903 b 465 978 674 886 617 964 l 465 1136 l 449 1136 l 449 979 b 442 979 447 979 444 979 b 143 789 335 983 168 922 b 392 482 117 650 190 568 b 449 457 411 474 431 465 l 449 4 b 431 4 443 4 438 4 b 81 253 242 17 81 121 l 81 304 l 69 304 l 69 151 l 69 -24 l 81 -24 l 81 -4 b 97 92 81 61 79 89 b 449 -10 135 100 247 -10 l 449 -164 l 465 -164 l 465 -10 b 789 228 639 -6 767 93 b 465 558 817 403 689 465 z m 215 796 b 442 965 224 922 325 971 b 449 965 444 965 447 965 l 449 564 b 215 796 275 638 210 704 z m 719 201 b 465 4 708 79 615 6 l 465 451 b 719 201 603 396 731 342 z "},"¥":{"ha":942,"x_min":0,"x_max":0,"o":"m 664 972 l 664 960 l 692 960 b 765 881 761 960 796 942 l 515 414 l 240 876 b 286 960 204 940 215 960 l 314 960 l 314 972 l 14 972 l 14 960 l 29 960 b 143 876 92 960 104 935 l 429 394 l 224 394 l 224 379 l 436 379 l 436 282 l 224 282 l 224 265 l 436 265 l 436 96 b 353 11 436 26 424 11 l 325 11 l 325 0 l 638 0 l 638 11 l 610 11 b 526 96 539 11 526 26 l 526 265 l 739 265 l 739 282 l 526 282 l 526 379 l 739 379 l 739 394 l 526 394 l 526 406 l 781 878 b 900 960 818 939 829 960 l 928 960 l 928 972 z "},"¢":{"ha":740,"x_min":0,"x_max":0,"o":"m 789 429 b 422 185 751 361 642 171 b 379 190 407 186 393 188 l 379 817 b 554 725 456 817 514 785 b 642 697 583 683 624 674 b 619 765 656 715 651 743 b 403 831 565 803 501 828 b 379 829 394 831 386 829 l 379 990 l 363 990 l 363 828 b 43 453 183 807 39 646 b 363 143 47 274 175 156 l 363 -18 l 379 -18 l 379 142 b 396 142 385 142 390 142 b 796 425 629 142 753 347 z m 125 479 b 363 815 107 674 217 808 l 363 193 b 125 479 240 221 142 313 z "},"¤":{"ha":838,"x_min":0,"x_max":0,"o":"m 782 486 b 679 735 782 588 744 674 l 781 838 l 769 849 l 667 746 b 419 831 604 799 519 831 b 171 746 319 831 233 799 l 68 849 l 57 838 l 158 735 b 56 486 93 674 56 588 b 158 238 56 385 93 297 l 57 135 l 68 124 l 171 226 b 419 142 233 172 319 142 b 667 226 519 142 604 172 l 769 124 l 781 135 l 679 238 b 782 486 744 297 782 385 z m 419 154 b 146 486 246 154 146 288 b 419 818 146 685 246 818 b 693 486 592 818 693 685 b 419 154 693 288 592 154 z "},"&":{"ha":1194,"x_min":0,"x_max":0,"o":"m 1161 144 b 957 43 1092 56 1036 24 b 797 133 897 58 844 94 b 942 306 863 192 911 257 l 933 311 b 789 140 911 275 860 204 b 690 238 751 172 718 208 b 424 539 572 360 486 461 b 667 768 568 596 657 661 b 436 982 674 868 589 982 b 208 742 310 982 193 892 b 324 514 214 678 258 600 b 92 215 185 468 50 386 b 554 -1 138 33 375 -42 b 726 76 617 13 675 40 b 950 -8 786 31 861 -8 b 1167 139 1043 -8 1114 72 z m 456 967 b 588 767 539 954 600 871 b 417 549 575 681 528 611 b 307 706 360 622 324 675 b 456 967 204 879 322 988 z m 560 15 b 188 215 417 -8 243 51 b 326 508 128 392 219 468 b 618 176 406 404 514 288 b 718 82 644 149 678 114 b 560 15 669 50 617 25 z "},"@":{"ha":1544,"x_min":0,"x_max":0,"o":"m 900 1114 b 150 642 589 1136 267 967 b 354 -124 -4 219 218 -36 b 772 -237 479 -203 629 -237 b 1197 -103 946 -237 1107 -189 l 1186 -86 b 368 -104 1013 -242 633 -274 b 171 635 140 42 60 333 b 897 1097 294 972 613 1117 b 1419 506 1346 1067 1463 736 b 1071 121 1367 221 1181 128 b 992 279 1006 117 963 158 b 1082 704 1024 408 1082 704 b 807 801 1038 749 949 806 b 424 407 642 797 461 632 b 665 104 390 200 507 88 b 935 349 797 118 882 236 b 929 328 933 342 931 335 b 1046 103 876 142 958 103 b 1438 501 1131 103 1374 164 b 900 1114 1481 733 1368 1082 z m 700 133 b 511 506 542 113 468 300 b 842 789 560 735 740 800 b 1004 667 956 776 993 701 b 953 424 1004 667 979 536 b 700 133 906 294 814 147 z "},"Æ":{"ha":1425,"x_min":0,"x_max":0,"o":"m 1336 275 l 1336 126 b 1251 15 1336 56 1322 15 l 814 15 l 814 486 l 1096 486 b 1181 371 1167 486 1181 442 l 1181 344 l 1192 344 l 1192 644 l 1181 644 l 1181 617 b 1096 501 1181 546 1167 501 l 814 501 l 814 956 l 1228 956 b 1313 846 1297 956 1313 917 l 1313 697 l 1324 697 l 1324 972 l 613 972 l 613 960 l 640 960 b 708 944 676 960 697 957 b 699 901 715 935 713 921 l 169 96 b 36 11 133 40 100 11 l 14 11 l 14 0 l 247 0 l 247 11 l 219 11 b 188 96 149 11 142 28 l 338 324 l 724 324 l 724 96 b 640 11 724 26 711 11 l 613 11 l 613 0 l 1349 0 l 1349 275 z m 347 340 l 724 914 l 724 340 z "},"Œ":{"ha":1694,"x_min":0,"x_max":0,"o":"m 1600 275 l 1600 126 b 1515 15 1600 56 1585 15 l 1078 15 l 1078 486 l 1360 486 b 1443 371 1429 486 1443 442 l 1443 344 l 1456 344 l 1456 644 l 1443 644 l 1443 617 b 1360 501 1443 546 1429 501 l 1078 501 l 1078 956 l 1490 956 b 1575 846 1561 956 1575 917 l 1575 697 l 1588 697 l 1588 972 l 876 972 l 876 960 l 904 960 b 988 876 975 960 988 946 l 988 778 b 560 982 899 903 749 982 b 42 486 247 982 42 769 b 560 -8 42 203 247 -8 b 988 194 749 -8 899 69 l 988 96 b 904 11 988 26 975 11 l 876 11 l 876 0 l 1611 0 l 1611 275 z m 560 7 b 138 486 301 7 138 203 b 560 965 138 769 301 965 b 981 486 818 965 981 769 b 560 7 981 203 818 7 z "},"Đ":{"ha":1029,"x_min":0,"x_max":0,"o":"m 449 972 l 28 972 l 28 960 l 56 960 b 139 876 126 960 139 946 l 139 501 l 28 501 l 28 486 l 139 486 l 139 96 b 56 11 139 26 126 11 l 28 11 l 28 0 l 229 0 l 449 0 b 988 486 794 0 988 218 b 449 972 988 754 794 972 z m 424 17 l 229 17 l 229 486 l 526 486 l 526 501 l 229 501 l 229 956 l 424 956 b 890 486 754 956 890 742 b 424 17 890 231 754 17 z "},"Ø":{"ha":1117,"x_min":0,"x_max":0,"o":"m 928 844 l 1024 940 l 1013 951 l 915 856 b 558 982 826 933 704 982 b 42 486 246 982 42 769 b 189 128 42 342 94 217 l 93 32 l 104 21 l 200 117 b 558 -8 289 39 413 -8 b 1075 486 869 -8 1075 203 b 928 844 1075 631 1022 756 z m 136 486 b 558 965 136 769 300 965 b 878 817 694 965 804 910 l 229 168 b 136 486 169 250 136 358 z m 558 7 b 239 156 422 7 313 63 l 888 804 b 981 486 947 722 981 613 b 558 7 981 203 817 7 z "},"Þ":{"ha":819,"x_min":0,"x_max":0,"o":"m 386 778 l 228 778 l 228 876 b 311 960 228 946 240 960 l 339 960 l 339 972 l 28 972 l 28 960 l 56 960 b 138 876 125 960 138 946 l 138 96 b 56 11 138 26 125 11 l 28 11 l 28 0 l 339 0 l 339 11 l 311 11 b 228 96 240 11 228 26 l 228 194 l 386 194 b 778 486 636 194 778 290 b 386 778 778 682 636 778 z m 363 211 l 228 211 l 228 761 b 363 761 228 761 363 761 b 682 486 624 761 682 632 b 363 211 682 339 624 211 z "},"Ł":{"ha":818,"x_min":0,"x_max":0,"o":"m 751 300 l 751 126 b 667 15 751 56 738 15 l 229 15 l 229 346 l 526 461 l 526 478 l 229 361 l 229 876 b 313 960 229 946 242 960 l 340 960 l 340 972 l 28 972 l 28 960 l 56 960 b 139 876 126 960 139 946 l 139 326 l 28 283 l 28 267 l 139 311 l 139 96 b 56 11 139 26 126 11 l 28 11 l 28 0 l 763 0 l 763 300 z "},"Ħ":{"ha":1063,"x_min":0,"x_max":0,"o":"m 1036 672 l 1036 688 l 925 688 l 925 876 b 1008 960 925 946 938 960 l 1036 960 l 1036 972 l 724 972 l 724 960 l 751 960 b 835 876 822 960 835 946 l 835 688 l 229 688 l 229 876 b 313 960 229 946 242 960 l 340 960 l 340 972 l 28 972 l 28 960 l 56 960 b 139 876 126 960 139 946 l 139 688 l 28 688 l 28 672 l 139 672 l 139 96 b 56 11 139 26 126 11 l 28 11 l 28 0 l 340 0 l 340 11 l 313 11 b 229 96 242 11 229 26 l 229 486 l 835 486 l 835 96 b 751 11 835 26 822 11 l 724 11 l 724 0 l 1036 0 l 1036 11 l 1008 11 b 925 96 938 11 925 26 l 925 672 z m 835 501 l 229 501 l 229 672 l 835 672 z "},"Ŋ":{"ha":1115,"x_min":0,"x_max":0,"o":"m 775 972 l 775 960 l 803 960 b 924 876 874 960 924 946 l 924 158 l 267 972 l 28 972 l 28 960 l 56 960 b 176 876 126 960 176 946 l 176 96 b 56 11 176 26 126 11 l 28 11 l 28 0 l 340 0 l 340 11 l 313 11 b 192 96 242 11 192 26 l 192 910 l 924 0 b 811 -196 924 -74 913 -179 b 631 -125 744 -207 661 -140 b 572 -140 600 -108 579 -112 b 633 -196 564 -168 600 -186 b 815 -211 679 -210 775 -219 b 939 0 913 -190 939 -103 b 939 876 939 0 939 876 b 1060 960 939 946 989 960 l 1088 960 l 1088 972 z "},"Ŧ":{"ha":931,"x_min":0,"x_max":0,"o":"m 69 972 l 69 697 l 81 697 l 81 846 b 165 956 81 917 94 956 l 421 956 l 421 453 l 215 453 l 215 438 l 421 438 l 421 96 b 338 11 421 26 407 11 l 310 11 l 310 0 l 621 0 l 621 11 l 593 11 b 510 96 522 11 510 26 l 510 438 l 714 438 l 714 453 l 510 453 l 510 956 l 765 956 b 850 846 836 956 850 917 l 850 697 l 861 697 l 861 972 z "},"ß":{"ha":938,"x_min":0,"x_max":0,"o":"m 656 486 b 525 663 481 561 410 568 b 339 978 669 782 549 1008 b 139 701 215 960 139 879 l 139 96 b 56 11 139 26 126 11 l 28 11 l 28 0 l 229 0 b 229 774 229 0 229 774 b 333 964 229 924 289 953 b 475 661 469 994 554 825 b 578 424 422 556 435 496 b 846 178 713 357 851 299 b 618 7 842 74 760 0 b 332 275 426 15 332 143 l 332 326 l 321 326 l 321 0 l 332 0 l 332 18 b 349 114 332 83 331 111 b 640 -8 386 122 422 -8 b 903 189 789 -8 882 86 b 656 486 926 299 882 386 z "},"æ":{"ha":1215,"x_min":0,"x_max":0,"o":"m 1264 279 b 897 35 1226 211 1117 21 b 600 329 749 44 619 136 b 603 431 597 365 599 399 l 1147 431 b 878 682 1147 582 1029 682 b 588 528 761 682 654 619 b 350 682 558 633 475 682 b 138 615 276 682 196 651 b 117 556 111 599 103 572 b 197 568 133 535 163 535 b 347 671 242 611 275 671 b 511 474 439 671 511 638 b 319 367 496 443 450 389 b 36 157 161 340 32 303 b 276 -8 40 36 168 -14 b 521 272 431 0 511 140 b 871 -8 539 100 678 -8 b 1271 274 1104 -8 1228 197 z m 854 667 b 1060 442 1006 665 1065 556 l 606 442 b 854 667 631 579 732 668 z m 511 285 b 314 14 511 161 428 25 b 118 163 214 4 124 53 b 303 353 111 292 217 335 b 511 457 450 382 483 424 b 511 285 511 413 511 347 z "},"œ":{"ha":1385,"x_min":0,"x_max":0,"o":"m 1432 279 b 1065 35 1396 211 1286 21 b 769 329 918 44 788 136 b 772 431 767 365 767 399 l 1315 431 b 1047 682 1315 582 1199 682 b 733 490 914 682 796 604 b 406 682 678 607 558 682 b 42 336 190 682 42 538 b 406 -8 42 135 190 -8 b 722 160 549 -8 663 56 b 1040 -8 778 54 893 -8 b 1440 274 1274 -8 1397 197 z m 1024 667 b 1229 442 1174 665 1235 556 l 774 442 b 1024 667 800 579 900 668 z m 406 4 b 132 336 232 4 132 138 b 406 668 132 535 232 668 b 679 336 578 668 679 535 b 406 4 679 138 578 4 z "},"đ":{"ha":849,"x_min":0,"x_max":0,"o":"m 807 11 b 724 96 736 11 724 26 l 724 790 l 835 790 l 835 806 l 724 806 l 724 972 l 524 972 l 524 960 l 551 960 b 633 876 621 960 633 946 l 633 806 l 385 806 l 385 790 l 633 790 l 633 518 b 400 682 604 608 501 679 b 42 336 186 688 42 538 b 400 -8 42 135 186 -14 b 633 154 501 -6 604 64 l 633 0 l 835 0 l 835 11 z m 633 214 b 400 4 633 111 532 8 b 132 336 242 0 132 138 b 400 668 132 535 242 671 b 633 458 532 664 633 561 z "},"ø":{"ha":794,"x_min":0,"x_max":0,"o":"m 664 585 l 767 688 l 756 699 l 653 596 b 404 682 589 649 504 682 b 42 336 189 682 42 538 b 143 86 42 235 79 147 l 42 -15 l 53 -26 l 156 76 b 404 -8 218 22 304 -8 b 767 336 618 -8 767 135 b 664 585 767 438 729 524 z m 131 336 b 404 668 131 535 232 668 b 617 560 497 668 571 628 l 182 125 b 131 336 149 181 131 253 z m 404 4 b 190 111 310 4 238 43 l 626 547 b 678 336 660 492 678 419 b 404 4 678 138 576 4 z "},"þ":{"ha":850,"x_min":0,"x_max":0,"o":"m 464 682 b 229 518 363 679 258 608 l 229 972 l 28 972 l 28 960 l 56 960 b 139 876 126 960 139 946 l 139 -204 b 56 -289 139 -275 126 -289 l 28 -289 l 28 -300 l 389 -300 l 389 -289 l 313 -289 b 229 -204 242 -289 229 -275 l 229 154 b 464 -8 258 64 363 -6 b 822 336 678 -14 822 135 b 464 682 822 538 678 688 z m 464 4 b 229 214 331 8 229 111 l 229 458 b 464 668 229 561 331 664 b 731 336 621 671 731 535 b 464 4 731 138 621 0 z "},"ł":{"ha":353,"x_min":0,"x_max":0,"o":"m 383 399 l 383 414 l 228 349 l 228 972 l 26 972 l 26 960 l 54 960 b 138 876 125 960 138 946 l 138 310 l -18 244 l -18 228 l 138 294 l 138 96 b 54 11 138 26 125 11 l 26 11 l 26 0 l 339 0 l 339 11 l 311 11 b 228 96 240 11 228 26 l 228 332 z "},"ħ":{"ha":867,"x_min":0,"x_max":0,"o":"m 825 11 b 742 96 754 11 742 26 b 742 419 742 96 742 319 b 478 682 742 589 636 682 b 229 511 353 682 261 600 l 229 790 l 478 790 l 478 806 l 229 806 l 229 972 l 28 972 l 28 960 l 56 960 b 139 876 126 960 139 946 l 139 806 l 28 806 l 28 790 l 139 790 l 139 96 b 56 11 139 26 126 11 l 28 11 l 28 0 l 340 0 l 340 11 l 313 11 b 229 96 242 11 229 26 l 229 432 b 463 664 229 536 324 664 b 651 438 576 664 651 576 b 651 96 651 361 651 200 b 568 11 651 26 639 11 l 540 11 l 540 0 l 853 0 l 853 11 z "},"ŋ":{"ha":851,"x_min":0,"x_max":0,"o":"m 476 682 b 228 511 353 682 260 600 l 228 672 l 28 672 l 28 660 l 56 660 b 139 575 125 660 139 646 l 139 96 b 56 11 139 26 125 11 l 28 11 l 28 0 l 339 0 l 339 11 l 311 11 b 228 96 240 11 228 26 l 228 432 b 461 664 228 536 322 664 b 650 438 575 664 650 576 b 650 97 650 319 650 97 b 539 -256 650 -179 613 -243 b 383 -207 476 -267 415 -217 b 322 -231 350 -194 325 -200 b 386 -278 321 -258 351 -272 b 544 -268 432 -286 504 -279 b 740 97 607 -251 740 -193 b 740 419 740 97 740 256 b 476 682 740 589 635 682 z "},"ŧ":{"ha":517,"x_min":0,"x_max":0,"o":"m 482 122 b 329 11 454 88 408 11 b 222 174 272 11 222 40 l 222 478 l 378 478 l 378 494 l 222 494 l 222 660 l 431 660 l 431 672 l 222 672 l 222 888 b 213 888 222 888 217 888 b 14 672 189 774 118 672 l 14 660 l 132 660 l 132 494 l 14 494 l 14 478 l 132 478 l 132 197 b 314 -8 132 53 190 -8 b 489 115 404 -8 467 89 z "},"ſ":{"ha":443,"x_min":0,"x_max":0,"o":"m 503 954 b 322 978 460 971 386 985 b 146 701 197 963 146 879 l 146 672 l 28 672 l 28 660 l 146 660 l 146 96 b 63 11 146 26 133 11 l 35 11 l 35 0 l 396 0 l 396 11 l 319 11 b 236 96 249 11 236 26 l 236 774 b 317 964 236 924 272 953 b 463 906 368 975 431 933 b 538 901 492 881 528 879 b 503 954 547 924 529 943 z "},"ð":{"ha":775,"x_min":0,"x_max":0,"o":"m 731 433 b 424 886 711 644 579 797 l 569 971 l 561 985 l 407 896 b 113 976 310 949 204 976 l 113 964 b 388 885 183 964 290 946 l 246 803 l 253 789 l 403 875 b 619 458 513 803 606 675 b 300 614 576 560 453 632 b 44 283 146 594 26 463 b 399 -8 58 147 168 -21 b 731 433 550 0 760 118 z m 354 6 b 147 282 210 22 151 161 b 329 588 143 446 206 556 b 621 383 460 621 617 526 b 354 6 633 44 444 -4 z "},"˛":{"ha":269,"x_min":0,"x_max":0,"o":"m 236 -143 b 139 -196 213 -174 175 -199 b 93 -126 107 -193 89 -167 b 153 0 97 -89 114 -54 b 143 0 150 0 144 0 b 38 -103 104 -26 56 -61 b 110 -211 11 -164 50 -204 b 242 -146 172 -218 224 -174 z "},"¸":{"ha":267,"x_min":0,"x_max":0,"o":"m 154 -68 b 85 -81 129 -67 101 -72 l 114 0 l 108 0 l 76 -89 l 79 -92 b 142 -79 97 -82 117 -75 b 179 -143 172 -83 183 -106 b 121 -207 175 -178 154 -203 b 33 -172 85 -211 44 -190 l 28 -176 b 117 -215 43 -200 88 -215 b 238 -140 169 -215 232 -196 b 154 -68 242 -94 199 -74 z "},"":{"ha":181,"x_min":0,"x_max":0,"o":"m 90 -89 b 28 -149 56 -89 28 -115 b 96 -214 28 -187 57 -206 b 43 -361 140 -224 90 -318 l 51 -369 b 151 -149 113 -306 157 -229 b 90 -89 150 -115 126 -89 z "},"Ą":{"ha":1024,"x_min":0,"x_max":0,"o":"m 899 0 l 1008 0 l 1008 11 l 993 11 b 872 96 924 11 901 26 l 500 972 l 485 972 l 144 96 b 36 11 122 38 100 11 l 14 11 l 14 0 l 247 0 l 247 11 l 219 11 b 161 96 149 11 133 26 l 250 324 l 678 324 l 775 96 b 738 11 803 29 807 11 l 710 11 l 710 0 l 889 0 b 783 -103 850 -26 801 -61 b 856 -211 757 -164 796 -204 b 988 -146 918 -218 969 -174 l 982 -143 b 885 -196 958 -174 921 -199 b 839 -126 853 -193 835 -167 b 899 0 843 -89 860 -54 z m 256 340 l 454 851 l 671 340 z "},"`":{"ha":274,"x_min":0,"x_max":0,"o":"m 94 949 b 35 958 65 975 47 975 b 61 903 22 943 28 924 b 242 797 94 882 242 797 l 246 803 b 94 949 246 803 124 922 z "},"Ç":{"ha":1040,"x_min":0,"x_max":0,"o":"m 999 246 l 989 251 b 588 22 915 118 776 13 b 142 503 367 35 147 193 b 532 968 136 767 299 964 b 900 710 756 972 900 846 l 900 657 l 913 657 l 913 985 l 900 985 l 900 965 b 883 871 900 901 901 872 b 554 982 842 865 763 976 b 43 458 261 989 31 743 b 542 -8 54 179 286 7 b 550 -8 544 -8 547 -8 l 521 -89 l 524 -92 b 586 -79 542 -82 560 -75 b 624 -143 617 -83 628 -106 b 565 -207 618 -178 599 -203 b 478 -172 529 -211 489 -190 l 472 -176 b 560 -215 488 -200 532 -215 b 681 -140 613 -215 676 -196 b 599 -68 686 -94 643 -74 b 529 -81 572 -67 546 -72 l 556 -8 b 999 246 771 -15 918 106 z "},"Ę":{"ha":846,"x_min":0,"x_max":0,"o":"m 650 0 l 763 0 l 763 275 l 751 275 l 751 126 b 667 15 751 56 738 15 l 229 15 l 229 486 l 511 486 b 596 371 582 486 596 442 l 596 344 l 607 344 l 607 644 l 596 644 l 596 617 b 511 501 596 546 582 501 l 229 501 l 229 956 l 643 956 b 728 846 713 956 728 917 l 728 697 l 739 697 l 739 972 l 28 972 l 28 960 l 56 960 b 139 876 126 960 139 946 l 139 96 b 56 11 139 26 126 11 l 28 11 l 28 0 l 640 0 b 535 -103 601 -26 553 -61 b 607 -211 508 -164 547 -204 b 739 -146 669 -218 721 -174 l 733 -143 b 636 -196 710 -174 672 -199 b 590 -126 604 -193 586 -167 b 650 0 594 -89 611 -54 z "},"Į":{"ha":367,"x_min":0,"x_max":0,"o":"m 311 960 l 339 960 l 339 972 l 28 972 l 28 960 l 56 960 b 139 876 126 960 139 946 l 139 96 b 56 11 139 26 126 11 l 28 11 l 28 0 b 192 0 28 0 192 0 b 86 -103 153 -26 103 -61 b 158 -211 60 -164 97 -204 b 290 -146 221 -218 271 -174 l 285 -143 b 188 -196 261 -174 224 -199 b 142 -126 156 -193 138 -167 b 201 0 144 -89 163 -54 l 339 0 l 339 11 l 311 11 b 228 96 242 11 228 26 l 228 876 b 311 960 228 946 242 960 z "},"Ş":{"ha":842,"x_min":0,"x_max":0,"o":"m 454 564 b 217 799 276 638 210 706 b 442 967 225 925 326 972 b 710 728 625 958 710 860 l 710 676 l 722 676 l 722 829 l 722 1004 l 710 1004 l 710 985 b 703 900 710 919 714 906 b 442 982 672 886 611 975 b 143 790 336 986 168 924 b 392 483 117 651 190 569 b 719 203 553 414 733 368 b 432 7 708 72 601 -4 b 81 254 242 18 81 122 l 81 306 l 69 306 l 69 153 l 69 -21 l 81 -21 l 81 -3 b 97 93 81 63 79 90 b 447 -8 135 101 247 -7 l 418 -87 l 421 -90 b 483 -78 439 -81 458 -74 b 521 -142 514 -82 525 -104 b 463 -206 517 -176 496 -201 b 375 -171 426 -210 386 -189 l 369 -175 b 458 -215 385 -199 429 -215 b 579 -139 511 -215 574 -194 b 496 -68 583 -93 540 -72 b 426 -81 471 -65 443 -71 l 453 -8 b 789 229 632 -8 767 92 b 454 564 817 407 685 469 z "},"Ų":{"ha":1050,"x_min":0,"x_max":0,"o":"m 711 972 l 711 960 l 739 960 b 858 876 810 960 858 946 l 858 385 b 569 31 858 172 742 35 b 229 397 381 26 229 122 l 229 876 b 311 960 229 946 242 960 l 339 960 l 339 972 l 28 972 l 28 960 l 56 960 b 139 876 126 960 139 946 l 139 397 b 539 -8 139 111 321 -8 b 564 -7 547 -8 556 -8 b 469 -103 528 -32 485 -65 b 542 -211 443 -164 481 -204 b 674 -146 604 -218 654 -174 l 668 -143 b 571 -196 644 -174 607 -199 b 525 -126 539 -193 521 -167 b 581 -7 528 -90 544 -57 b 875 385 803 15 875 214 l 875 876 b 996 960 875 946 925 960 l 1022 960 l 1022 972 z "},"ą":{"ha":756,"x_min":0,"x_max":0,"o":"m 643 -196 b 596 -126 613 -193 590 -167 b 668 0 603 -82 624 -51 b 756 72 706 15 736 40 l 750 78 b 644 8 722 36 676 4 b 601 104 615 11 601 33 l 601 426 b 350 682 601 604 510 682 b 138 615 276 682 196 651 b 117 556 111 599 103 572 b 197 568 133 535 163 535 b 347 671 242 611 275 671 b 511 474 439 671 511 638 b 319 367 496 443 450 389 b 36 157 161 340 32 303 b 278 -8 42 36 168 -14 b 511 218 431 0 499 143 b 511 113 511 206 511 124 b 625 -8 511 31 556 -8 b 651 -4 635 -8 643 -7 b 540 -103 613 -29 557 -64 b 614 -211 515 -164 553 -204 b 744 -146 676 -218 726 -174 l 740 -143 b 643 -196 717 -174 679 -199 z m 511 285 b 314 14 511 161 428 25 b 118 163 214 4 124 53 b 303 353 111 292 218 335 b 511 457 450 382 483 424 b 511 285 511 413 511 347 z "},"ç":{"ha":740,"x_min":0,"x_max":0,"o":"m 796 274 l 789 279 b 422 35 753 211 642 21 b 126 329 274 44 144 136 b 379 667 107 531 226 668 b 554 575 481 663 525 618 b 642 547 583 533 624 524 b 621 615 657 565 651 593 b 403 682 565 653 501 679 b 43 303 206 682 39 510 b 396 -8 47 113 192 -8 b 401 -8 399 -8 400 -8 l 372 -89 l 375 -92 b 438 -79 393 -82 413 -75 b 475 -143 468 -83 479 -106 b 417 -207 471 -178 451 -203 b 329 -172 381 -211 342 -190 l 324 -176 b 413 -215 339 -200 385 -215 b 533 -140 465 -215 528 -196 b 450 -68 538 -94 494 -74 b 382 -81 425 -67 397 -72 l 407 -8 b 796 274 633 -1 754 199 z "},"ę":{"ha":740,"x_min":0,"x_max":0,"o":"m 457 -3 b 796 274 650 29 756 204 l 788 279 b 421 35 751 211 640 21 b 125 329 274 44 143 136 b 128 431 121 365 122 399 l 671 431 b 403 682 671 582 554 682 b 43 303 204 682 38 510 b 396 -8 47 113 190 -8 b 442 -6 411 -8 426 -7 b 343 -103 404 -31 360 -64 b 417 -211 318 -164 356 -204 b 547 -146 479 -218 529 -174 l 543 -143 b 446 -196 519 -174 482 -199 b 399 -126 413 -193 396 -167 b 457 -3 403 -89 421 -56 z m 378 667 b 585 442 529 665 589 556 l 129 442 b 378 667 156 579 256 668 z "},"į":{"ha":354,"x_min":0,"x_max":0,"o":"m 176 813 b 240 876 211 813 240 840 b 176 940 240 911 211 940 b 113 876 140 940 113 911 b 176 813 113 840 140 813 z m 201 0 l 340 0 l 340 11 l 313 11 b 229 96 242 11 229 26 l 229 672 l 28 672 l 28 660 l 56 660 b 139 575 126 660 139 646 l 139 96 b 56 11 139 26 126 11 l 28 11 l 28 0 l 193 0 b 86 -103 153 -26 104 -61 b 160 -211 60 -164 99 -204 b 290 -146 222 -218 272 -174 l 286 -143 b 188 -196 261 -174 225 -199 b 142 -126 156 -193 138 -167 b 201 0 146 -89 164 -54 z "},"ş":{"ha":614,"x_min":0,"x_max":0,"o":"m 319 396 b 140 542 226 436 140 464 b 308 667 139 628 235 669 b 531 460 474 661 531 588 b 531 407 531 438 531 407 l 539 407 l 539 686 l 531 686 b 531 660 531 686 531 676 b 511 621 531 640 528 621 b 310 682 485 622 450 678 b 83 540 265 683 104 663 b 304 306 64 422 154 364 b 522 132 438 254 528 218 b 306 7 517 43 413 1 b 51 214 206 11 51 75 b 51 267 51 229 51 267 l 42 267 l 42 -12 l 51 -12 b 51 8 51 -12 51 -4 b 75 69 51 38 56 65 b 317 -8 110 75 172 -1 l 288 -89 l 292 -92 b 353 -79 308 -82 328 -75 b 390 -143 383 -83 394 -106 b 332 -207 386 -178 367 -203 b 244 -172 296 -211 257 -190 l 239 -176 b 328 -215 254 -200 300 -215 b 449 -140 381 -215 443 -196 b 367 -68 453 -94 410 -74 b 297 -81 340 -67 313 -72 l 322 -8 b 585 168 453 -12 571 46 b 319 396 600 306 426 350 z "},"ų":{"ha":853,"x_min":0,"x_max":0,"o":"m 726 0 l 839 0 l 839 11 l 811 11 b 728 96 740 11 728 26 l 728 672 l 526 672 l 526 660 l 554 660 b 638 575 625 660 638 646 l 638 240 b 432 8 638 135 569 8 b 215 235 306 8 215 88 b 215 672 215 353 215 672 l 14 672 l 14 660 l 42 660 b 125 575 113 660 125 646 b 125 251 125 575 125 351 b 414 -8 125 74 249 -8 b 638 154 535 -8 610 68 l 638 0 l 718 0 b 611 -103 678 -26 629 -61 b 685 -211 585 -164 624 -204 b 815 -146 746 -218 797 -174 l 811 -143 b 713 -196 786 -174 750 -199 b 667 -126 681 -193 663 -167 b 726 0 671 -89 689 -54 z "},"´":{"ha":274,"x_min":0,"x_max":0,"o":"m 239 958 b 179 949 226 975 208 975 b 28 803 149 922 28 803 l 32 797 b 213 903 32 797 179 882 b 239 958 246 924 251 943 z "},"¯":{"ha":529,"x_min":0,"x_max":0,"o":"m 28 919 l 28 903 l 501 903 l 501 919 z "},"¨":{"ha":411,"x_min":0,"x_max":0,"o":"m 99 972 b 28 904 60 972 28 942 b 99 836 28 867 60 836 b 168 904 138 836 168 867 b 99 972 168 942 138 972 z m 313 972 b 243 904 274 972 243 942 b 313 836 243 867 274 836 b 383 904 351 836 383 867 b 313 972 383 942 351 972 z "},"˘":{"ha":367,"x_min":0,"x_max":0,"o":"m 329 983 b 183 893 311 926 267 893 b 38 983 100 893 54 926 l 28 983 b 183 833 31 913 89 833 b 339 983 278 833 336 913 z "},"˙":{"ha":196,"x_min":0,"x_max":0,"o":"m 97 972 b 28 904 58 972 28 942 b 97 836 28 867 58 836 b 168 904 136 836 168 867 b 97 972 168 942 136 972 z "},"˜":{"ha":490,"x_min":0,"x_max":0,"o":"m 451 982 b 279 946 435 922 388 908 b 86 940 171 985 121 965 b 28 853 50 915 28 853 l 40 849 b 126 915 64 910 86 919 b 328 858 181 910 271 858 b 463 979 385 858 444 919 z "},"ˆ":{"ha":463,"x_min":0,"x_max":0,"o":"m 232 990 l 28 821 l 33 813 l 232 921 l 431 813 l 435 821 z "},"˚":{"ha":318,"x_min":0,"x_max":0,"o":"m 160 1044 b 28 922 92 1044 28 996 b 160 801 28 850 92 801 b 290 922 226 801 290 850 b 160 1044 290 996 226 1044 z m 160 810 b 78 922 111 810 78 853 b 160 1036 78 992 111 1036 b 240 922 207 1036 240 992 b 160 810 240 853 207 810 z "},"ˇ":{"ha":463,"x_min":0,"x_max":0,"o":"m 429 986 l 231 878 l 32 986 l 28 978 l 231 808 l 435 978 z "},"˝":{"ha":397,"x_min":0,"x_max":0,"o":"m 193 982 b 136 957 176 994 158 990 b 28 778 115 924 28 778 l 32 774 b 182 922 32 774 154 893 b 193 982 208 950 208 969 z m 357 982 b 301 957 342 994 324 990 b 193 778 281 924 193 778 l 197 774 b 346 922 197 774 319 893 b 357 982 374 950 374 969 z "},"Ð":{"ha":1029,"x_min":0,"x_max":0,"o":"m 449 972 l 28 972 l 28 960 l 56 960 b 139 876 126 960 139 946 l 139 501 l 28 501 l 28 486 l 139 486 l 139 96 b 56 11 139 26 126 11 l 28 11 l 28 0 l 229 0 l 449 0 b 988 486 794 0 988 218 b 449 972 988 754 794 972 z m 424 17 l 229 17 l 229 486 l 526 486 l 526 501 l 229 501 l 229 956 l 424 956 b 890 486 754 956 890 742 b 424 17 890 231 754 17 z "},"⁄":{"ha":388,"x_min":0,"x_max":0,"o":"m 344 972 l 28 0 l 44 0 l 360 972 z "},"Á":{"ha":1024,"x_min":0,"x_max":0,"o":"m 994 11 b 872 96 924 11 903 28 l 501 972 l 485 972 l 146 96 b 38 11 122 38 100 11 l 14 11 l 14 0 l 249 0 l 249 11 l 221 11 b 161 96 150 11 135 26 l 250 324 l 679 324 l 775 96 b 738 11 804 29 808 11 l 710 11 l 710 0 l 1010 0 l 1010 11 z m 257 340 l 454 851 l 672 340 z m 597 1236 b 538 1226 585 1253 567 1253 b 386 1081 507 1200 386 1081 l 390 1075 b 571 1181 390 1075 538 1160 b 597 1236 604 1201 610 1221 z "},"Ă":{"ha":1024,"x_min":0,"x_max":0,"o":"m 994 11 b 872 96 924 11 903 28 l 501 972 l 485 972 l 146 96 b 38 11 122 38 100 11 l 14 11 l 14 0 l 249 0 l 249 11 l 221 11 b 161 96 150 11 135 26 l 250 324 l 679 324 l 775 96 b 738 11 804 29 808 11 l 710 11 l 710 0 l 1010 0 l 1010 11 z m 257 340 l 454 851 l 672 340 z m 643 1261 b 497 1171 625 1204 581 1171 b 351 1261 414 1171 368 1204 l 342 1261 b 497 1111 344 1190 403 1111 b 653 1261 592 1111 650 1190 z "},"Â":{"ha":1024,"x_min":0,"x_max":0,"o":"m 994 11 b 872 96 924 11 903 28 l 501 972 l 485 972 l 146 96 b 38 11 122 38 100 11 l 14 11 l 14 0 l 249 0 l 249 11 l 221 11 b 161 96 150 11 135 26 l 250 324 l 679 324 l 775 96 b 738 11 804 29 808 11 l 710 11 l 710 0 l 1010 0 l 1010 11 z m 257 340 l 454 851 l 672 340 z m 499 1268 l 294 1099 l 300 1090 l 499 1199 l 697 1090 l 701 1099 z "},"À":{"ha":1024,"x_min":0,"x_max":0,"o":"m 994 11 b 872 96 924 11 903 28 l 501 972 l 485 972 l 146 96 b 38 11 122 38 100 11 l 14 11 l 14 0 l 249 0 l 249 11 l 221 11 b 161 96 150 11 135 26 l 250 324 l 679 324 l 775 96 b 738 11 804 29 808 11 l 710 11 l 710 0 l 1010 0 l 1010 11 z m 257 340 l 454 851 l 672 340 z m 458 1226 b 399 1236 429 1253 411 1253 b 425 1181 386 1221 392 1201 b 606 1075 458 1160 606 1075 l 610 1081 b 458 1226 610 1081 488 1200 z "},"Ä":{"ha":1024,"x_min":0,"x_max":0,"o":"m 994 11 b 872 96 924 11 903 28 l 501 972 l 485 972 l 146 96 b 38 11 122 38 100 11 l 14 11 l 14 0 l 249 0 l 249 11 l 221 11 b 161 96 150 11 135 26 l 250 324 l 679 324 l 775 96 b 738 11 804 29 808 11 l 710 11 l 710 0 l 1010 0 l 1010 11 z m 257 340 l 454 851 l 672 340 z m 390 1250 b 319 1182 351 1250 319 1219 b 390 1114 319 1144 351 1114 b 460 1182 429 1114 460 1144 b 390 1250 460 1219 429 1250 z m 604 1250 b 535 1182 565 1250 535 1219 b 604 1114 535 1144 565 1114 b 675 1182 643 1114 675 1144 b 604 1250 675 1219 643 1250 z "},"Ā":{"ha":1024,"x_min":0,"x_max":0,"o":"m 994 11 b 872 96 924 11 903 28 l 501 972 l 485 972 l 146 96 b 38 11 122 38 100 11 l 14 11 l 14 0 l 249 0 l 249 11 l 221 11 b 161 96 150 11 135 26 l 250 324 l 679 324 l 775 96 b 738 11 804 29 808 11 l 710 11 l 710 0 l 1010 0 l 1010 11 z m 257 340 l 454 851 l 672 340 z m 261 1197 l 261 1181 l 735 1181 l 735 1197 z "},"Å":{"ha":1024,"x_min":0,"x_max":0,"o":"m 994 11 b 872 96 924 11 903 28 l 501 972 l 485 972 l 146 96 b 38 11 122 38 100 11 l 14 11 l 14 0 l 249 0 l 249 11 l 221 11 b 161 96 150 11 135 26 l 250 324 l 679 324 l 775 96 b 738 11 804 29 808 11 l 710 11 l 710 0 l 1010 0 l 1010 11 z m 257 340 l 454 851 l 672 340 z m 499 1322 b 367 1200 431 1322 367 1274 b 499 1079 367 1128 431 1079 b 629 1200 565 1079 629 1128 b 499 1322 629 1274 565 1322 z m 499 1088 b 417 1200 450 1088 417 1131 b 499 1314 417 1269 450 1314 b 579 1200 546 1314 579 1269 b 499 1088 579 1131 546 1088 z "},"Ã":{"ha":1024,"x_min":0,"x_max":0,"o":"m 994 11 b 872 96 924 11 903 28 l 501 972 l 485 972 l 146 96 b 38 11 122 38 100 11 l 14 11 l 14 0 l 249 0 l 249 11 l 221 11 b 161 96 150 11 135 26 l 250 324 l 679 324 l 775 96 b 738 11 804 29 808 11 l 710 11 l 710 0 l 1010 0 l 1010 11 z m 257 340 l 454 851 l 672 340 z m 704 1260 b 532 1224 688 1200 640 1186 b 339 1218 424 1263 374 1243 b 281 1131 303 1193 281 1131 l 293 1126 b 379 1193 317 1188 339 1197 b 581 1136 433 1188 524 1136 b 715 1257 638 1136 697 1197 z "},"Ǽ":{"ha":1418,"x_min":0,"x_max":0,"o":"m 1336 275 l 1336 126 b 1251 15 1336 56 1322 15 l 814 15 l 814 486 l 1096 486 b 1181 371 1167 486 1181 442 l 1181 344 l 1192 344 l 1192 644 l 1181 644 l 1181 617 b 1096 501 1181 546 1167 501 l 814 501 l 814 956 l 1228 956 b 1313 846 1297 956 1313 917 l 1313 697 l 1324 697 l 1324 972 l 613 972 l 613 960 l 640 960 b 708 944 676 960 697 957 b 699 901 715 935 713 921 l 169 96 b 36 11 133 40 100 11 l 14 11 l 14 0 l 247 0 l 247 11 l 219 11 b 188 96 149 11 142 28 l 338 324 l 724 324 l 724 96 b 640 11 724 26 711 11 l 613 11 l 613 0 l 1349 0 l 1349 275 z m 347 340 l 724 914 l 724 340 z m 989 1236 b 929 1226 976 1253 958 1253 b 778 1081 899 1200 778 1081 l 782 1075 b 963 1181 782 1075 929 1160 b 989 1236 996 1201 1001 1221 z "},"Ć":{"ha":1040,"x_min":0,"x_max":0,"o":"m 989 251 b 588 22 915 118 776 13 b 142 503 367 35 147 193 b 532 968 136 767 299 963 b 900 710 756 972 900 846 l 900 657 l 913 657 l 913 985 l 900 985 l 900 965 b 885 869 900 901 901 872 b 554 982 842 865 763 975 b 43 458 261 989 31 743 b 542 -8 56 179 286 7 b 999 246 764 -21 917 103 z m 619 1236 b 560 1226 607 1253 589 1253 b 408 1081 529 1200 408 1081 l 413 1075 b 593 1181 413 1075 560 1160 b 619 1236 626 1201 632 1221 z "},"Č":{"ha":1040,"x_min":0,"x_max":0,"o":"m 989 251 b 588 22 915 118 776 13 b 142 503 367 35 147 193 b 532 968 136 767 299 963 b 900 710 756 972 900 846 l 900 657 l 913 657 l 913 985 l 900 985 l 900 965 b 885 869 900 901 901 872 b 554 982 842 865 763 975 b 43 458 261 989 31 743 b 542 -8 56 179 286 7 b 999 246 764 -21 917 103 z m 732 1264 l 533 1156 l 335 1264 l 331 1256 l 533 1086 l 738 1256 z "},"Ĉ":{"ha":1040,"x_min":0,"x_max":0,"o":"m 989 251 b 588 22 915 118 776 13 b 142 503 367 35 147 193 b 532 968 136 767 299 963 b 900 710 756 972 900 846 l 900 657 l 913 657 l 913 985 l 900 985 l 900 965 b 885 869 900 901 901 872 b 554 982 842 865 763 975 b 43 458 261 989 31 743 b 542 -8 56 179 286 7 b 999 246 764 -21 917 103 z m 521 1268 l 317 1099 l 322 1090 l 521 1199 l 719 1090 l 724 1099 z "},"Ċ":{"ha":1040,"x_min":0,"x_max":0,"o":"m 989 251 b 588 22 915 118 776 13 b 142 503 367 35 147 193 b 532 968 136 767 299 963 b 900 710 756 972 900 846 l 900 657 l 913 657 l 913 985 l 900 985 l 900 965 b 885 869 900 901 901 872 b 554 982 842 865 763 975 b 43 458 261 989 31 743 b 542 -8 56 179 286 7 b 999 246 764 -21 917 103 z m 547 1250 b 478 1182 508 1250 478 1219 b 547 1114 478 1144 508 1114 b 618 1182 586 1114 618 1144 b 547 1250 618 1219 586 1250 z "},"Ď":{"ha":1028,"x_min":0,"x_max":0,"o":"m 447 972 l 28 972 l 28 960 l 54 960 b 138 875 125 960 138 946 l 138 96 b 54 11 138 26 125 11 l 28 11 l 28 0 l 228 0 l 447 0 b 986 486 793 0 986 218 b 447 972 986 754 793 972 z m 422 17 l 228 17 l 228 956 l 422 956 b 888 486 753 956 888 742 b 422 17 888 231 753 17 z m 690 1264 l 492 1156 l 293 1264 l 289 1256 l 492 1086 l 696 1256 z "},"É":{"ha":846,"x_min":0,"x_max":0,"o":"m 750 275 l 750 126 b 667 17 750 56 736 17 l 229 17 l 229 486 l 510 486 b 594 371 581 486 594 442 l 594 344 l 607 344 l 607 644 l 594 644 l 594 617 b 510 501 594 546 581 501 l 229 501 l 229 956 l 642 956 b 726 846 713 956 726 917 l 726 697 l 738 697 l 738 972 l 28 972 l 28 960 l 56 960 b 139 875 126 960 139 946 l 139 96 b 56 11 139 26 126 11 l 28 11 l 28 0 l 763 0 l 763 275 z m 522 1236 b 463 1226 510 1253 492 1253 b 311 1081 432 1200 311 1081 l 315 1075 b 496 1181 315 1075 463 1160 b 522 1236 529 1201 535 1221 z "},"Ĕ":{"ha":846,"x_min":0,"x_max":0,"o":"m 750 275 l 750 126 b 667 17 750 56 736 17 l 229 17 l 229 486 l 510 486 b 594 371 581 486 594 442 l 594 344 l 607 344 l 607 644 l 594 644 l 594 617 b 510 501 594 546 581 501 l 229 501 l 229 956 l 642 956 b 726 846 713 956 726 917 l 726 697 l 738 697 l 738 972 l 28 972 l 28 960 l 56 960 b 139 875 126 960 139 946 l 139 96 b 56 11 139 26 126 11 l 28 11 l 28 0 l 763 0 l 763 275 z m 568 1261 b 422 1171 550 1204 506 1171 b 276 1261 339 1171 293 1204 l 267 1261 b 422 1111 269 1190 328 1111 b 578 1261 517 1111 575 1190 z "},"Ě":{"ha":846,"x_min":0,"x_max":0,"o":"m 750 275 l 750 126 b 667 17 750 56 736 17 l 229 17 l 229 486 l 510 486 b 594 371 581 486 594 442 l 594 344 l 607 344 l 607 644 l 594 644 l 594 617 b 510 501 594 546 581 501 l 229 501 l 229 956 l 642 956 b 726 846 713 956 726 917 l 726 697 l 738 697 l 738 972 l 28 972 l 28 960 l 56 960 b 139 875 126 960 139 946 l 139 96 b 56 11 139 26 126 11 l 28 11 l 28 0 l 763 0 l 763 275 z m 621 1264 l 422 1156 l 224 1264 l 219 1256 l 422 1086 l 626 1256 z "},"Ê":{"ha":846,"x_min":0,"x_max":0,"o":"m 750 275 l 750 126 b 667 17 750 56 736 17 l 229 17 l 229 486 l 510 486 b 594 371 581 486 594 442 l 594 344 l 607 344 l 607 644 l 594 644 l 594 617 b 510 501 594 546 581 501 l 229 501 l 229 956 l 642 956 b 726 846 713 956 726 917 l 726 697 l 738 697 l 738 972 l 28 972 l 28 960 l 56 960 b 139 875 126 960 139 946 l 139 96 b 56 11 139 26 126 11 l 28 11 l 28 0 l 763 0 l 763 275 z m 424 1268 l 219 1099 l 225 1090 l 424 1199 l 622 1090 l 626 1099 z "},"Ë":{"ha":846,"x_min":0,"x_max":0,"o":"m 750 275 l 750 126 b 667 17 750 56 736 17 l 229 17 l 229 486 l 510 486 b 594 371 581 486 594 442 l 594 344 l 607 344 l 607 644 l 594 644 l 594 617 b 510 501 594 546 581 501 l 229 501 l 229 956 l 642 956 b 726 846 713 956 726 917 l 726 697 l 738 697 l 738 972 l 28 972 l 28 960 l 56 960 b 139 875 126 960 139 946 l 139 96 b 56 11 139 26 126 11 l 28 11 l 28 0 l 763 0 l 763 275 z m 315 1250 b 244 1182 276 1250 244 1219 b 315 1114 244 1144 276 1114 b 385 1182 354 1114 385 1144 b 315 1250 385 1219 354 1250 z m 529 1250 b 460 1182 490 1250 460 1219 b 529 1114 460 1144 490 1114 b 600 1182 568 1114 600 1144 b 529 1250 600 1219 568 1250 z "},"Ė":{"ha":846,"x_min":0,"x_max":0,"o":"m 750 275 l 750 126 b 667 17 750 56 736 17 l 229 17 l 229 486 l 510 486 b 594 371 581 486 594 442 l 594 344 l 607 344 l 607 644 l 594 644 l 594 617 b 510 501 594 546 581 501 l 229 501 l 229 956 l 642 956 b 726 846 713 956 726 917 l 726 697 l 738 697 l 738 972 l 28 972 l 28 960 l 56 960 b 139 875 126 960 139 946 l 139 96 b 56 11 139 26 126 11 l 28 11 l 28 0 l 763 0 l 763 275 z m 422 1250 b 353 1182 383 1250 353 1219 b 422 1114 353 1144 383 1114 b 493 1182 461 1114 493 1144 b 422 1250 493 1219 461 1250 z "},"È":{"ha":846,"x_min":0,"x_max":0,"o":"m 750 275 l 750 126 b 667 17 750 56 736 17 l 229 17 l 229 486 l 510 486 b 594 371 581 486 594 442 l 594 344 l 607 344 l 607 644 l 594 644 l 594 617 b 510 501 594 546 581 501 l 229 501 l 229 956 l 642 956 b 726 846 713 956 726 917 l 726 697 l 738 697 l 738 972 l 28 972 l 28 960 l 56 960 b 139 875 126 960 139 946 l 139 96 b 56 11 139 26 126 11 l 28 11 l 28 0 l 763 0 l 763 275 z m 383 1226 b 324 1236 354 1253 336 1253 b 350 1181 311 1221 317 1201 b 531 1075 383 1160 531 1075 l 535 1081 b 383 1226 535 1081 413 1200 z "},"Ē":{"ha":846,"x_min":0,"x_max":0,"o":"m 750 275 l 750 126 b 667 17 750 56 736 17 l 229 17 l 229 486 l 510 486 b 594 371 581 486 594 442 l 594 344 l 607 344 l 607 644 l 594 644 l 594 617 b 510 501 594 546 581 501 l 229 501 l 229 956 l 642 956 b 726 846 713 956 726 917 l 726 697 l 738 697 l 738 972 l 28 972 l 28 960 l 56 960 b 139 875 126 960 139 946 l 139 96 b 56 11 139 26 126 11 l 28 11 l 28 0 l 763 0 l 763 275 z m 186 1197 l 186 1181 l 660 1181 l 660 1197 z "},"Ğ":{"ha":1076,"x_min":0,"x_max":0,"o":"m 618 461 l 618 450 l 792 450 b 875 365 863 450 875 436 b 875 140 875 299 875 208 b 589 7 822 72 744 7 b 144 486 347 7 153 207 b 544 967 135 772 311 961 b 907 708 765 972 907 844 l 907 657 l 919 657 l 919 983 l 907 983 l 907 965 b 892 869 907 900 908 872 b 551 982 849 861 778 982 b 43 456 267 982 31 747 b 589 -8 56 178 317 -8 b 939 121 825 -8 900 131 b 951 100 949 118 951 113 b 951 0 951 53 951 0 l 963 0 b 963 365 963 0 963 353 b 1046 450 963 436 975 450 l 1049 450 l 1049 461 z m 704 1261 b 558 1171 686 1204 642 1171 b 413 1261 475 1171 429 1204 l 403 1261 b 558 1111 406 1190 464 1111 b 714 1261 653 1111 711 1190 z "},"Ĝ":{"ha":1076,"x_min":0,"x_max":0,"o":"m 618 461 l 618 450 l 792 450 b 875 365 863 450 875 436 b 875 140 875 299 875 208 b 589 7 822 72 744 7 b 144 486 347 7 153 207 b 544 967 135 772 311 961 b 907 708 765 972 907 844 l 907 657 l 919 657 l 919 983 l 907 983 l 907 965 b 892 869 907 900 908 872 b 551 982 849 861 778 982 b 43 456 267 982 31 747 b 589 -8 56 178 317 -8 b 939 121 825 -8 900 131 b 951 100 949 118 951 113 b 951 0 951 53 951 0 l 963 0 b 963 365 963 0 963 353 b 1046 450 963 436 975 450 l 1049 450 l 1049 461 z m 560 1268 l 356 1099 l 361 1090 l 560 1199 l 758 1090 l 763 1099 z "},"Ģ":{"ha":1076,"x_min":0,"x_max":0,"o":"m 618 461 l 618 450 l 792 450 b 875 365 863 450 875 436 b 875 140 875 299 875 208 b 589 7 822 72 744 7 b 144 486 347 7 153 207 b 544 967 135 772 311 961 b 907 708 765 972 907 844 l 907 657 l 919 657 l 919 983 l 907 983 l 907 965 b 892 869 907 900 908 872 b 551 982 849 861 778 982 b 43 456 267 982 31 747 b 589 -8 56 178 317 -8 b 939 121 825 -8 900 131 b 951 100 949 118 951 113 b 951 0 951 53 951 0 l 963 0 b 963 365 963 0 963 353 b 1046 450 963 436 975 450 l 1049 450 l 1049 461 z m 571 -89 b 508 -149 536 -89 508 -115 b 576 -214 508 -187 538 -206 b 524 -361 621 -224 571 -318 l 532 -369 b 632 -149 593 -306 638 -229 b 571 -89 631 -115 607 -89 z "},"Ġ":{"ha":1076,"x_min":0,"x_max":0,"o":"m 618 461 l 618 450 l 792 450 b 875 365 863 450 875 436 b 875 140 875 299 875 208 b 589 7 822 72 744 7 b 144 486 347 7 153 207 b 544 967 135 772 311 961 b 907 708 765 972 907 844 l 907 657 l 919 657 l 919 983 l 907 983 l 907 965 b 892 869 907 900 908 872 b 551 982 849 861 778 982 b 43 456 267 982 31 747 b 589 -8 56 178 317 -8 b 939 121 825 -8 900 131 b 951 100 949 118 951 113 b 951 0 951 53 951 0 l 963 0 b 963 365 963 0 963 353 b 1046 450 963 436 975 450 l 1049 450 l 1049 461 z m 558 1250 b 489 1182 519 1250 489 1219 b 558 1114 489 1144 519 1114 b 629 1182 597 1114 629 1144 b 558 1250 629 1219 597 1250 z "},"Ĥ":{"ha":1063,"x_min":0,"x_max":0,"o":"m 1007 960 l 1035 960 l 1035 972 l 722 972 l 722 960 l 750 960 b 833 875 821 960 833 946 l 833 501 l 228 501 l 228 875 b 311 960 228 946 240 960 l 339 960 l 339 972 l 28 972 l 28 960 l 54 960 b 138 875 125 960 138 946 l 138 96 b 54 11 138 26 125 11 l 28 11 l 28 0 l 339 0 l 339 11 l 311 11 b 228 96 240 11 228 26 l 228 486 l 833 486 l 833 96 b 750 11 833 26 821 11 l 722 11 l 722 0 l 1035 0 l 1035 11 l 1007 11 b 924 96 936 11 924 26 l 924 875 b 1007 960 924 946 936 960 z m 532 1268 l 328 1099 l 333 1090 l 532 1199 l 731 1090 l 735 1099 z "},"Í":{"ha":367,"x_min":0,"x_max":0,"o":"m 311 960 l 339 960 l 339 972 l 28 972 l 28 960 l 56 960 b 139 875 126 960 139 946 l 139 96 b 56 11 139 26 126 11 l 28 11 l 28 0 l 339 0 l 339 11 l 311 11 b 228 96 240 11 228 26 l 228 875 b 311 960 228 946 240 960 z m 282 1236 b 222 1226 269 1253 251 1253 b 71 1081 192 1200 71 1081 l 75 1075 b 256 1181 75 1075 222 1160 b 282 1236 289 1201 294 1221 z "},"Ĭ":{"ha":367,"x_min":0,"x_max":0,"o":"m 311 960 l 339 960 l 339 972 l 28 972 l 28 960 l 56 960 b 139 875 126 960 139 946 l 139 96 b 56 11 139 26 126 11 l 28 11 l 28 0 l 339 0 l 339 11 l 311 11 b 228 96 240 11 228 26 l 228 875 b 311 960 228 946 240 960 z m 329 1261 b 183 1171 311 1204 267 1171 b 38 1261 100 1171 54 1204 l 28 1261 b 183 1111 31 1190 89 1111 b 339 1261 278 1111 336 1190 z "},"Î":{"ha":367,"x_min":0,"x_max":0,"o":"m 311 960 l 339 960 l 339 972 l 28 972 l 28 960 l 56 960 b 139 875 126 960 139 946 l 139 96 b 56 11 139 26 126 11 l 28 11 l 28 0 l 339 0 l 339 11 l 311 11 b 228 96 240 11 228 26 l 228 875 b 311 960 228 946 240 960 z m 185 1268 l -19 1099 l -14 1090 l 185 1199 l 383 1090 l 388 1099 z "},"Ï":{"ha":367,"x_min":0,"x_max":0,"o":"m 311 960 l 339 960 l 339 972 l 28 972 l 28 960 l 56 960 b 139 875 126 960 139 946 l 139 96 b 56 11 139 26 126 11 l 28 11 l 28 0 l 339 0 l 339 11 l 311 11 b 228 96 240 11 228 26 l 228 875 b 311 960 228 946 240 960 z m 76 1250 b 6 1182 38 1250 6 1219 b 76 1114 6 1144 38 1114 b 146 1182 115 1114 146 1144 b 76 1250 146 1219 115 1250 z m 290 1250 b 221 1182 251 1250 221 1219 b 290 1114 221 1144 251 1114 b 361 1182 329 1114 361 1144 b 290 1250 361 1219 329 1250 z "},"İ":{"ha":367,"x_min":0,"x_max":0,"o":"m 311 960 l 339 960 l 339 972 l 28 972 l 28 960 l 56 960 b 139 875 126 960 139 946 l 139 96 b 56 11 139 26 126 11 l 28 11 l 28 0 l 339 0 l 339 11 l 311 11 b 228 96 240 11 228 26 l 228 875 b 311 960 228 946 240 960 z m 182 1250 b 113 1182 143 1250 113 1219 b 182 1114 113 1144 143 1114 b 253 1182 221 1114 253 1144 b 182 1250 253 1219 221 1250 z "},"Ì":{"ha":367,"x_min":0,"x_max":0,"o":"m 311 960 l 339 960 l 339 972 l 28 972 l 28 960 l 56 960 b 139 875 126 960 139 946 l 139 96 b 56 11 139 26 126 11 l 28 11 l 28 0 l 339 0 l 339 11 l 311 11 b 228 96 240 11 228 26 l 228 875 b 311 960 228 946 240 960 z m 143 1226 b 83 1236 114 1253 96 1253 b 110 1181 71 1221 76 1201 b 290 1075 143 1160 290 1075 l 294 1081 b 143 1226 294 1081 172 1200 z "},"Ī":{"ha":367,"x_min":0,"x_max":0,"o":"m 311 960 l 339 960 l 339 972 l 28 972 l 28 960 l 56 960 b 139 875 126 960 139 946 l 139 96 b 56 11 139 26 126 11 l 28 11 l 28 0 l 339 0 l 339 11 l 311 11 b 228 96 240 11 228 26 l 228 875 b 311 960 228 946 240 960 z m -53 1197 l -53 1181 l 421 1181 l 421 1197 z "},"Ĩ":{"ha":367,"x_min":0,"x_max":0,"o":"m 311 960 l 339 960 l 339 972 l 28 972 l 28 960 l 56 960 b 139 875 126 960 139 946 l 139 96 b 56 11 139 26 126 11 l 28 11 l 28 0 l 339 0 l 339 11 l 311 11 b 228 96 240 11 228 26 l 228 875 b 311 960 228 946 240 960 z m 390 1260 b 218 1224 374 1200 326 1186 b 25 1218 110 1263 60 1243 b -33 1131 -11 1193 -33 1131 l -21 1126 b 65 1193 3 1188 25 1197 b 267 1136 119 1188 210 1136 b 401 1257 324 1136 383 1197 z "},"Ĳ":{"ha":835,"x_min":0,"x_max":0,"o":"m 311 960 l 339 960 l 339 972 l 28 972 l 28 960 l 56 960 b 139 875 126 960 139 946 l 139 96 b 56 11 139 26 126 11 l 28 11 l 28 0 l 339 0 l 339 11 l 311 11 b 228 96 240 11 228 26 l 228 875 b 311 960 228 946 240 960 z m 422 972 l 422 960 l 522 960 b 606 875 593 960 606 946 l 606 149 b 471 -199 606 -128 543 -186 b 290 -149 408 -210 322 -160 b 229 -174 257 -137 232 -143 b 293 -221 228 -201 258 -215 b 475 -211 339 -229 435 -222 b 696 158 539 -194 696 -132 b 696 875 696 158 696 875 b 779 960 696 946 708 960 l 807 960 l 807 972 z "},"Ĵ":{"ha":454,"x_min":0,"x_max":0,"o":"m 42 972 l 42 960 l 142 960 b 225 875 213 960 225 946 l 225 149 b 90 -199 225 -128 163 -186 b -90 -149 28 -210 -58 -160 b -151 -174 -124 -137 -149 -143 b -87 -221 -153 -201 -122 -215 b 94 -211 -42 -229 54 -222 b 315 158 158 -194 315 -132 b 315 875 315 158 315 875 b 399 960 315 946 328 960 l 426 960 l 426 972 z m 207 1268 l 3 1099 l 8 1090 l 207 1199 l 406 1090 l 410 1099 z "},"Ķ":{"ha":1004,"x_min":0,"x_max":0,"o":"m 951 11 b 828 96 889 11 872 39 l 465 615 l 694 875 b 849 960 746 928 778 960 l 876 960 l 876 972 l 614 972 l 614 960 l 644 960 b 688 886 714 960 729 935 l 228 364 l 228 875 b 311 960 228 946 240 960 l 339 960 l 339 972 l 28 972 l 28 960 l 56 960 b 138 875 125 960 138 946 l 138 96 b 56 11 138 26 125 11 l 28 11 l 28 0 l 339 0 l 339 11 l 311 11 b 228 96 240 11 228 26 l 228 346 l 407 549 l 729 96 b 694 11 772 31 765 11 l 679 11 l 679 0 l 990 0 l 990 11 z m 493 -89 b 431 -149 458 -89 431 -115 b 499 -214 431 -187 460 -206 b 446 -361 543 -224 493 -318 l 454 -369 b 554 -149 515 -306 560 -229 b 493 -89 553 -115 529 -89 z "},"Ĺ":{"ha":818,"x_min":0,"x_max":0,"o":"m 751 300 l 751 126 b 667 17 751 56 736 17 l 229 17 l 229 875 b 313 960 229 946 242 960 l 340 960 l 340 972 l 28 972 l 28 960 l 56 960 b 139 875 126 960 139 946 l 139 96 b 56 11 139 26 126 11 l 28 11 l 28 0 l 763 0 l 763 300 z m 272 1236 b 213 1226 260 1253 242 1253 b 61 1081 182 1200 61 1081 l 65 1075 b 246 1181 65 1075 213 1160 b 272 1236 279 1201 285 1221 z "},"Ľ":{"ha":818,"x_min":0,"x_max":0,"o":"m 751 300 l 751 126 b 667 17 751 56 736 17 l 229 17 l 229 875 b 313 960 229 946 242 960 l 340 960 l 340 972 l 28 972 l 28 960 l 56 960 b 139 875 126 960 139 946 l 139 96 b 56 11 139 26 126 11 l 28 11 l 28 0 l 763 0 l 763 300 z m 563 982 b 500 922 528 982 500 956 b 568 857 500 883 529 865 b 515 710 613 847 563 753 l 524 701 b 624 922 585 765 629 842 b 563 982 622 956 599 982 z "},"Ļ":{"ha":818,"x_min":0,"x_max":0,"o":"m 751 300 l 751 126 b 667 17 751 56 736 17 l 229 17 l 229 875 b 313 960 229 946 242 960 l 340 960 l 340 972 l 28 972 l 28 960 l 56 960 b 139 875 126 960 139 946 l 139 96 b 56 11 139 26 126 11 l 28 11 l 28 0 l 763 0 l 763 300 z m 393 -89 b 331 -149 358 -89 331 -115 b 399 -214 331 -187 360 -206 b 346 -361 443 -224 393 -318 l 354 -369 b 454 -149 415 -306 460 -229 b 393 -89 453 -115 429 -89 z "},"Ŀ":{"ha":818,"x_min":0,"x_max":0,"o":"m 533 599 b 463 531 494 599 463 568 b 533 463 463 493 494 463 b 604 531 572 463 604 493 b 533 599 604 568 572 599 z m 751 300 l 751 126 b 667 17 751 56 736 17 l 229 17 l 229 875 b 313 960 229 946 242 960 l 340 960 l 340 972 l 28 972 l 28 960 l 56 960 b 139 875 126 960 139 946 l 139 96 b 56 11 139 26 126 11 l 28 11 l 28 0 l 763 0 l 763 300 z "},"Ń":{"ha":1114,"x_min":0,"x_max":0,"o":"m 775 972 l 775 960 l 803 960 b 922 876 874 960 922 946 l 922 158 l 267 972 l 28 972 l 28 960 l 56 960 b 175 876 126 960 175 946 l 175 96 b 56 11 175 26 126 11 l 28 11 l 28 0 l 339 0 l 339 11 l 311 11 b 192 96 242 11 192 26 l 192 910 l 922 0 l 939 0 l 939 876 b 1058 960 939 946 989 960 l 1086 960 l 1086 972 z m 669 1236 b 610 1226 657 1253 639 1253 b 458 1081 579 1200 458 1081 l 463 1075 b 643 1181 463 1075 610 1160 b 669 1236 676 1201 682 1221 z "},"Ň":{"ha":1114,"x_min":0,"x_max":0,"o":"m 775 972 l 775 960 l 803 960 b 922 876 874 960 922 946 l 922 158 l 267 972 l 28 972 l 28 960 l 56 960 b 175 876 126 960 175 946 l 175 96 b 56 11 175 26 126 11 l 28 11 l 28 0 l 339 0 l 339 11 l 311 11 b 192 96 242 11 192 26 l 192 910 l 922 0 l 939 0 l 939 876 b 1058 960 939 946 989 960 l 1086 960 l 1086 972 z m 768 1264 l 569 1156 l 371 1264 l 367 1256 l 569 1086 l 774 1256 z "},"Ņ":{"ha":1114,"x_min":0,"x_max":0,"o":"m 775 972 l 775 960 l 803 960 b 922 876 874 960 922 946 l 922 158 l 267 972 l 28 972 l 28 960 l 56 960 b 175 876 126 960 175 946 l 175 96 b 56 11 175 26 126 11 l 28 11 l 28 0 l 339 0 l 339 11 l 311 11 b 192 96 242 11 192 26 l 192 910 l 922 0 l 939 0 l 939 876 b 1058 960 939 946 989 960 l 1086 960 l 1086 972 z m 568 -89 b 506 -149 533 -89 506 -115 b 574 -214 506 -187 535 -206 b 521 -361 618 -224 568 -318 l 529 -369 b 629 -149 590 -306 635 -229 b 568 -89 628 -115 604 -89 z "},"Ñ":{"ha":1114,"x_min":0,"x_max":0,"o":"m 775 972 l 775 960 l 803 960 b 922 876 874 960 922 946 l 922 158 l 267 972 l 28 972 l 28 960 l 56 960 b 175 876 126 960 175 946 l 175 96 b 56 11 175 26 126 11 l 28 11 l 28 0 l 339 0 l 339 11 l 311 11 b 192 96 242 11 192 26 l 192 910 l 922 0 l 939 0 l 939 876 b 1058 960 939 946 989 960 l 1086 960 l 1086 972 z m 776 1260 b 604 1224 760 1200 713 1186 b 411 1218 496 1263 446 1243 b 353 1131 375 1193 353 1131 l 365 1126 b 451 1193 389 1188 411 1197 b 653 1136 506 1188 596 1136 b 788 1257 710 1136 769 1197 z "},"Ó":{"ha":1117,"x_min":0,"x_max":0,"o":"m 558 982 b 42 486 246 982 42 769 b 558 -8 42 203 246 -8 b 1075 486 869 -8 1075 203 b 558 982 1075 769 869 982 z m 558 7 b 136 486 300 7 136 203 b 558 965 136 769 300 965 b 981 486 817 965 981 769 b 558 7 981 203 817 7 z m 657 1236 b 597 1226 644 1253 626 1253 b 446 1081 567 1200 446 1081 l 450 1075 b 631 1181 450 1075 597 1160 b 657 1236 664 1201 669 1221 z "},"Ŏ":{"ha":1117,"x_min":0,"x_max":0,"o":"m 558 982 b 42 486 246 982 42 769 b 558 -8 42 203 246 -8 b 1075 486 869 -8 1075 203 b 558 982 1075 769 869 982 z m 558 7 b 136 486 300 7 136 203 b 558 965 136 769 300 965 b 981 486 817 965 981 769 b 558 7 981 203 817 7 z m 704 1261 b 558 1171 686 1204 642 1171 b 413 1261 475 1171 429 1204 l 403 1261 b 558 1111 406 1190 464 1111 b 714 1261 653 1111 711 1190 z "},"Ô":{"ha":1117,"x_min":0,"x_max":0,"o":"m 558 982 b 42 486 246 982 42 769 b 558 -8 42 203 246 -8 b 1075 486 869 -8 1075 203 b 558 982 1075 769 869 982 z m 558 7 b 136 486 300 7 136 203 b 558 965 136 769 300 965 b 981 486 817 965 981 769 b 558 7 981 203 817 7 z m 558 1268 l 354 1099 l 360 1090 l 558 1199 l 757 1090 l 761 1099 z "},"Ö":{"ha":1117,"x_min":0,"x_max":0,"o":"m 558 982 b 42 486 246 982 42 769 b 558 -8 42 203 246 -8 b 1075 486 869 -8 1075 203 b 558 982 1075 769 869 982 z m 558 7 b 136 486 300 7 136 203 b 558 965 136 769 300 965 b 981 486 817 965 981 769 b 558 7 981 203 817 7 z m 451 1250 b 381 1182 413 1250 381 1219 b 451 1114 381 1144 413 1114 b 521 1182 490 1114 521 1144 b 451 1250 521 1219 490 1250 z m 665 1250 b 596 1182 626 1250 596 1219 b 665 1114 596 1144 626 1114 b 736 1182 704 1114 736 1144 b 665 1250 736 1219 704 1250 z "},"Ò":{"ha":1117,"x_min":0,"x_max":0,"o":"m 558 982 b 42 486 246 982 42 769 b 558 -8 42 203 246 -8 b 1075 486 869 -8 1075 203 b 558 982 1075 769 869 982 z m 558 7 b 136 486 300 7 136 203 b 558 965 136 769 300 965 b 981 486 817 965 981 769 b 558 7 981 203 817 7 z m 518 1226 b 458 1236 489 1253 471 1253 b 485 1181 446 1221 451 1201 b 665 1075 518 1160 665 1075 l 669 1081 b 518 1226 669 1081 547 1200 z "},"Ő":{"ha":1117,"x_min":0,"x_max":0,"o":"m 558 982 b 42 486 246 982 42 769 b 558 -8 42 203 246 -8 b 1075 486 869 -8 1075 203 b 558 982 1075 769 869 982 z m 558 7 b 136 486 300 7 136 203 b 558 965 136 769 300 965 b 981 486 817 965 981 769 b 558 7 981 203 817 7 z m 592 1260 b 535 1235 575 1272 557 1268 b 426 1056 514 1201 426 1056 l 431 1051 b 581 1200 431 1051 553 1171 b 592 1260 607 1228 607 1247 z m 756 1260 b 700 1235 740 1272 722 1268 b 592 1056 679 1201 592 1056 l 596 1051 b 744 1200 596 1051 718 1171 b 756 1260 772 1228 772 1247 z "},"Ō":{"ha":1117,"x_min":0,"x_max":0,"o":"m 558 982 b 42 486 246 982 42 769 b 558 -8 42 203 246 -8 b 1075 486 869 -8 1075 203 b 558 982 1075 769 869 982 z m 558 7 b 136 486 300 7 136 203 b 558 965 136 769 300 965 b 981 486 817 965 981 769 b 558 7 981 203 817 7 z m 321 1197 l 321 1181 l 794 1181 l 794 1197 z "},"Ǿ":{"ha":1117,"x_min":0,"x_max":0,"o":"m 928 844 l 1024 940 l 1013 951 l 915 856 b 558 982 826 933 704 982 b 42 486 246 982 42 769 b 189 128 42 342 94 217 l 93 32 l 104 21 l 200 117 b 558 -8 289 39 413 -8 b 1075 486 869 -8 1075 203 b 928 844 1075 631 1022 756 z m 136 486 b 558 965 136 769 300 965 b 878 817 694 965 804 910 l 229 168 b 136 486 169 250 136 358 z m 558 7 b 239 156 422 7 313 63 l 888 804 b 981 486 947 722 981 613 b 558 7 981 203 817 7 z m 657 1236 b 597 1226 644 1253 626 1253 b 446 1081 567 1200 446 1081 l 450 1075 b 631 1181 450 1075 597 1160 b 657 1236 664 1201 669 1221 z "},"Õ":{"ha":1117,"x_min":0,"x_max":0,"o":"m 558 982 b 42 486 246 982 42 769 b 558 -8 42 203 246 -8 b 1075 486 869 -8 1075 203 b 558 982 1075 769 869 982 z m 558 7 b 136 486 300 7 136 203 b 558 965 136 769 300 965 b 981 486 817 965 981 769 b 558 7 981 203 817 7 z m 764 1260 b 592 1224 747 1200 700 1186 b 399 1218 483 1263 433 1243 b 340 1131 363 1193 340 1131 l 353 1126 b 439 1193 376 1188 399 1197 b 640 1136 493 1188 583 1136 b 775 1257 697 1136 757 1197 z "},"Ŕ":{"ha":1001,"x_min":0,"x_max":0,"o":"m 1006 111 b 869 10 979 53 925 0 b 732 296 779 25 776 171 b 510 467 690 411 600 453 b 779 717 686 489 779 572 b 411 972 779 886 653 972 l 28 972 l 28 960 l 56 960 b 139 876 126 960 139 946 l 139 96 b 56 11 139 26 126 11 l 28 11 l 28 0 l 389 0 l 389 11 l 313 11 b 229 96 242 11 229 26 l 229 461 l 317 461 b 647 243 500 461 590 461 b 851 -8 690 78 743 0 b 1015 107 935 -15 989 51 z m 229 956 l 388 956 b 683 717 624 956 683 844 b 388 478 683 589 624 478 l 229 478 z m 510 1236 b 450 1226 497 1253 479 1253 b 299 1081 419 1200 299 1081 l 303 1075 b 483 1181 303 1075 450 1160 b 510 1236 517 1201 522 1221 z "},"Ř":{"ha":1001,"x_min":0,"x_max":0,"o":"m 1006 111 b 869 10 979 53 925 0 b 732 296 779 25 776 171 b 510 467 690 411 600 453 b 779 717 686 489 779 572 b 411 972 779 886 653 972 l 28 972 l 28 960 l 56 960 b 139 876 126 960 139 946 l 139 96 b 56 11 139 26 126 11 l 28 11 l 28 0 l 389 0 l 389 11 l 313 11 b 229 96 242 11 229 26 l 229 461 l 317 461 b 647 243 500 461 590 461 b 851 -8 690 78 743 0 b 1015 107 935 -15 989 51 z m 229 956 l 388 956 b 683 717 624 956 683 844 b 388 478 683 589 624 478 l 229 478 z m 622 1264 l 424 1156 l 225 1264 l 221 1256 l 424 1086 l 628 1256 z "},"Ŗ":{"ha":1001,"x_min":0,"x_max":0,"o":"m 1006 111 b 869 10 979 53 925 0 b 732 296 779 25 776 171 b 510 467 690 411 600 453 b 779 717 686 489 779 572 b 411 972 779 886 653 972 l 28 972 l 28 960 l 56 960 b 139 876 126 960 139 946 l 139 96 b 56 11 139 26 126 11 l 28 11 l 28 0 l 389 0 l 389 11 l 313 11 b 229 96 242 11 229 26 l 229 461 l 317 461 b 647 243 500 461 590 461 b 851 -8 690 78 743 0 b 1015 107 935 -15 989 51 z m 229 956 l 388 956 b 683 717 624 956 683 844 b 388 478 683 589 624 478 l 229 478 z m 506 -89 b 443 -149 471 -89 443 -115 b 511 -214 443 -187 472 -206 b 458 -361 556 -224 506 -318 l 467 -369 b 567 -149 528 -306 572 -229 b 506 -89 565 -115 542 -89 z "},"Ś":{"ha":842,"x_min":0,"x_max":0,"o":"m 456 564 b 217 797 278 638 211 704 b 443 967 225 924 326 972 b 711 728 626 958 711 860 l 711 676 l 724 676 l 724 829 l 724 1004 l 711 1004 l 711 985 b 703 900 711 919 715 904 b 443 981 674 886 613 974 b 144 790 336 985 169 924 b 393 483 118 651 192 569 b 721 203 554 414 735 368 b 432 6 710 71 603 -4 b 82 254 243 18 82 122 l 82 306 l 69 306 l 69 153 l 69 -22 l 82 -22 l 82 -3 b 99 93 82 63 81 90 b 453 -8 136 101 250 -8 b 789 229 633 -8 767 92 b 456 564 818 407 686 469 z m 544 1236 b 485 1226 532 1253 514 1253 b 333 1081 454 1200 333 1081 l 338 1075 b 518 1181 338 1075 485 1160 b 544 1236 551 1201 557 1221 z "},"Š":{"ha":842,"x_min":0,"x_max":0,"o":"m 456 564 b 217 797 278 638 211 704 b 443 967 225 924 326 972 b 711 728 626 958 711 860 l 711 676 l 724 676 l 724 829 l 724 1004 l 711 1004 l 711 985 b 703 900 711 919 715 904 b 443 981 674 886 613 974 b 144 790 336 985 169 924 b 393 483 118 651 192 569 b 721 203 554 414 735 368 b 432 6 710 71 603 -4 b 82 254 243 18 82 122 l 82 306 l 69 306 l 69 153 l 69 -22 l 82 -22 l 82 -3 b 99 93 82 63 81 90 b 453 -8 136 101 250 -8 b 789 229 633 -8 767 92 b 456 564 818 407 686 469 z m 643 1264 l 444 1156 l 246 1264 l 242 1256 l 444 1086 l 649 1256 z "},"Ŝ":{"ha":842,"x_min":0,"x_max":0,"o":"m 456 564 b 217 797 278 638 211 704 b 443 967 225 924 326 972 b 711 728 626 958 711 860 l 711 676 l 724 676 l 724 829 l 724 1004 l 711 1004 l 711 985 b 703 900 711 919 715 904 b 443 981 674 886 613 974 b 144 790 336 985 169 924 b 393 483 118 651 192 569 b 721 203 554 414 735 368 b 432 6 710 71 603 -4 b 82 254 243 18 82 122 l 82 306 l 69 306 l 69 153 l 69 -22 l 82 -22 l 82 -3 b 99 93 82 63 81 90 b 453 -8 136 101 250 -8 b 789 229 633 -8 767 92 b 456 564 818 407 686 469 z m 446 1268 l 242 1099 l 247 1090 l 446 1199 l 644 1090 l 649 1099 z "},"Ș":{"ha":842,"x_min":0,"x_max":0,"o":"m 456 564 b 217 797 278 638 211 704 b 443 967 225 924 326 972 b 711 728 626 958 711 860 l 711 676 l 724 676 l 724 829 l 724 1004 l 711 1004 l 711 985 b 703 900 711 919 715 904 b 443 981 674 886 613 974 b 144 790 336 985 169 924 b 393 483 118 651 192 569 b 721 203 554 414 735 368 b 432 6 710 71 603 -4 b 82 254 243 18 82 122 l 82 306 l 69 306 l 69 153 l 69 -22 l 82 -22 l 82 -3 b 99 93 82 63 81 90 b 453 -8 136 101 250 -8 b 789 229 633 -8 767 92 b 456 564 818 407 686 469 z m 464 -89 b 401 -149 429 -89 401 -115 b 469 -214 401 -187 431 -206 b 417 -361 514 -224 464 -318 l 425 -369 b 525 -149 486 -306 531 -229 b 464 -89 524 -115 500 -89 z "},"Ť":{"ha":931,"x_min":0,"x_max":0,"o":"m 69 972 l 69 697 l 81 697 l 81 846 b 165 956 81 917 94 956 l 419 956 l 419 96 b 336 11 419 26 407 11 l 310 11 l 310 0 l 621 0 l 621 11 l 593 11 b 510 96 522 11 510 26 l 510 956 l 765 956 b 850 846 835 956 850 917 l 850 697 l 861 697 l 861 972 z m 663 1264 l 464 1156 l 265 1264 l 261 1256 l 464 1086 l 668 1256 z "},"Ţ":{"ha":931,"x_min":0,"x_max":0,"o":"m 69 972 l 69 697 l 81 697 l 81 846 b 165 956 81 917 94 956 l 419 956 l 419 96 b 336 11 419 26 407 11 l 310 11 l 310 0 l 621 0 l 621 11 l 593 11 b 510 96 522 11 510 26 l 510 956 l 765 956 b 850 846 835 956 850 917 l 850 697 l 861 697 l 861 972 z m 463 -89 b 400 -149 428 -89 400 -115 b 468 -214 400 -187 429 -206 b 415 -361 513 -224 463 -318 l 424 -369 b 524 -149 485 -306 529 -229 b 463 -89 522 -115 499 -89 z "},"Ú":{"ha":1051,"x_min":0,"x_max":0,"o":"m 711 972 l 711 960 l 739 960 b 860 876 810 960 860 946 l 860 385 b 569 31 860 172 742 35 b 229 397 382 26 229 122 l 229 876 b 313 960 229 946 242 960 l 340 960 l 340 972 l 28 972 l 28 960 l 56 960 b 139 876 126 960 139 946 l 139 397 b 539 -8 139 111 322 -8 b 875 385 793 -8 875 204 l 875 876 b 996 960 875 946 925 960 l 1024 960 l 1024 972 z m 639 1236 b 579 1226 626 1253 608 1253 b 428 1081 549 1200 428 1081 l 432 1075 b 613 1181 432 1075 579 1160 b 639 1236 646 1201 651 1221 z "},"Ŭ":{"ha":1051,"x_min":0,"x_max":0,"o":"m 711 972 l 711 960 l 739 960 b 860 876 810 960 860 946 l 860 385 b 569 31 860 172 742 35 b 229 397 382 26 229 122 l 229 876 b 313 960 229 946 242 960 l 340 960 l 340 972 l 28 972 l 28 960 l 56 960 b 139 876 126 960 139 946 l 139 397 b 539 -8 139 111 322 -8 b 875 385 793 -8 875 204 l 875 876 b 996 960 875 946 925 960 l 1024 960 l 1024 972 z m 685 1261 b 539 1171 667 1204 622 1171 b 393 1261 456 1171 410 1204 l 383 1261 b 539 1111 386 1190 444 1111 b 694 1261 633 1111 692 1190 z "},"Û":{"ha":1051,"x_min":0,"x_max":0,"o":"m 711 972 l 711 960 l 739 960 b 860 876 810 960 860 946 l 860 385 b 569 31 860 172 742 35 b 229 397 382 26 229 122 l 229 876 b 313 960 229 946 242 960 l 340 960 l 340 972 l 28 972 l 28 960 l 56 960 b 139 876 126 960 139 946 l 139 397 b 539 -8 139 111 322 -8 b 875 385 793 -8 875 204 l 875 876 b 996 960 875 946 925 960 l 1024 960 l 1024 972 z m 540 1268 l 336 1099 l 342 1090 l 540 1199 l 739 1090 l 743 1099 z "},"Ü":{"ha":1051,"x_min":0,"x_max":0,"o":"m 711 972 l 711 960 l 739 960 b 860 876 810 960 860 946 l 860 385 b 569 31 860 172 742 35 b 229 397 382 26 229 122 l 229 876 b 313 960 229 946 242 960 l 340 960 l 340 972 l 28 972 l 28 960 l 56 960 b 139 876 126 960 139 946 l 139 397 b 539 -8 139 111 322 -8 b 875 385 793 -8 875 204 l 875 876 b 996 960 875 946 925 960 l 1024 960 l 1024 972 z m 432 1250 b 361 1182 393 1250 361 1219 b 432 1114 361 1144 393 1114 b 501 1182 471 1114 501 1144 b 432 1250 501 1219 471 1250 z m 646 1250 b 576 1182 607 1250 576 1219 b 646 1114 576 1144 607 1114 b 717 1182 685 1114 717 1144 b 646 1250 717 1219 685 1250 z "},"Ù":{"ha":1051,"x_min":0,"x_max":0,"o":"m 711 972 l 711 960 l 739 960 b 860 876 810 960 860 946 l 860 385 b 569 31 860 172 742 35 b 229 397 382 26 229 122 l 229 876 b 313 960 229 946 242 960 l 340 960 l 340 972 l 28 972 l 28 960 l 56 960 b 139 876 126 960 139 946 l 139 397 b 539 -8 139 111 322 -8 b 875 385 793 -8 875 204 l 875 876 b 996 960 875 946 925 960 l 1024 960 l 1024 972 z m 486 1226 b 426 1236 457 1253 439 1253 b 453 1181 414 1221 419 1201 b 633 1075 486 1160 633 1075 l 638 1081 b 486 1226 638 1081 515 1200 z "},"Ű":{"ha":1051,"x_min":0,"x_max":0,"o":"m 711 972 l 711 960 l 739 960 b 860 876 810 960 860 946 l 860 385 b 569 31 860 172 742 35 b 229 397 382 26 229 122 l 229 876 b 313 960 229 946 242 960 l 340 960 l 340 972 l 28 972 l 28 960 l 56 960 b 139 876 126 960 139 946 l 139 397 b 539 -8 139 111 322 -8 b 875 385 793 -8 875 204 l 875 876 b 996 960 875 946 925 960 l 1024 960 l 1024 972 z m 574 1260 b 517 1235 557 1272 539 1268 b 408 1056 496 1201 408 1056 l 413 1051 b 563 1200 413 1051 535 1171 b 574 1260 589 1228 589 1247 z m 738 1260 b 682 1235 722 1272 704 1268 b 574 1056 661 1201 574 1056 l 578 1051 b 726 1200 578 1051 700 1171 b 738 1260 754 1228 754 1247 z "},"Ū":{"ha":1051,"x_min":0,"x_max":0,"o":"m 711 972 l 711 960 l 739 960 b 860 876 810 960 860 946 l 860 385 b 569 31 860 172 742 35 b 229 397 382 26 229 122 l 229 876 b 313 960 229 946 242 960 l 340 960 l 340 972 l 28 972 l 28 960 l 56 960 b 139 876 126 960 139 946 l 139 397 b 539 -8 139 111 322 -8 b 875 385 793 -8 875 204 l 875 876 b 996 960 875 946 925 960 l 1024 960 l 1024 972 z m 303 1197 l 303 1181 l 776 1181 l 776 1197 z "},"Ů":{"ha":1051,"x_min":0,"x_max":0,"o":"m 711 972 l 711 960 l 739 960 b 860 876 810 960 860 946 l 860 385 b 569 31 860 172 742 35 b 229 397 382 26 229 122 l 229 876 b 313 960 229 946 242 960 l 340 960 l 340 972 l 28 972 l 28 960 l 56 960 b 139 876 126 960 139 946 l 139 397 b 539 -8 139 111 322 -8 b 875 385 793 -8 875 204 l 875 876 b 996 960 875 946 925 960 l 1024 960 l 1024 972 z m 526 1322 b 394 1200 458 1322 394 1274 b 526 1079 394 1128 458 1079 b 657 1200 593 1079 657 1128 b 526 1322 657 1274 593 1322 z m 526 1088 b 444 1200 478 1088 444 1131 b 526 1314 444 1269 478 1314 b 607 1200 574 1314 607 1269 b 526 1088 607 1131 574 1088 z "},"Ũ":{"ha":1051,"x_min":0,"x_max":0,"o":"m 711 972 l 711 960 l 739 960 b 860 876 810 960 860 946 l 860 385 b 569 31 860 172 742 35 b 229 397 382 26 229 122 l 229 876 b 313 960 229 946 242 960 l 340 960 l 340 972 l 28 972 l 28 960 l 56 960 b 139 876 126 960 139 946 l 139 397 b 539 -8 139 111 322 -8 b 875 385 793 -8 875 204 l 875 876 b 996 960 875 946 925 960 l 1024 960 l 1024 972 z m 746 1260 b 574 1224 729 1200 682 1186 b 381 1218 465 1263 415 1243 b 322 1131 344 1193 322 1131 l 335 1126 b 421 1193 358 1188 381 1197 b 622 1136 475 1188 565 1136 b 757 1257 679 1136 739 1197 z "},"Ẃ":{"ha":1490,"x_min":0,"x_max":0,"o":"m 1189 972 l 1189 960 l 1217 960 b 1300 876 1288 960 1328 946 l 1007 121 l 786 639 l 878 876 b 1011 960 904 942 940 960 l 1039 960 l 1039 972 l 800 972 l 800 960 l 801 960 b 868 889 872 960 894 960 l 778 658 l 686 876 b 724 960 660 942 653 960 l 751 960 l 751 972 l 451 972 l 451 960 l 467 960 b 589 876 538 960 556 939 l 732 539 l 569 121 l 249 876 b 286 960 222 942 215 960 l 314 960 l 314 972 l 14 972 l 14 960 l 31 960 b 151 876 100 960 118 939 l 522 0 l 539 0 l 740 519 l 960 0 l 976 0 l 1315 876 b 1449 960 1342 942 1378 960 l 1476 960 l 1476 972 z m 872 1236 b 813 1226 860 1253 842 1253 b 661 1081 782 1200 661 1081 l 665 1075 b 846 1181 665 1075 813 1160 b 872 1236 879 1201 885 1221 z "},"Ŵ":{"ha":1490,"x_min":0,"x_max":0,"o":"m 1189 972 l 1189 960 l 1217 960 b 1300 876 1288 960 1328 946 l 1007 121 l 786 639 l 878 876 b 1011 960 904 942 940 960 l 1039 960 l 1039 972 l 800 972 l 800 960 l 801 960 b 868 889 872 960 894 960 l 778 658 l 686 876 b 724 960 660 942 653 960 l 751 960 l 751 972 l 451 972 l 451 960 l 467 960 b 589 876 538 960 556 939 l 732 539 l 569 121 l 249 876 b 286 960 222 942 215 960 l 314 960 l 314 972 l 14 972 l 14 960 l 31 960 b 151 876 100 960 118 939 l 522 0 l 539 0 l 740 519 l 960 0 l 976 0 l 1315 876 b 1449 960 1342 942 1378 960 l 1476 960 l 1476 972 z m 774 1268 l 569 1099 l 575 1090 l 774 1199 l 972 1090 l 976 1099 z "},"Ẅ":{"ha":1490,"x_min":0,"x_max":0,"o":"m 1189 972 l 1189 960 l 1217 960 b 1300 876 1288 960 1328 946 l 1007 121 l 786 639 l 878 876 b 1011 960 904 942 940 960 l 1039 960 l 1039 972 l 800 972 l 800 960 l 801 960 b 868 889 872 960 894 960 l 778 658 l 686 876 b 724 960 660 942 653 960 l 751 960 l 751 972 l 451 972 l 451 960 l 467 960 b 589 876 538 960 556 939 l 732 539 l 569 121 l 249 876 b 286 960 222 942 215 960 l 314 960 l 314 972 l 14 972 l 14 960 l 31 960 b 151 876 100 960 118 939 l 522 0 l 539 0 l 740 519 l 960 0 l 976 0 l 1315 876 b 1449 960 1342 942 1378 960 l 1476 960 l 1476 972 z m 665 1250 b 594 1182 626 1250 594 1219 b 665 1114 594 1144 626 1114 b 735 1182 704 1114 735 1144 b 665 1250 735 1219 704 1250 z m 879 1250 b 810 1182 840 1250 810 1219 b 879 1114 810 1144 840 1114 b 950 1182 918 1114 950 1144 b 879 1250 950 1219 918 1250 z "},"Ẁ":{"ha":1490,"x_min":0,"x_max":0,"o":"m 1189 972 l 1189 960 l 1217 960 b 1300 876 1288 960 1328 946 l 1007 121 l 786 639 l 878 876 b 1011 960 904 942 940 960 l 1039 960 l 1039 972 l 800 972 l 800 960 l 801 960 b 868 889 872 960 894 960 l 778 658 l 686 876 b 724 960 660 942 653 960 l 751 960 l 751 972 l 451 972 l 451 960 l 467 960 b 589 876 538 960 556 939 l 732 539 l 569 121 l 249 876 b 286 960 222 942 215 960 l 314 960 l 314 972 l 14 972 l 14 960 l 31 960 b 151 876 100 960 118 939 l 522 0 l 539 0 l 740 519 l 960 0 l 976 0 l 1315 876 b 1449 960 1342 942 1378 960 l 1476 960 l 1476 972 z m 733 1226 b 674 1236 704 1253 686 1253 b 700 1181 661 1221 667 1201 b 881 1075 733 1160 881 1075 l 885 1081 b 733 1226 885 1081 763 1200 z "},"Ý":{"ha":940,"x_min":0,"x_max":0,"o":"m 664 972 l 664 960 l 690 960 b 764 881 760 960 796 942 l 514 414 l 239 876 b 285 960 204 940 215 960 l 313 960 l 313 972 l 14 972 l 14 960 l 29 960 b 142 876 92 960 103 935 l 436 382 l 436 96 b 353 11 436 26 424 11 l 325 11 l 325 0 l 636 0 l 636 11 l 608 11 b 525 96 539 11 525 26 l 525 406 l 779 878 b 899 960 817 939 829 960 l 926 960 l 926 972 z m 597 1236 b 538 1226 585 1253 567 1253 b 386 1081 507 1200 386 1081 l 390 1075 b 571 1181 390 1075 538 1160 b 597 1236 604 1201 610 1221 z "},"Ŷ":{"ha":940,"x_min":0,"x_max":0,"o":"m 664 972 l 664 960 l 690 960 b 764 881 760 960 796 942 l 514 414 l 239 876 b 285 960 204 940 215 960 l 313 960 l 313 972 l 14 972 l 14 960 l 29 960 b 142 876 92 960 103 935 l 436 382 l 436 96 b 353 11 436 26 424 11 l 325 11 l 325 0 l 636 0 l 636 11 l 608 11 b 525 96 539 11 525 26 l 525 406 l 779 878 b 899 960 817 939 829 960 l 926 960 l 926 972 z m 499 1268 l 294 1099 l 300 1090 l 499 1199 l 697 1090 l 701 1099 z "},"Ÿ":{"ha":940,"x_min":0,"x_max":0,"o":"m 664 972 l 664 960 l 690 960 b 764 881 760 960 796 942 l 514 414 l 239 876 b 285 960 204 940 215 960 l 313 960 l 313 972 l 14 972 l 14 960 l 29 960 b 142 876 92 960 103 935 l 436 382 l 436 96 b 353 11 436 26 424 11 l 325 11 l 325 0 l 636 0 l 636 11 l 608 11 b 525 96 539 11 525 26 l 525 406 l 779 878 b 899 960 817 939 829 960 l 926 960 l 926 972 z m 390 1250 b 319 1182 351 1250 319 1219 b 390 1114 319 1144 351 1114 b 460 1182 429 1114 460 1144 b 390 1250 460 1219 429 1250 z m 604 1250 b 535 1182 565 1250 535 1219 b 604 1114 535 1144 565 1114 b 675 1182 643 1114 675 1144 b 604 1250 675 1219 643 1250 z "},"Ỳ":{"ha":940,"x_min":0,"x_max":0,"o":"m 664 972 l 664 960 l 690 960 b 764 881 760 960 796 942 l 514 414 l 239 876 b 285 960 204 940 215 960 l 313 960 l 313 972 l 14 972 l 14 960 l 29 960 b 142 876 92 960 103 935 l 436 382 l 436 96 b 353 11 436 26 424 11 l 325 11 l 325 0 l 636 0 l 636 11 l 608 11 b 525 96 539 11 525 26 l 525 406 l 779 878 b 899 960 817 939 829 960 l 926 960 l 926 972 z m 431 1226 b 371 1236 401 1253 383 1253 b 397 1181 358 1221 364 1201 b 578 1075 431 1160 578 1075 l 582 1081 b 431 1226 582 1081 460 1200 z "},"Ź":{"ha":878,"x_min":0,"x_max":0,"o":"m 797 303 l 797 136 b 713 15 797 65 782 15 l 169 15 l 797 956 l 797 972 l 93 972 l 93 669 l 104 669 l 104 836 b 189 956 104 907 119 956 l 696 956 l 69 15 l 69 0 l 808 0 l 808 303 z m 551 1236 b 492 1226 539 1253 521 1253 b 340 1081 461 1200 340 1081 l 344 1075 b 525 1181 344 1075 492 1160 b 551 1236 558 1201 564 1221 z "},"Ž":{"ha":878,"x_min":0,"x_max":0,"o":"m 797 303 l 797 136 b 713 15 797 65 782 15 l 169 15 l 797 956 l 797 972 l 93 972 l 93 669 l 104 669 l 104 836 b 189 956 104 907 119 956 l 696 956 l 69 15 l 69 0 l 808 0 l 808 303 z m 650 1264 l 451 1156 l 253 1264 l 249 1256 l 451 1086 l 656 1256 z "},"Ż":{"ha":878,"x_min":0,"x_max":0,"o":"m 797 303 l 797 136 b 713 15 797 65 782 15 l 169 15 l 797 956 l 797 972 l 93 972 l 93 669 l 104 669 l 104 836 b 189 956 104 907 119 956 l 696 956 l 69 15 l 69 0 l 808 0 l 808 303 z m 451 1250 b 382 1182 413 1250 382 1219 b 451 1114 382 1144 413 1114 b 522 1182 490 1114 522 1144 b 451 1250 522 1219 490 1250 z "},"á":{"ha":756,"x_min":0,"x_max":0,"o":"m 749 78 b 643 8 722 36 676 4 b 600 104 615 11 600 33 l 600 426 b 350 682 600 604 508 682 b 136 615 276 682 194 651 b 117 556 111 599 103 572 b 196 568 133 535 161 535 b 347 671 240 611 274 671 b 511 474 438 671 511 638 b 318 367 494 443 450 389 b 36 157 161 340 31 303 b 276 -8 40 36 167 -14 b 511 218 429 0 497 143 b 511 113 511 206 511 124 b 624 -8 511 31 556 -8 b 756 72 686 -8 733 39 z m 511 285 b 314 14 511 161 428 25 b 117 163 214 4 124 53 b 301 353 110 292 217 335 b 511 457 450 382 482 424 b 511 285 511 413 511 347 z m 481 958 b 421 949 468 975 450 975 b 269 803 390 922 269 803 l 274 797 b 454 903 274 797 421 882 b 481 958 488 924 493 943 z "},"ă":{"ha":756,"x_min":0,"x_max":0,"o":"m 749 78 b 643 8 722 36 676 4 b 600 104 615 11 600 33 l 600 426 b 350 682 600 604 508 682 b 136 615 276 682 194 651 b 117 556 111 599 103 572 b 196 568 133 535 161 535 b 347 671 240 611 274 671 b 511 474 438 671 511 638 b 318 367 494 443 450 389 b 36 157 161 340 31 303 b 276 -8 40 36 167 -14 b 511 218 429 0 497 143 b 511 113 511 206 511 124 b 624 -8 511 31 556 -8 b 756 72 686 -8 733 39 z m 511 285 b 314 14 511 161 428 25 b 117 163 214 4 124 53 b 301 353 110 292 217 335 b 511 457 450 382 482 424 b 511 285 511 413 511 347 z m 526 983 b 381 893 508 926 464 893 b 235 983 297 893 251 926 l 225 983 b 381 833 228 913 286 833 b 536 983 475 833 533 913 z "},"â":{"ha":756,"x_min":0,"x_max":0,"o":"m 749 78 b 643 8 722 36 676 4 b 600 104 615 11 600 33 l 600 426 b 350 682 600 604 508 682 b 136 615 276 682 194 651 b 117 556 111 599 103 572 b 196 568 133 535 161 535 b 347 671 240 611 274 671 b 511 474 438 671 511 638 b 318 367 494 443 450 389 b 36 157 161 340 31 303 b 276 -8 40 36 167 -14 b 511 218 429 0 497 143 b 511 113 511 206 511 124 b 624 -8 511 31 556 -8 b 756 72 686 -8 733 39 z m 511 285 b 314 14 511 161 428 25 b 117 163 214 4 124 53 b 301 353 110 292 217 335 b 511 457 450 382 482 424 b 511 285 511 413 511 347 z m 382 990 l 178 821 l 183 813 l 382 921 l 581 813 l 585 821 z "},"ä":{"ha":756,"x_min":0,"x_max":0,"o":"m 749 78 b 643 8 722 36 676 4 b 600 104 615 11 600 33 l 600 426 b 350 682 600 604 508 682 b 136 615 276 682 194 651 b 117 556 111 599 103 572 b 196 568 133 535 161 535 b 347 671 240 611 274 671 b 511 474 438 671 511 638 b 318 367 494 443 450 389 b 36 157 161 340 31 303 b 276 -8 40 36 167 -14 b 511 218 429 0 497 143 b 511 113 511 206 511 124 b 624 -8 511 31 556 -8 b 756 72 686 -8 733 39 z m 511 285 b 314 14 511 161 428 25 b 117 163 214 4 124 53 b 301 353 110 292 217 335 b 511 457 450 382 482 424 b 511 285 511 413 511 347 z m 274 972 b 203 904 235 972 203 942 b 274 836 203 867 235 836 b 343 904 313 836 343 867 b 274 972 343 942 313 972 z m 488 972 b 418 904 449 972 418 942 b 488 836 418 867 449 836 b 558 904 526 836 558 867 b 488 972 558 942 526 972 z "},"à":{"ha":756,"x_min":0,"x_max":0,"o":"m 749 78 b 643 8 722 36 676 4 b 600 104 615 11 600 33 l 600 426 b 350 682 600 604 508 682 b 136 615 276 682 194 651 b 117 556 111 599 103 572 b 196 568 133 535 161 535 b 347 671 240 611 274 671 b 511 474 438 671 511 638 b 318 367 494 443 450 389 b 36 157 161 340 31 303 b 276 -8 40 36 167 -14 b 511 218 429 0 497 143 b 511 113 511 206 511 124 b 624 -8 511 31 556 -8 b 756 72 686 -8 733 39 z m 511 285 b 314 14 511 161 428 25 b 117 163 214 4 124 53 b 301 353 110 292 217 335 b 511 457 450 382 482 424 b 511 285 511 413 511 347 z m 342 949 b 282 958 313 975 294 975 b 308 903 269 943 275 924 b 489 797 342 882 489 797 l 493 803 b 342 949 493 803 371 922 z "},"å":{"ha":756,"x_min":0,"x_max":0,"o":"m 749 78 b 643 8 722 36 676 4 b 600 104 615 11 600 33 l 600 426 b 350 682 600 604 508 682 b 136 615 276 682 194 651 b 117 556 111 599 103 572 b 196 568 133 535 161 535 b 347 671 240 611 274 671 b 511 474 438 671 511 638 b 318 367 494 443 450 389 b 36 157 161 340 31 303 b 276 -8 40 36 167 -14 b 511 218 429 0 497 143 b 511 113 511 206 511 124 b 624 -8 511 31 556 -8 b 756 72 686 -8 733 39 z m 511 285 b 314 14 511 161 428 25 b 117 163 214 4 124 53 b 301 353 110 292 217 335 b 511 457 450 382 482 424 b 511 285 511 413 511 347 z m 368 1044 b 236 922 300 1044 236 996 b 368 801 236 850 300 801 b 499 922 435 801 499 850 b 368 1044 499 996 435 1044 z m 368 810 b 286 922 319 810 286 853 b 368 1036 286 992 319 1036 b 449 922 415 1036 449 992 b 368 810 449 853 415 810 z "},"ā":{"ha":756,"x_min":0,"x_max":0,"o":"m 749 78 b 643 8 722 36 676 4 b 600 104 615 11 600 33 l 600 426 b 350 682 600 604 508 682 b 136 615 276 682 194 651 b 117 556 111 599 103 572 b 196 568 133 535 161 535 b 347 671 240 611 274 671 b 511 474 438 671 511 638 b 318 367 494 443 450 389 b 36 157 161 340 31 303 b 276 -8 40 36 167 -14 b 511 218 429 0 497 143 b 511 113 511 206 511 124 b 624 -8 511 31 556 -8 b 756 72 686 -8 733 39 z m 511 285 b 314 14 511 161 428 25 b 117 163 214 4 124 53 b 301 353 110 292 217 335 b 511 457 450 382 482 424 b 511 285 511 413 511 347 z m 131 919 l 131 903 l 604 903 l 604 919 z "},"ã":{"ha":756,"x_min":0,"x_max":0,"o":"m 749 78 b 643 8 722 36 676 4 b 600 104 615 11 600 33 l 600 426 b 350 682 600 604 508 682 b 136 615 276 682 194 651 b 117 556 111 599 103 572 b 196 568 133 535 161 535 b 347 671 240 611 274 671 b 511 474 438 671 511 638 b 318 367 494 443 450 389 b 36 157 161 340 31 303 b 276 -8 40 36 167 -14 b 511 218 429 0 497 143 b 511 113 511 206 511 124 b 624 -8 511 31 556 -8 b 756 72 686 -8 733 39 z m 511 285 b 314 14 511 161 428 25 b 117 163 214 4 124 53 b 301 353 110 292 217 335 b 511 457 450 382 482 424 b 511 285 511 413 511 347 z m 574 982 b 401 946 557 922 510 908 b 208 940 293 985 243 965 b 150 853 172 915 150 853 l 163 849 b 249 915 186 910 208 919 b 450 858 303 910 393 858 b 585 979 507 858 567 919 z "},"ǽ":{"ha":1208,"x_min":0,"x_max":0,"o":"m 1257 279 b 890 35 1219 211 1110 21 b 593 329 742 44 613 136 b 596 431 590 365 592 399 l 1140 431 b 871 682 1140 582 1022 682 b 581 528 754 682 647 619 b 343 682 551 633 468 682 b 131 615 269 682 189 651 b 110 556 104 599 96 572 b 190 568 126 535 156 535 b 340 671 235 611 268 671 b 504 474 432 671 504 638 b 313 367 489 443 443 389 b 29 157 154 340 25 303 b 269 -8 33 36 161 -14 b 514 272 424 0 504 140 b 864 -8 532 100 671 -8 b 1264 274 1097 -8 1221 197 z m 847 667 b 1053 442 999 665 1058 556 l 599 442 b 847 667 624 579 725 668 z m 504 285 b 307 14 504 161 421 25 b 111 163 207 4 117 53 b 296 353 104 292 210 335 b 504 457 443 382 476 424 b 504 285 504 413 504 347 z m 772 958 b 713 949 760 975 742 975 b 561 803 682 922 561 803 l 565 797 b 746 903 565 797 713 882 b 772 958 779 924 785 943 z "},"ć":{"ha":740,"x_min":0,"x_max":0,"o":"m 789 279 b 422 35 753 211 642 21 b 126 329 274 44 144 136 b 379 667 107 531 226 668 b 554 575 481 663 525 618 b 643 547 583 533 624 524 b 621 615 657 565 651 593 b 403 682 565 653 501 679 b 43 303 206 682 39 510 b 396 -8 47 113 192 -8 b 796 274 629 -8 753 197 z m 504 958 b 444 949 492 975 474 975 b 293 803 414 922 293 803 l 297 797 b 478 903 297 797 444 882 b 504 958 511 924 517 943 z "},"č":{"ha":740,"x_min":0,"x_max":0,"o":"m 789 279 b 422 35 753 211 642 21 b 126 329 274 44 144 136 b 379 667 107 531 226 668 b 554 575 481 663 525 618 b 643 547 583 533 624 524 b 621 615 657 565 651 593 b 403 682 565 653 501 679 b 43 303 206 682 39 510 b 396 -8 47 113 192 -8 b 796 274 629 -8 753 197 z m 589 986 l 390 878 l 192 986 l 188 978 l 390 808 l 594 978 z "},"ĉ":{"ha":740,"x_min":0,"x_max":0,"o":"m 789 279 b 422 35 753 211 642 21 b 126 329 274 44 144 136 b 379 667 107 531 226 668 b 554 575 481 663 525 618 b 643 547 583 533 624 524 b 621 615 657 565 651 593 b 403 682 565 653 501 679 b 43 303 206 682 39 510 b 396 -8 47 113 192 -8 b 796 274 629 -8 753 197 z m 392 990 l 188 821 l 193 813 l 392 921 l 590 813 l 594 821 z "},"ċ":{"ha":740,"x_min":0,"x_max":0,"o":"m 789 279 b 422 35 753 211 642 21 b 126 329 274 44 144 136 b 379 667 107 531 226 668 b 554 575 481 663 525 618 b 643 547 583 533 624 524 b 621 615 657 565 651 593 b 403 682 565 653 501 679 b 43 303 206 682 39 510 b 396 -8 47 113 192 -8 b 796 274 629 -8 753 197 z m 404 972 b 335 904 365 972 335 942 b 404 836 335 867 365 836 b 475 904 443 836 475 867 b 404 972 475 942 443 972 z "},"ď":{"ha":1018,"x_min":0,"x_max":0,"o":"m 807 11 b 724 96 736 11 724 26 l 724 972 l 524 972 l 524 960 l 551 960 b 633 876 621 960 633 946 l 633 518 b 400 682 604 608 501 679 b 42 336 186 688 42 538 b 400 -8 42 135 186 -14 b 633 154 501 -6 604 64 l 633 0 l 835 0 l 835 11 z m 400 4 b 132 336 242 0 132 138 b 400 668 132 535 242 671 b 633 458 532 664 633 561 l 633 214 b 400 4 633 111 532 8 z m 932 981 b 863 913 893 981 863 950 b 940 839 863 868 896 847 b 879 671 990 828 932 719 l 888 661 b 1003 913 958 733 1010 821 b 932 981 1000 950 974 981 z "},"é":{"ha":740,"x_min":0,"x_max":0,"o":"m 789 279 b 421 35 751 211 642 21 b 125 329 274 44 143 136 b 128 431 122 365 124 399 l 672 431 b 403 682 672 582 554 682 b 43 303 206 682 39 510 b 396 -8 47 113 190 -8 b 796 274 629 -8 753 197 z m 379 667 b 585 442 531 665 590 556 l 131 442 b 379 667 156 581 256 668 z m 490 958 b 431 949 478 975 460 975 b 279 803 400 922 279 803 l 283 797 b 464 903 283 797 431 882 b 490 958 497 924 503 943 z "},"ĕ":{"ha":740,"x_min":0,"x_max":0,"o":"m 789 279 b 421 35 751 211 642 21 b 125 329 274 44 143 136 b 128 431 122 365 124 399 l 672 431 b 403 682 672 582 554 682 b 43 303 206 682 39 510 b 396 -8 47 113 190 -8 b 796 274 629 -8 753 197 z m 379 667 b 585 442 531 665 590 556 l 131 442 b 379 667 156 581 256 668 z m 536 983 b 390 893 518 926 474 893 b 244 983 307 893 261 926 l 235 983 b 390 833 238 913 296 833 b 546 983 485 833 543 913 z "},"ě":{"ha":740,"x_min":0,"x_max":0,"o":"m 789 279 b 421 35 751 211 642 21 b 125 329 274 44 143 136 b 128 431 122 365 124 399 l 672 431 b 403 682 672 582 554 682 b 43 303 206 682 39 510 b 396 -8 47 113 190 -8 b 796 274 629 -8 753 197 z m 379 667 b 585 442 531 665 590 556 l 131 442 b 379 667 156 581 256 668 z m 589 986 l 390 878 l 192 986 l 188 978 l 390 808 l 594 978 z "},"ê":{"ha":740,"x_min":0,"x_max":0,"o":"m 789 279 b 421 35 751 211 642 21 b 125 329 274 44 143 136 b 128 431 122 365 124 399 l 672 431 b 403 682 672 582 554 682 b 43 303 206 682 39 510 b 396 -8 47 113 190 -8 b 796 274 629 -8 753 197 z m 379 667 b 585 442 531 665 590 556 l 131 442 b 379 667 156 581 256 668 z m 392 990 l 188 821 l 193 813 l 392 921 l 590 813 l 594 821 z "},"ë":{"ha":740,"x_min":0,"x_max":0,"o":"m 789 279 b 421 35 751 211 642 21 b 125 329 274 44 143 136 b 128 431 122 365 124 399 l 672 431 b 403 682 672 582 554 682 b 43 303 206 682 39 510 b 396 -8 47 113 190 -8 b 796 274 629 -8 753 197 z m 379 667 b 585 442 531 665 590 556 l 131 442 b 379 667 156 581 256 668 z m 283 972 b 213 904 244 972 213 942 b 283 836 213 867 244 836 b 353 904 322 836 353 867 b 283 972 353 942 322 972 z m 497 972 b 428 904 458 972 428 942 b 497 836 428 867 458 836 b 568 904 536 836 568 867 b 497 972 568 942 536 972 z "},"ė":{"ha":740,"x_min":0,"x_max":0,"o":"m 789 279 b 421 35 751 211 642 21 b 125 329 274 44 143 136 b 128 431 122 365 124 399 l 672 431 b 403 682 672 582 554 682 b 43 303 206 682 39 510 b 396 -8 47 113 190 -8 b 796 274 629 -8 753 197 z m 379 667 b 585 442 531 665 590 556 l 131 442 b 379 667 156 581 256 668 z m 390 972 b 321 904 351 972 321 942 b 390 836 321 867 351 836 b 461 904 429 836 461 867 b 390 972 461 942 429 972 z "},"è":{"ha":740,"x_min":0,"x_max":0,"o":"m 789 279 b 421 35 751 211 642 21 b 125 329 274 44 143 136 b 128 431 122 365 124 399 l 672 431 b 403 682 672 582 554 682 b 43 303 206 682 39 510 b 396 -8 47 113 190 -8 b 796 274 629 -8 753 197 z m 379 667 b 585 442 531 665 590 556 l 131 442 b 379 667 156 581 256 668 z m 351 949 b 292 958 322 975 304 975 b 318 903 279 943 285 924 b 499 797 351 882 499 797 l 503 803 b 351 949 503 803 381 922 z "},"ē":{"ha":740,"x_min":0,"x_max":0,"o":"m 789 279 b 421 35 751 211 642 21 b 125 329 274 44 143 136 b 128 431 122 365 124 399 l 672 431 b 403 682 672 582 554 682 b 43 303 206 682 39 510 b 396 -8 47 113 190 -8 b 796 274 629 -8 753 197 z m 379 667 b 585 442 531 665 590 556 l 131 442 b 379 667 156 581 256 668 z m 154 919 l 154 903 l 628 903 l 628 919 z "},"ğ":{"ha":824,"x_min":0,"x_max":0,"o":"m 476 -39 b 149 36 246 -24 156 -11 b 222 108 146 65 179 90 b 364 132 267 126 364 132 b 388 131 371 131 379 131 b 685 406 563 131 685 244 b 515 657 685 524 619 615 b 713 654 544 661 604 660 b 789 685 769 650 789 661 b 724 714 789 710 768 722 b 503 663 622 697 535 672 b 388 682 468 674 429 682 b 92 406 214 682 92 567 b 317 138 92 268 181 165 b 76 -12 226 132 67 85 b 300 -118 83 -85 192 -108 b 210 -164 272 -129 240 -144 b 15 -401 115 -221 25 -294 b 397 -603 -1 -569 242 -631 b 818 -236 571 -572 786 -399 b 476 -39 847 -81 729 -56 z m 185 406 b 388 668 185 564 257 668 b 592 406 519 668 592 564 b 388 143 592 247 519 143 b 185 406 257 143 185 247 z m 418 -539 b 124 -472 307 -549 193 -521 b 118 -247 46 -417 36 -324 b 321 -119 194 -175 271 -137 b 460 -126 372 -124 424 -125 b 781 -233 575 -135 765 -110 b 418 -539 794 -358 651 -517 z m 536 983 b 390 893 518 926 474 893 b 244 983 307 893 261 926 l 235 983 b 390 833 238 913 296 833 b 546 983 485 833 543 913 z "},"ĝ":{"ha":824,"x_min":0,"x_max":0,"o":"m 476 -39 b 149 36 246 -24 156 -11 b 222 108 146 65 179 90 b 364 132 267 126 364 132 b 388 131 371 131 379 131 b 685 406 563 131 685 244 b 515 657 685 524 619 615 b 713 654 544 661 604 660 b 789 685 769 650 789 661 b 724 714 789 710 768 722 b 503 663 622 697 535 672 b 388 682 468 674 429 682 b 92 406 214 682 92 567 b 317 138 92 268 181 165 b 76 -12 226 132 67 85 b 300 -118 83 -85 192 -108 b 210 -164 272 -129 240 -144 b 15 -401 115 -221 25 -294 b 397 -603 -1 -569 242 -631 b 818 -236 571 -572 786 -399 b 476 -39 847 -81 729 -56 z m 185 406 b 388 668 185 564 257 668 b 592 406 519 668 592 564 b 388 143 592 247 519 143 b 185 406 257 143 185 247 z m 418 -539 b 124 -472 307 -549 193 -521 b 118 -247 46 -417 36 -324 b 321 -119 194 -175 271 -137 b 460 -126 372 -124 424 -125 b 781 -233 575 -135 765 -110 b 418 -539 794 -358 651 -517 z m 392 990 l 188 821 l 193 813 l 392 921 l 590 813 l 594 821 z "},"ģ":{"ha":824,"x_min":0,"x_max":0,"o":"m 476 -39 b 149 36 246 -24 156 -11 b 222 108 146 65 179 90 b 364 132 267 126 364 132 b 388 131 371 131 379 131 b 685 406 563 131 685 244 b 515 657 685 524 619 615 b 713 654 544 661 604 660 b 789 685 769 650 789 661 b 724 714 789 710 768 722 b 503 663 622 697 535 672 b 388 682 468 674 429 682 b 92 406 214 682 92 567 b 317 138 92 268 181 165 b 76 -12 226 132 67 85 b 300 -118 83 -85 192 -108 b 210 -164 272 -129 240 -144 b 15 -401 115 -221 25 -294 b 397 -603 -1 -569 242 -631 b 818 -236 571 -572 786 -399 b 476 -39 847 -81 729 -56 z m 185 406 b 388 668 185 564 257 668 b 592 406 519 668 592 564 b 388 143 592 247 519 143 b 185 406 257 143 185 247 z m 418 -539 b 124 -472 307 -549 193 -521 b 118 -247 46 -417 36 -324 b 321 -119 194 -175 271 -137 b 460 -126 372 -124 424 -125 b 781 -233 575 -135 765 -110 b 418 -539 794 -358 651 -517 z m 379 985 b 440 1153 328 996 386 1103 l 431 1161 b 315 911 360 1090 310 1001 b 386 842 318 872 344 842 b 457 911 425 842 457 872 b 379 985 457 956 424 975 z "},"ġ":{"ha":824,"x_min":0,"x_max":0,"o":"m 476 -39 b 149 36 246 -24 156 -11 b 222 108 146 65 179 90 b 364 132 267 126 364 132 b 388 131 371 131 379 131 b 685 406 563 131 685 244 b 515 657 685 524 619 615 b 713 654 544 661 604 660 b 789 685 769 650 789 661 b 724 714 789 710 768 722 b 503 663 622 697 535 672 b 388 682 468 674 429 682 b 92 406 214 682 92 567 b 317 138 92 268 181 165 b 76 -12 226 132 67 85 b 300 -118 83 -85 192 -108 b 210 -164 272 -129 240 -144 b 15 -401 115 -221 25 -294 b 397 -603 -1 -569 242 -631 b 818 -236 571 -572 786 -399 b 476 -39 847 -81 729 -56 z m 185 406 b 388 668 185 564 257 668 b 592 406 519 668 592 564 b 388 143 592 247 519 143 b 185 406 257 143 185 247 z m 418 -539 b 124 -472 307 -549 193 -521 b 118 -247 46 -417 36 -324 b 321 -119 194 -175 271 -137 b 460 -126 372 -124 424 -125 b 781 -233 575 -135 765 -110 b 418 -539 794 -358 651 -517 z m 390 972 b 321 904 351 972 321 942 b 390 836 321 867 351 836 b 461 904 429 836 461 867 b 390 972 461 942 429 972 z "},"ĥ":{"ha":867,"x_min":0,"x_max":0,"o":"m 825 11 b 742 96 754 11 742 26 b 742 419 742 96 742 319 b 478 682 742 589 636 682 b 229 511 353 682 261 600 l 229 972 l 28 972 l 28 960 l 56 960 b 139 876 126 960 139 946 l 139 96 b 56 11 139 26 126 11 l 28 11 l 28 0 l 340 0 l 340 11 l 313 11 b 229 96 242 11 229 26 l 229 432 b 461 664 229 536 324 664 b 651 438 576 664 651 576 b 651 96 651 361 651 200 b 568 11 651 26 639 11 l 540 11 l 540 0 l 853 0 l 853 11 z m 244 1274 l 40 1104 l 46 1096 l 244 1204 l 443 1096 l 447 1104 z "},"ı":{"ha":354,"x_min":0,"x_max":0,"o":"m 313 11 b 229 96 242 11 229 26 l 229 672 l 28 672 l 28 660 l 56 660 b 139 576 126 660 139 646 l 139 96 b 56 11 139 26 126 11 l 28 11 l 28 0 l 340 0 l 340 11 z "},"í":{"ha":354,"x_min":0,"x_max":0,"o":"m 313 11 b 229 96 242 11 229 26 l 229 672 l 28 672 l 28 660 l 56 660 b 139 576 126 660 139 646 l 139 96 b 56 11 139 26 126 11 l 28 11 l 28 0 l 340 0 l 340 11 z m 256 958 b 196 949 243 975 225 975 b 44 803 165 922 44 803 l 49 797 b 229 903 49 797 196 882 b 256 958 263 924 268 943 z "},"ĭ":{"ha":354,"x_min":0,"x_max":0,"o":"m 313 11 b 229 96 242 11 229 26 l 229 672 l 28 672 l 28 660 l 56 660 b 139 576 126 660 139 646 l 139 96 b 56 11 139 26 126 11 l 28 11 l 28 0 l 340 0 l 340 11 z m 315 983 b 169 893 297 926 253 893 b 24 983 86 893 40 926 l 14 983 b 169 833 17 913 75 833 b 325 983 264 833 322 913 z "},"î":{"ha":354,"x_min":0,"x_max":0,"o":"m 313 11 b 229 96 242 11 229 26 l 229 672 l 28 672 l 28 660 l 56 660 b 139 576 126 660 139 646 l 139 96 b 56 11 139 26 126 11 l 28 11 l 28 0 l 340 0 l 340 11 z m 171 990 l -33 821 l -28 813 l 171 921 l 369 813 l 374 821 z "},"ï":{"ha":354,"x_min":0,"x_max":0,"o":"m 313 11 b 229 96 242 11 229 26 l 229 672 l 28 672 l 28 660 l 56 660 b 139 576 126 660 139 646 l 139 96 b 56 11 139 26 126 11 l 28 11 l 28 0 l 340 0 l 340 11 z m 64 972 b -7 904 25 972 -7 942 b 64 836 -7 867 25 836 b 133 904 103 836 133 867 b 64 972 133 942 103 972 z m 278 972 b 208 904 239 972 208 942 b 278 836 208 867 239 836 b 349 904 317 836 349 867 b 278 972 349 942 317 972 z "},"ì":{"ha":354,"x_min":0,"x_max":0,"o":"m 313 11 b 229 96 242 11 229 26 l 229 672 l 28 672 l 28 660 l 56 660 b 139 576 126 660 139 646 l 139 96 b 56 11 139 26 126 11 l 28 11 l 28 0 l 340 0 l 340 11 z m 131 949 b 71 958 101 975 83 975 b 97 903 58 943 64 924 b 278 797 131 882 278 797 l 282 803 b 131 949 282 803 160 922 z "},"ī":{"ha":354,"x_min":0,"x_max":0,"o":"m 313 11 b 229 96 242 11 229 26 l 229 672 l 28 672 l 28 660 l 56 660 b 139 576 126 660 139 646 l 139 96 b 56 11 139 26 126 11 l 28 11 l 28 0 l 340 0 l 340 11 z m -67 919 l -67 903 l 407 903 l 407 919 z "},"ĩ":{"ha":354,"x_min":0,"x_max":0,"o":"m 314 11 b 231 96 243 11 231 26 l 231 672 l 29 672 l 29 660 l 57 660 b 140 576 128 660 140 646 l 140 96 b 57 11 140 26 128 11 l 29 11 l 29 0 l 342 0 l 342 11 z m 378 982 b 206 946 361 922 314 908 b 13 940 97 985 47 965 b -46 853 -24 915 -46 853 l -33 849 b 53 915 -10 910 13 919 b 254 858 107 910 197 858 b 389 979 311 858 371 919 z "},"ĳ":{"ha":686,"x_min":0,"x_max":0,"o":"m 313 11 b 229 96 242 11 229 26 l 229 672 l 28 672 l 28 660 l 56 660 b 139 576 126 660 139 646 l 139 96 b 56 11 139 26 126 11 l 28 11 l 28 0 l 340 0 l 340 11 z m 176 813 b 240 876 211 813 240 840 b 176 940 240 911 211 940 b 113 876 140 940 113 911 b 176 813 113 840 140 813 z m 378 672 l 378 660 l 406 660 b 489 576 476 660 489 646 l 489 24 b 378 -329 489 -253 450 -315 b 222 -279 315 -340 253 -290 b 161 -304 189 -268 163 -272 b 224 -350 158 -331 190 -344 b 382 -342 269 -358 342 -353 b 578 24 444 -324 578 -267 b 578 672 578 24 578 672 z m 525 813 b 589 876 561 813 589 840 b 525 940 589 911 561 940 b 461 876 490 940 461 911 b 525 813 461 840 490 813 z "},"ĵ":{"ha":376,"x_min":0,"x_max":0,"o":"m 79 672 l 79 660 l 107 660 b 190 576 178 660 190 646 l 190 24 b 79 -329 190 -253 151 -315 b -76 -279 17 -340 -46 -290 b -137 -304 -110 -268 -136 -272 b -75 -350 -140 -331 -108 -344 b 83 -342 -29 -358 43 -353 b 279 24 146 -324 279 -267 b 279 672 279 24 279 672 z m 76 990 l -128 821 l -122 813 l 76 921 l 275 813 l 279 821 z "},"ķ":{"ha":817,"x_min":0,"x_max":0,"o":"m 782 11 b 647 96 728 11 682 47 l 410 443 l 547 576 b 703 660 599 625 633 660 l 731 660 l 731 672 l 492 672 l 492 660 l 519 660 b 542 586 585 660 583 628 l 229 286 l 229 972 l 28 972 l 28 960 l 56 960 b 139 876 126 960 139 946 l 139 96 b 56 11 139 26 126 11 l 28 11 l 28 0 l 340 0 l 340 11 l 313 11 b 229 96 242 11 229 26 l 229 269 l 350 386 b 576 53 376 349 558 81 b 658 0 597 25 619 0 b 803 0 661 0 803 0 l 803 11 z m 413 -89 b 350 -149 378 -89 350 -115 b 418 -214 350 -187 379 -206 b 365 -361 463 -224 413 -318 l 374 -369 b 474 -149 435 -306 479 -229 b 413 -89 472 -115 449 -89 z "},"ĸ":{"ha":817,"x_min":0,"x_max":0,"o":"m 782 11 b 647 96 728 11 682 47 l 410 443 l 547 576 b 703 660 599 625 633 660 l 731 660 l 731 672 l 492 672 l 492 660 l 519 660 b 542 586 585 660 583 628 l 229 286 l 229 714 l 28 714 l 28 701 l 56 701 b 139 618 126 701 139 688 l 139 96 b 56 11 139 26 126 11 l 28 11 l 28 0 l 340 0 l 340 11 l 313 11 b 229 96 242 11 229 26 l 229 269 l 350 386 b 576 53 376 349 558 81 b 658 0 597 25 619 0 b 803 0 661 0 803 0 l 803 11 z "},"ĺ":{"ha":353,"x_min":0,"x_max":0,"o":"m 311 11 b 228 96 240 11 228 26 l 228 972 l 28 972 l 28 960 l 56 960 b 139 876 125 960 139 946 l 139 96 b 56 11 139 26 125 11 l 28 11 l 28 0 l 339 0 l 339 11 z m 249 1257 b 189 1247 236 1274 218 1274 b 38 1101 158 1221 38 1101 l 42 1096 b 222 1201 42 1096 189 1181 b 249 1257 256 1222 261 1242 z "},"ľ":{"ha":494,"x_min":0,"x_max":0,"o":"m 311 11 b 228 96 240 11 228 26 l 228 972 l 28 972 l 28 960 l 56 960 b 139 876 125 960 139 946 l 139 96 b 56 11 139 26 125 11 l 28 11 l 28 0 l 339 0 l 339 11 z m 408 981 b 339 913 369 981 339 950 b 417 839 339 868 372 847 b 356 671 467 828 408 719 l 364 661 b 479 913 435 733 486 821 b 408 981 476 950 450 981 z "},"ļ":{"ha":353,"x_min":0,"x_max":0,"o":"m 311 11 b 228 96 240 11 228 26 l 228 972 l 28 972 l 28 960 l 56 960 b 139 876 125 960 139 946 l 139 96 b 56 11 139 26 125 11 l 28 11 l 28 0 l 339 0 l 339 11 z m 181 -89 b 118 -149 146 -89 118 -115 b 186 -214 118 -187 147 -206 b 133 -361 231 -224 181 -318 l 142 -369 b 242 -149 203 -306 247 -229 b 181 -89 240 -115 217 -89 z "},"ŀ":{"ha":517,"x_min":0,"x_max":0,"o":"m 311 11 b 228 96 240 11 228 26 l 228 972 l 28 972 l 28 960 l 56 960 b 139 876 125 960 139 946 l 139 96 b 56 11 139 26 125 11 l 28 11 l 28 0 l 339 0 l 339 11 z m 446 522 b 376 454 407 522 376 492 b 446 386 376 417 407 386 b 517 454 485 386 517 417 b 446 522 517 492 485 522 z "},"ń":{"ha":865,"x_min":0,"x_max":0,"o":"m 824 11 b 740 96 753 11 740 26 b 740 419 740 96 740 319 b 476 682 740 589 636 682 b 229 511 353 682 260 600 l 229 672 l 28 672 l 28 660 l 56 660 b 139 575 126 660 139 646 l 139 96 b 56 11 139 26 126 11 l 28 11 l 28 0 l 339 0 l 339 11 l 311 11 b 229 96 242 11 229 26 l 229 432 b 461 664 229 536 322 664 b 651 438 576 664 651 576 b 651 96 651 361 651 200 b 568 11 651 26 638 11 l 540 11 l 540 0 l 851 0 l 851 11 z m 539 958 b 479 949 526 975 508 975 b 328 803 449 922 328 803 l 332 797 b 513 903 332 797 479 882 b 539 958 546 924 551 943 z "},"ŉ":{"ha":1025,"x_min":0,"x_max":0,"o":"m 983 11 b 900 96 913 11 900 26 b 900 419 900 96 900 319 b 636 682 900 589 796 682 b 389 511 513 682 419 600 l 389 672 l 188 672 l 188 660 l 215 660 b 299 575 286 660 299 646 l 299 96 b 215 11 299 26 286 11 l 188 11 l 188 0 l 499 0 l 499 11 l 471 11 b 389 96 401 11 389 26 l 389 432 b 621 664 389 536 482 664 b 811 438 736 664 811 576 b 811 96 811 361 811 200 b 728 11 811 26 797 11 l 700 11 l 700 0 l 1011 0 l 1011 11 z m 90 982 b 28 922 56 982 28 956 b 96 857 28 883 57 865 b 43 710 140 847 90 753 l 51 701 b 151 922 113 765 157 842 b 90 982 150 956 126 982 z "},"ň":{"ha":865,"x_min":0,"x_max":0,"o":"m 824 11 b 740 96 753 11 740 26 b 740 419 740 96 740 319 b 476 682 740 589 636 682 b 229 511 353 682 260 600 l 229 672 l 28 672 l 28 660 l 56 660 b 139 575 126 660 139 646 l 139 96 b 56 11 139 26 126 11 l 28 11 l 28 0 l 339 0 l 339 11 l 311 11 b 229 96 242 11 229 26 l 229 432 b 461 664 229 536 322 664 b 651 438 576 664 651 576 b 651 96 651 361 651 200 b 568 11 651 26 638 11 l 540 11 l 540 0 l 851 0 l 851 11 z m 638 986 l 439 878 l 240 986 l 236 978 l 439 808 l 643 978 z "},"ņ":{"ha":865,"x_min":0,"x_max":0,"o":"m 824 11 b 740 96 753 11 740 26 b 740 419 740 96 740 319 b 476 682 740 589 636 682 b 229 511 353 682 260 600 l 229 672 l 28 672 l 28 660 l 56 660 b 139 575 126 660 139 646 l 139 96 b 56 11 139 26 126 11 l 28 11 l 28 0 l 339 0 l 339 11 l 311 11 b 229 96 242 11 229 26 l 229 432 b 461 664 229 536 322 664 b 651 438 576 664 651 576 b 651 96 651 361 651 200 b 568 11 651 26 638 11 l 540 11 l 540 0 l 851 0 l 851 11 z m 438 -89 b 375 -149 403 -89 375 -115 b 443 -214 375 -187 404 -206 b 390 -361 488 -224 438 -318 l 399 -369 b 499 -149 460 -306 504 -229 b 438 -89 497 -115 474 -89 z "},"ñ":{"ha":865,"x_min":0,"x_max":0,"o":"m 824 11 b 740 96 753 11 740 26 b 740 419 740 96 740 319 b 476 682 740 589 636 682 b 229 511 353 682 260 600 l 229 672 l 28 672 l 28 660 l 56 660 b 139 575 126 660 139 646 l 139 96 b 56 11 139 26 126 11 l 28 11 l 28 0 l 339 0 l 339 11 l 311 11 b 229 96 242 11 229 26 l 229 432 b 461 664 229 536 322 664 b 651 438 576 664 651 576 b 651 96 651 361 651 200 b 568 11 651 26 638 11 l 540 11 l 540 0 l 851 0 l 851 11 z m 660 982 b 488 946 643 922 596 908 b 294 940 379 985 329 965 b 236 853 258 915 236 853 l 249 849 b 335 915 272 910 294 919 b 536 858 389 910 479 858 b 671 979 593 858 653 919 z "},"ó":{"ha":794,"x_min":0,"x_max":0,"o":"m 404 682 b 42 336 189 682 42 538 b 404 -8 42 135 189 -8 b 767 336 618 -8 767 135 b 404 682 767 538 618 682 z m 404 4 b 131 336 232 4 131 138 b 404 668 131 535 232 668 b 678 336 576 668 678 535 b 404 4 678 138 576 4 z m 503 958 b 443 949 490 975 472 975 b 292 803 413 922 292 803 l 296 797 b 476 903 296 797 443 882 b 503 958 510 924 515 943 z "},"ŏ":{"ha":794,"x_min":0,"x_max":0,"o":"m 404 682 b 42 336 189 682 42 538 b 404 -8 42 135 189 -8 b 767 336 618 -8 767 135 b 404 682 767 538 618 682 z m 404 4 b 131 336 232 4 131 138 b 404 668 131 535 232 668 b 678 336 576 668 678 535 b 404 4 678 138 576 4 z m 550 983 b 404 893 532 926 488 893 b 258 983 321 893 275 926 l 249 983 b 404 833 251 913 310 833 b 560 983 499 833 557 913 z "},"ô":{"ha":794,"x_min":0,"x_max":0,"o":"m 404 682 b 42 336 189 682 42 538 b 404 -8 42 135 189 -8 b 767 336 618 -8 767 135 b 404 682 767 538 618 682 z m 404 4 b 131 336 232 4 131 138 b 404 668 131 535 232 668 b 678 336 576 668 678 535 b 404 4 678 138 576 4 z m 404 990 l 200 821 l 206 813 l 404 921 l 603 813 l 607 821 z "},"ö":{"ha":794,"x_min":0,"x_max":0,"o":"m 404 682 b 42 336 189 682 42 538 b 404 -8 42 135 189 -8 b 767 336 618 -8 767 135 b 404 682 767 538 618 682 z m 404 4 b 131 336 232 4 131 138 b 404 668 131 535 232 668 b 678 336 576 668 678 535 b 404 4 678 138 576 4 z m 297 972 b 226 904 258 972 226 942 b 297 836 226 867 258 836 b 367 904 336 836 367 867 b 297 972 367 942 336 972 z m 511 972 b 442 904 472 972 442 942 b 511 836 442 867 472 836 b 582 904 550 836 582 867 b 511 972 582 942 550 972 z "},"ò":{"ha":794,"x_min":0,"x_max":0,"o":"m 404 682 b 42 336 189 682 42 538 b 404 -8 42 135 189 -8 b 767 336 618 -8 767 135 b 404 682 767 538 618 682 z m 404 4 b 131 336 232 4 131 138 b 404 668 131 535 232 668 b 678 336 576 668 678 535 b 404 4 678 138 576 4 z m 364 949 b 304 958 335 975 317 975 b 331 903 292 943 297 924 b 511 797 364 882 511 797 l 515 803 b 364 949 515 803 393 922 z "},"ő":{"ha":794,"x_min":0,"x_max":0,"o":"m 404 682 b 42 336 189 682 42 538 b 404 -8 42 135 189 -8 b 767 336 618 -8 767 135 b 404 682 767 538 618 682 z m 404 4 b 131 336 232 4 131 138 b 404 668 131 535 232 668 b 678 336 576 668 678 535 b 404 4 678 138 576 4 z m 438 982 b 381 957 421 994 403 990 b 272 778 360 924 272 778 l 276 774 b 426 922 276 774 399 893 b 438 982 453 950 453 969 z m 601 982 b 546 957 586 994 568 990 b 438 778 525 924 438 778 l 442 774 b 590 922 442 774 564 893 b 601 982 618 950 618 969 z "},"ō":{"ha":794,"x_min":0,"x_max":0,"o":"m 404 682 b 42 336 189 682 42 538 b 404 -8 42 135 189 -8 b 767 336 618 -8 767 135 b 404 682 767 538 618 682 z m 404 4 b 131 336 232 4 131 138 b 404 668 131 535 232 668 b 678 336 576 668 678 535 b 404 4 678 138 576 4 z m 167 919 l 167 903 l 640 903 l 640 919 z "},"ǿ":{"ha":794,"x_min":0,"x_max":0,"o":"m 664 585 l 767 688 l 756 699 l 653 596 b 404 682 589 649 504 682 b 42 336 189 682 42 538 b 143 86 42 235 79 147 l 42 -15 l 53 -26 l 156 76 b 404 -8 218 22 304 -8 b 767 336 618 -8 767 135 b 664 585 767 438 729 524 z m 131 336 b 404 668 131 535 232 668 b 617 560 497 668 571 628 l 182 125 b 131 336 149 181 131 253 z m 404 4 b 190 111 310 4 238 43 l 626 547 b 678 336 660 492 678 419 b 404 4 678 138 576 4 z m 503 958 b 443 949 490 975 472 975 b 292 803 413 922 292 803 l 296 797 b 476 903 296 797 443 882 b 503 958 510 924 515 943 z "},"õ":{"ha":794,"x_min":0,"x_max":0,"o":"m 404 682 b 42 336 189 682 42 538 b 404 -8 42 135 189 -8 b 767 336 618 -8 767 135 b 404 682 767 538 618 682 z m 404 4 b 131 336 232 4 131 138 b 404 668 131 535 232 668 b 678 336 576 668 678 535 b 404 4 678 138 576 4 z m 610 982 b 438 946 593 922 546 908 b 244 940 329 985 279 965 b 186 853 208 915 186 853 l 199 849 b 285 915 222 910 244 919 b 486 858 339 910 429 858 b 621 979 543 858 603 919 z "},"ŕ":{"ha":600,"x_min":0,"x_max":0,"o":"m 514 676 b 294 618 413 689 338 675 b 228 475 264 576 242 525 l 228 672 l 28 672 l 28 660 l 56 660 b 139 575 125 660 139 646 l 139 96 b 56 11 139 26 125 11 l 28 11 l 28 0 l 388 0 l 388 11 l 311 11 b 228 96 240 11 228 26 l 228 393 b 304 607 228 460 251 558 b 485 608 363 663 419 640 b 569 625 528 589 564 599 b 514 676 578 657 556 671 z m 426 958 b 367 949 414 975 396 975 b 215 803 336 922 215 803 l 219 797 b 400 903 219 797 367 882 b 426 958 433 924 439 943 z "},"ř":{"ha":600,"x_min":0,"x_max":0,"o":"m 514 676 b 294 618 413 689 338 675 b 228 475 264 576 242 525 l 228 672 l 28 672 l 28 660 l 56 660 b 139 575 125 660 139 646 l 139 96 b 56 11 139 26 125 11 l 28 11 l 28 0 l 388 0 l 388 11 l 311 11 b 228 96 240 11 228 26 l 228 393 b 304 607 228 460 251 558 b 485 608 363 663 419 640 b 569 625 528 589 564 599 b 514 676 578 657 556 671 z m 497 986 l 299 878 l 100 986 l 96 978 l 299 808 l 503 978 z "},"ŗ":{"ha":600,"x_min":0,"x_max":0,"o":"m 514 676 b 294 618 413 689 338 675 b 228 475 264 576 242 525 l 228 672 l 28 672 l 28 660 l 56 660 b 139 575 125 660 139 646 l 139 96 b 56 11 139 26 125 11 l 28 11 l 28 0 l 388 0 l 388 11 l 311 11 b 228 96 240 11 228 26 l 228 393 b 304 607 228 460 251 558 b 485 608 363 663 419 640 b 569 625 528 589 564 599 b 514 676 578 657 556 671 z m 182 -89 b 119 -149 147 -89 119 -115 b 188 -214 119 -187 149 -206 b 135 -361 232 -224 182 -318 l 143 -369 b 243 -149 204 -306 249 -229 b 182 -89 242 -115 218 -89 z "},"ś":{"ha":614,"x_min":0,"x_max":0,"o":"m 319 396 b 140 542 226 436 140 464 b 308 667 139 628 235 669 b 531 460 474 661 531 588 b 531 407 531 438 531 407 l 539 407 l 539 686 l 531 686 b 531 660 531 686 531 676 b 511 621 531 640 528 621 b 310 682 485 622 450 678 b 83 540 265 683 104 663 b 304 306 64 422 154 364 b 522 132 438 254 528 218 b 306 7 517 43 413 1 b 51 214 206 11 51 75 b 51 267 51 229 51 267 l 42 267 l 42 -12 l 51 -12 b 51 8 51 -12 51 -4 b 75 69 51 38 56 65 b 322 -8 111 75 174 -4 b 585 168 453 -12 571 46 b 319 396 600 306 426 350 z m 426 958 b 367 949 414 975 396 975 b 215 803 336 922 215 803 l 219 797 b 400 903 219 797 367 882 b 426 958 433 924 439 943 z "},"š":{"ha":614,"x_min":0,"x_max":0,"o":"m 319 396 b 140 542 226 436 140 464 b 308 667 139 628 235 669 b 531 460 474 661 531 588 b 531 407 531 438 531 407 l 539 407 l 539 686 l 531 686 b 531 660 531 686 531 676 b 511 621 531 640 528 621 b 310 682 485 622 450 678 b 83 540 265 683 104 663 b 304 306 64 422 154 364 b 522 132 438 254 528 218 b 306 7 517 43 413 1 b 51 214 206 11 51 75 b 51 267 51 229 51 267 l 42 267 l 42 -12 l 51 -12 b 51 8 51 -12 51 -4 b 75 69 51 38 56 65 b 322 -8 111 75 174 -4 b 585 168 453 -12 571 46 b 319 396 600 306 426 350 z m 525 986 l 326 878 l 128 986 l 124 978 l 326 808 l 531 978 z "},"ŝ":{"ha":614,"x_min":0,"x_max":0,"o":"m 319 396 b 140 542 226 436 140 464 b 308 667 139 628 235 669 b 531 460 474 661 531 588 b 531 407 531 438 531 407 l 539 407 l 539 686 l 531 686 b 531 660 531 686 531 676 b 511 621 531 640 528 621 b 310 682 485 622 450 678 b 83 540 265 683 104 663 b 304 306 64 422 154 364 b 522 132 438 254 528 218 b 306 7 517 43 413 1 b 51 214 206 11 51 75 b 51 267 51 229 51 267 l 42 267 l 42 -12 l 51 -12 b 51 8 51 -12 51 -4 b 75 69 51 38 56 65 b 322 -8 111 75 174 -4 b 585 168 453 -12 571 46 b 319 396 600 306 426 350 z m 328 990 l 124 821 l 129 813 l 328 921 l 526 813 l 531 821 z "},"ș":{"ha":614,"x_min":0,"x_max":0,"o":"m 319 396 b 140 542 226 436 140 464 b 308 667 139 628 235 669 b 531 460 474 661 531 588 b 531 407 531 438 531 407 l 539 407 l 539 686 l 531 686 b 531 660 531 686 531 676 b 511 621 531 640 528 621 b 310 682 485 622 450 678 b 83 540 265 683 104 663 b 304 306 64 422 154 364 b 522 132 438 254 528 218 b 306 7 517 43 413 1 b 51 214 206 11 51 75 b 51 267 51 229 51 267 l 42 267 l 42 -12 l 51 -12 b 51 8 51 -12 51 -4 b 75 69 51 38 56 65 b 322 -8 111 75 174 -4 b 585 168 453 -12 571 46 b 319 396 600 306 426 350 z m 311 -89 b 249 -149 276 -89 249 -115 b 317 -214 249 -187 278 -206 b 264 -361 361 -224 311 -318 l 272 -369 b 372 -149 333 -306 378 -229 b 311 -89 371 -115 347 -89 z "},"ť":{"ha":517,"x_min":0,"x_max":0,"o":"m 482 122 b 329 11 454 88 408 11 b 222 174 272 11 222 40 l 222 660 l 429 660 l 429 672 l 222 672 l 222 888 b 213 888 222 888 217 888 b 14 672 189 774 118 672 l 14 660 l 132 660 l 132 197 b 314 -8 132 53 190 -8 b 489 115 404 -8 467 89 z m 406 1076 b 343 1017 371 1076 343 1050 b 411 951 343 978 372 960 b 358 804 456 942 406 847 l 367 796 b 467 1017 428 860 472 936 b 406 1076 465 1050 442 1076 z "},"ţ":{"ha":517,"x_min":0,"x_max":0,"o":"m 482 122 b 329 11 454 88 408 11 b 222 174 272 11 222 40 l 222 660 l 429 660 l 429 672 l 222 672 l 222 888 b 213 888 222 888 217 888 b 14 672 189 774 118 672 l 14 660 l 132 660 l 132 197 b 314 -8 132 53 190 -8 b 489 115 404 -8 467 89 z m 269 -89 b 207 -149 235 -89 207 -115 b 275 -214 207 -187 236 -206 b 222 -361 319 -224 269 -318 l 231 -369 b 331 -149 292 -306 336 -229 b 269 -89 329 -115 306 -89 z "},"ú":{"ha":851,"x_min":0,"x_max":0,"o":"m 810 11 b 726 96 739 11 726 26 l 726 672 l 526 672 l 526 660 l 554 660 b 636 575 624 660 636 646 l 636 240 b 431 8 636 135 569 8 b 214 235 306 8 214 88 b 214 672 214 353 214 672 l 14 672 l 14 660 l 42 660 b 125 575 113 660 125 646 b 125 251 125 575 125 351 b 413 -8 125 74 249 -8 b 636 154 533 -8 610 68 l 636 0 l 838 0 l 838 11 z m 525 958 b 465 949 513 975 494 975 b 314 803 435 922 314 803 l 318 797 b 499 903 318 797 465 882 b 525 958 532 924 538 943 z "},"ŭ":{"ha":851,"x_min":0,"x_max":0,"o":"m 810 11 b 726 96 739 11 726 26 l 726 672 l 526 672 l 526 660 l 554 660 b 636 575 624 660 636 646 l 636 240 b 431 8 636 135 569 8 b 214 235 306 8 214 88 b 214 672 214 353 214 672 l 14 672 l 14 660 l 42 660 b 125 575 113 660 125 646 b 125 251 125 575 125 351 b 413 -8 125 74 249 -8 b 636 154 533 -8 610 68 l 636 0 l 838 0 l 838 11 z m 557 983 b 411 893 539 926 494 893 b 265 983 328 893 282 926 l 256 983 b 411 833 258 913 317 833 b 567 983 506 833 564 913 z "},"û":{"ha":851,"x_min":0,"x_max":0,"o":"m 810 11 b 726 96 739 11 726 26 l 726 672 l 526 672 l 526 660 l 554 660 b 636 575 624 660 636 646 l 636 240 b 431 8 636 135 569 8 b 214 235 306 8 214 88 b 214 672 214 353 214 672 l 14 672 l 14 660 l 42 660 b 125 575 113 660 125 646 b 125 251 125 575 125 351 b 413 -8 125 74 249 -8 b 636 154 533 -8 610 68 l 636 0 l 838 0 l 838 11 z m 413 990 l 208 821 l 214 813 l 413 921 l 611 813 l 615 821 z "},"ü":{"ha":851,"x_min":0,"x_max":0,"o":"m 810 11 b 726 96 739 11 726 26 l 726 672 l 526 672 l 526 660 l 554 660 b 636 575 624 660 636 646 l 636 240 b 431 8 636 135 569 8 b 214 235 306 8 214 88 b 214 672 214 353 214 672 l 14 672 l 14 660 l 42 660 b 125 575 113 660 125 646 b 125 251 125 575 125 351 b 413 -8 125 74 249 -8 b 636 154 533 -8 610 68 l 636 0 l 838 0 l 838 11 z m 304 972 b 233 904 265 972 233 942 b 304 836 233 867 265 836 b 374 904 343 836 374 867 b 304 972 374 942 343 972 z m 518 972 b 449 904 479 972 449 942 b 518 836 449 867 479 836 b 589 904 557 836 589 867 b 518 972 589 942 557 972 z "},"ű":{"ha":851,"x_min":0,"x_max":0,"o":"m 810 11 b 726 96 739 11 726 26 l 726 672 l 526 672 l 526 660 l 554 660 b 636 575 624 660 636 646 l 636 240 b 431 8 636 135 569 8 b 214 235 306 8 214 88 b 214 672 214 353 214 672 l 14 672 l 14 660 l 42 660 b 125 575 113 660 125 646 b 125 251 125 575 125 351 b 413 -8 125 74 249 -8 b 636 154 533 -8 610 68 l 636 0 l 838 0 l 838 11 z m 446 982 b 389 957 429 994 411 990 b 281 778 368 924 281 778 l 285 774 b 435 922 285 774 407 893 b 446 982 461 950 461 969 z m 610 982 b 554 957 594 994 576 990 b 446 778 533 924 446 778 l 450 774 b 599 922 450 774 572 893 b 610 982 626 950 626 969 z "},"ù":{"ha":851,"x_min":0,"x_max":0,"o":"m 810 11 b 726 96 739 11 726 26 l 726 672 l 526 672 l 526 660 l 554 660 b 636 575 624 660 636 646 l 636 240 b 431 8 636 135 569 8 b 214 235 306 8 214 88 b 214 672 214 353 214 672 l 14 672 l 14 660 l 42 660 b 125 575 113 660 125 646 b 125 251 125 575 125 351 b 413 -8 125 74 249 -8 b 636 154 533 -8 610 68 l 636 0 l 838 0 l 838 11 z m 358 949 b 299 958 329 975 311 975 b 325 903 286 943 292 924 b 506 797 358 882 506 797 l 510 803 b 358 949 510 803 388 922 z "},"ū":{"ha":851,"x_min":0,"x_max":0,"o":"m 810 11 b 726 96 739 11 726 26 l 726 672 l 526 672 l 526 660 l 554 660 b 636 575 624 660 636 646 l 636 240 b 431 8 636 135 569 8 b 214 235 306 8 214 88 b 214 672 214 353 214 672 l 14 672 l 14 660 l 42 660 b 125 575 113 660 125 646 b 125 251 125 575 125 351 b 413 -8 125 74 249 -8 b 636 154 533 -8 610 68 l 636 0 l 838 0 l 838 11 z m 175 919 l 175 903 l 649 903 l 649 919 z "},"ů":{"ha":851,"x_min":0,"x_max":0,"o":"m 810 11 b 726 96 739 11 726 26 l 726 672 l 526 672 l 526 660 l 554 660 b 636 575 624 660 636 646 l 636 240 b 431 8 636 135 569 8 b 214 235 306 8 214 88 b 214 672 214 353 214 672 l 14 672 l 14 660 l 42 660 b 125 575 113 660 125 646 b 125 251 125 575 125 351 b 413 -8 125 74 249 -8 b 636 154 533 -8 610 68 l 636 0 l 838 0 l 838 11 z m 413 1044 b 281 922 344 1044 281 996 b 413 801 281 850 344 801 b 543 922 479 801 543 850 b 413 1044 543 996 479 1044 z m 413 810 b 331 922 364 810 331 853 b 413 1036 331 992 364 1036 b 493 922 460 1036 493 992 b 413 810 493 853 460 810 z "},"ũ":{"ha":851,"x_min":0,"x_max":0,"o":"m 810 11 b 726 96 739 11 726 26 l 726 672 l 526 672 l 526 660 l 554 660 b 636 575 624 660 636 646 l 636 240 b 431 8 636 135 569 8 b 214 235 306 8 214 88 b 214 672 214 353 214 672 l 14 672 l 14 660 l 42 660 b 125 575 113 660 125 646 b 125 251 125 575 125 351 b 413 -8 125 74 249 -8 b 636 154 533 -8 610 68 l 636 0 l 838 0 l 838 11 z m 618 982 b 446 946 601 922 554 908 b 253 940 338 985 288 965 b 194 853 217 915 194 853 l 207 849 b 293 915 231 910 253 919 b 494 858 347 910 438 858 b 629 979 551 858 611 919 z "},"ẃ":{"ha":1119,"x_min":0,"x_max":0,"o":"m 910 672 l 910 660 l 913 660 b 976 576 983 660 1003 643 l 793 101 l 589 576 b 632 660 561 639 561 660 l 653 660 l 653 672 l 364 672 l 364 660 l 379 660 b 499 575 450 660 469 642 l 560 436 l 415 94 l 200 576 b 240 660 171 639 171 660 l 261 660 l 261 672 l -28 672 l -28 660 l -12 660 b 108 575 58 660 78 642 l 375 0 l 390 0 l 568 419 l 753 0 l 769 0 l 992 576 b 1096 660 1014 632 1032 660 l 1106 660 l 1106 672 z m 596 958 b 536 949 583 975 565 975 b 385 803 506 922 385 803 l 389 797 b 569 903 389 797 536 882 b 596 958 603 924 608 943 z "},"ŵ":{"ha":1119,"x_min":0,"x_max":0,"o":"m 910 672 l 910 660 l 913 660 b 976 576 983 660 1003 643 l 793 101 l 589 576 b 632 660 561 639 561 660 l 653 660 l 653 672 l 364 672 l 364 660 l 379 660 b 499 575 450 660 469 642 l 560 436 l 415 94 l 200 576 b 240 660 171 639 171 660 l 261 660 l 261 672 l -28 672 l -28 660 l -12 660 b 108 575 58 660 78 642 l 375 0 l 390 0 l 568 419 l 753 0 l 769 0 l 992 576 b 1096 660 1014 632 1032 660 l 1106 660 l 1106 672 z m 525 990 l 321 821 l 326 813 l 525 921 l 724 813 l 728 821 z "},"ẅ":{"ha":1119,"x_min":0,"x_max":0,"o":"m 910 672 l 910 660 l 913 660 b 976 576 983 660 1003 643 l 793 101 l 589 576 b 632 660 561 639 561 660 l 653 660 l 653 672 l 364 672 l 364 660 l 379 660 b 499 575 450 660 469 642 l 560 436 l 415 94 l 200 576 b 240 660 171 639 171 660 l 261 660 l 261 672 l -28 672 l -28 660 l -12 660 b 108 575 58 660 78 642 l 375 0 l 390 0 l 568 419 l 753 0 l 769 0 l 992 576 b 1096 660 1014 632 1032 660 l 1106 660 l 1106 672 z m 418 972 b 347 904 379 972 347 942 b 418 836 347 867 379 836 b 488 904 457 836 488 867 b 418 972 488 942 457 972 z m 632 972 b 563 904 593 972 563 942 b 632 836 563 867 593 836 b 703 904 671 836 703 867 b 632 972 703 942 671 972 z "},"ẁ":{"ha":1119,"x_min":0,"x_max":0,"o":"m 910 672 l 910 660 l 913 660 b 976 576 983 660 1003 643 l 793 101 l 589 576 b 632 660 561 639 561 660 l 653 660 l 653 672 l 364 672 l 364 660 l 379 660 b 499 575 450 660 469 642 l 560 436 l 415 94 l 200 576 b 240 660 171 639 171 660 l 261 660 l 261 672 l -28 672 l -28 660 l -12 660 b 108 575 58 660 78 642 l 375 0 l 390 0 l 568 419 l 753 0 l 769 0 l 992 576 b 1096 660 1014 632 1032 660 l 1106 660 l 1106 672 z m 526 949 b 467 958 497 975 479 975 b 493 903 454 943 460 924 b 674 797 526 882 674 797 l 678 803 b 526 949 678 803 556 922 z "},"ý":{"ha":747,"x_min":0,"x_max":0,"o":"m 538 672 l 538 660 l 540 660 b 600 575 611 660 629 644 l 403 107 l 203 575 b 247 660 175 640 176 660 l 267 660 l 267 672 l -22 672 l -22 660 l -7 660 b 111 575 64 660 83 643 l 356 0 b 33 -222 249 -237 172 -242 b -26 -249 -1 -218 -24 -221 b 28 -290 -29 -276 -7 -286 b 372 0 144 -304 257 -262 l 615 575 b 722 660 639 632 660 660 l 733 660 l 733 672 z m 493 958 b 433 949 481 975 463 975 b 282 803 403 922 282 803 l 286 797 b 467 903 286 797 433 882 b 493 958 500 924 506 943 z "},"ŷ":{"ha":747,"x_min":0,"x_max":0,"o":"m 538 672 l 538 660 l 540 660 b 600 575 611 660 629 644 l 403 107 l 203 575 b 247 660 175 640 176 660 l 267 660 l 267 672 l -22 672 l -22 660 l -7 660 b 111 575 64 660 83 643 l 356 0 b 33 -222 249 -237 172 -242 b -26 -249 -1 -218 -24 -221 b 28 -290 -29 -276 -7 -286 b 372 0 144 -304 257 -262 l 615 575 b 722 660 639 632 660 660 l 733 660 l 733 672 z m 408 990 l 204 821 l 210 813 l 408 921 l 607 813 l 611 821 z "},"ÿ":{"ha":747,"x_min":0,"x_max":0,"o":"m 538 672 l 538 660 l 540 660 b 600 575 611 660 629 644 l 403 107 l 203 575 b 247 660 175 640 176 660 l 267 660 l 267 672 l -22 672 l -22 660 l -7 660 b 111 575 64 660 83 643 l 356 0 b 33 -222 249 -237 172 -242 b -26 -249 -1 -218 -24 -221 b 28 -290 -29 -276 -7 -286 b 372 0 144 -304 257 -262 l 615 575 b 722 660 639 632 660 660 l 733 660 l 733 672 z m 288 972 b 217 904 249 972 217 942 b 288 836 217 867 249 836 b 357 904 326 836 357 867 b 288 972 357 942 326 972 z m 501 972 b 432 904 463 972 432 942 b 501 836 432 867 463 836 b 572 904 540 836 572 867 b 501 972 572 942 540 972 z "},"ỳ":{"ha":747,"x_min":0,"x_max":0,"o":"m 538 672 l 538 660 l 540 660 b 600 575 611 660 629 644 l 403 107 l 203 575 b 247 660 175 640 176 660 l 267 660 l 267 672 l -22 672 l -22 660 l -7 660 b 111 575 64 660 83 643 l 356 0 b 33 -222 249 -237 172 -242 b -26 -249 -1 -218 -24 -221 b 28 -290 -29 -276 -7 -286 b 372 0 144 -304 257 -262 l 615 575 b 722 660 639 632 660 660 l 733 660 l 733 672 z m 354 949 b 294 958 325 975 307 975 b 321 903 282 943 288 924 b 501 797 354 882 501 797 l 506 803 b 354 949 506 803 383 922 z "},"ź":{"ha":639,"x_min":0,"x_max":0,"o":"m 585 240 l 585 136 b 500 15 585 65 571 15 l 131 15 l 572 656 l 572 672 l 54 672 l 54 432 l 65 432 l 65 536 b 150 656 65 607 81 656 l 483 656 l 42 15 l 42 0 l 597 0 l 597 240 z m 432 958 b 372 949 419 975 401 975 b 221 803 342 922 221 803 l 225 797 b 406 903 225 797 372 882 b 432 958 439 924 444 943 z "},"ž":{"ha":639,"x_min":0,"x_max":0,"o":"m 585 240 l 585 136 b 500 15 585 65 571 15 l 131 15 l 572 656 l 572 672 l 54 672 l 54 432 l 65 432 l 65 536 b 150 656 65 607 81 656 l 483 656 l 42 15 l 42 0 l 597 0 l 597 240 z m 531 986 l 332 878 l 133 986 l 129 978 l 332 808 l 536 978 z "},"ż":{"ha":639,"x_min":0,"x_max":0,"o":"m 585 240 l 585 136 b 500 15 585 65 571 15 l 131 15 l 572 656 l 572 672 l 54 672 l 54 432 l 65 432 l 65 536 b 150 656 65 607 81 656 l 483 656 l 42 15 l 42 0 l 597 0 l 597 240 z m 332 972 b 263 904 293 972 263 942 b 332 836 263 867 293 836 b 403 904 371 836 403 867 b 332 972 403 942 371 972 z "},"A":{"ha":1024,"x_min":0,"x_max":0,"o":"m 994 11 b 872 96 924 11 903 28 l 501 972 l 485 972 l 146 96 b 38 11 122 38 100 11 l 14 11 l 14 0 l 249 0 l 249 11 l 221 11 b 161 96 150 11 135 26 l 250 324 l 679 324 l 775 96 b 738 11 804 29 808 11 l 710 11 l 710 0 l 1010 0 l 1010 11 z m 257 340 l 454 851 l 672 340 z "}}}
